<?xml version="1.0" encoding="utf-8"?>
<!-- Generator: Adobe Illustrator 19.0.1, SVG Export Plug-In . SVG Version: 6.00 Build 0)  -->
<svg version="1.1" id="Layer_1" xmlns="http://www.w3.org/2000/svg" xmlns:xlink="http://www.w3.org/1999/xlink" x="0px" y="0px"
	 viewBox="-207 108 40 40" style="enable-background:new -207 108 40 40;" xml:space="preserve">
<path d="M-187,113c-8.28,0-15,6.72-15,15s6.72,15,15,15s15-6.72,15-15S-178.72,113-187,113z M-185.5,138.5h-3v-3h3V138.5z
	 M-182.395,126.875l-1.35,1.38c-1.08,1.095-1.755,1.995-1.755,4.245h-3v-0.75c0-1.65,0.675-3.15,1.755-4.245l1.86-1.89
	c0.555-0.54,0.885-1.29,0.885-2.115c0-1.65-1.35-3-3-3s-3,1.35-3,3h-3c0-3.315,2.685-6,6-6s6,2.685,6,6
	C-181,124.82-181.54,126.02-182.395,126.875z"/>
</svg>
