<?xml version="1.0" encoding="utf-8"?>
<!-- Generator: Adobe Illustrator 21.0.0, SVG Export Plug-In . SVG Version: 6.00 Build 0)  -->
<svg version="1.1" id="Layer_1" xmlns="http://www.w3.org/2000/svg" xmlns:xlink="http://www.w3.org/1999/xlink" x="0px" y="0px"
	 viewBox="0 0 400 75" style="enable-background:new 0 0 400 75;" xml:space="preserve">
<style type="text/css">
	.st0{opacity:0.6;}
</style>
<g class="st0">
	<path d="M0,5.5V0h39.9v5.5H23v44h-6.1v-44H0z"/>
	<path d="M52.1,0.1v20.3c2.6-4.1,6.7-6.1,12.1-6.2c4.8,0,8.4,1.4,10.9,4.3s3.7,6.8,3.7,11.8v19.2h-5.7V30.3c0-3.4-0.9-6.1-2.6-8
		s-4.2-2.8-7.3-2.8s-5.8,1.1-7.9,3.3c-2.1,2.2-3.1,4.9-3.1,8.1v18.5h-5.8V0L52.1,0.1L52.1,0.1z"/>
	<path d="M120.3,43.9c-1.7,2-3.9,3.6-6.6,4.6c-2.7,1.1-5.5,1.6-8.4,1.6c-5.5,0-9.9-1.7-13.3-5s-5.1-7.7-5.1-13.3
		c0-5.3,1.7-9.6,5.1-13s7.7-5.1,13-5.1c5.7,0,10.1,1.8,13.5,5.3c3.3,3.5,4.7,8.6,4,15.2H92.7c0.3,3.2,1.7,5.7,4,7.6
		c2.4,1.9,5.2,2.9,8.6,2.9c2.1,0,4.2-0.4,6.3-1.2s3.7-1.9,4.8-3.2L120.3,43.9L120.3,43.9z M116.9,29.5c-0.1-3.3-1.3-5.9-3.4-7.7
		c-2.1-1.8-4.9-2.7-8.4-2.7c-3.2,0-5.9,0.9-8.2,2.8c-2.3,1.8-3.7,4.4-4.2,7.6L116.9,29.5L116.9,29.5z"/>
	<path d="M150,0l13.7,41l13.7-41h4l13.9,41l13.5-41h7l-17.3,49.6h-6.2l-12.9-37.1l-12.8,37.1h-6.2L143.1,0H150z"/>
	<path d="M250.4,43.9c-1.7,2-3.9,3.6-6.6,4.6c-2.7,1.1-5.5,1.6-8.4,1.6c-5.5,0-9.9-1.7-13.3-5c-3.4-3.3-5.1-7.7-5.1-13.3
		c0-5.3,1.7-9.6,5.1-13c3.4-3.4,7.7-5.1,13-5.1c5.7,0,10.1,1.8,13.5,5.3c3.3,3.5,4.7,8.6,4,15.2h-29.7c0.3,3.2,1.7,5.7,4,7.6
		c2.4,1.9,5.2,2.9,8.6,2.9c2.1,0,4.2-0.4,6.3-1.2s3.7-1.9,4.8-3.2L250.4,43.9L250.4,43.9z M247,29.5c-0.1-3.3-1.3-5.9-3.4-7.7
		c-2.1-1.8-4.9-2.7-8.4-2.7c-3.2,0-5.9,0.9-8.2,2.8c-2.3,1.8-3.7,4.4-4.2,7.6L247,29.5L247,29.5z"/>
	<path d="M266.4,20.9c1.2-2.3,3-4,5.4-5.2c2.5-1.2,5-1.8,7.6-1.8c5.2,0,9.4,1.6,12.7,4.8c3.3,3.2,4.9,7.6,4.9,13.3
		c0,5.6-1.7,10-5,13.3c-3.3,3.2-7.6,4.8-12.8,4.8c-2.7,0-5.2-0.6-7.5-1.8s-4.2-2.9-5.5-5.2l-0.3,6.4h-5.5V0h5.8v20.9H266.4z
		 M270.3,22.9c-2.4,2.4-3.6,5.4-3.6,9.1c0,3.8,1.2,6.8,3.5,9.2c2.4,2.4,5.3,3.5,8.8,3.5s6.5-1.1,8.8-3.4c2.3-2.3,3.5-5.4,3.5-9.3
		c0-4-1.2-7.1-3.5-9.3s-5.3-3.4-8.8-3.4C275.6,19.4,272.7,20.6,270.3,22.9z"/>
	<path d="M311.9,49.5h-5.8V0h5.8V49.5z"/>
	<path d="M325.8,18.9c3.4-3.4,7.7-5.1,13-5.1s9.7,1.7,13.1,5.1s5.1,7.8,5.1,13.2c0,5.3-1.7,9.6-5.1,13s-7.8,5.1-13,5.1
		s-9.6-1.7-13-5.1c-3.4-3.4-5.1-7.7-5.1-13C320.7,26.7,322.4,22.3,325.8,18.9z M347.7,22.7c-2.4-2.4-5.3-3.6-8.8-3.6
		c-3.6,0-6.5,1.2-8.9,3.6c-2.3,2.4-3.5,5.5-3.5,9.4c0,3.7,1.2,6.7,3.5,9.1c2.3,2.4,5.3,3.5,8.8,3.5c3.6,0,6.5-1.2,8.9-3.5
		c2.3-2.4,3.5-5.4,3.6-9.1C351.2,28.3,350.1,25.2,347.7,22.7z"/>
	<path d="M372.8,62.5c2.4,1.6,5.3,2.4,8.8,2.5c3.4,0,6.3-0.7,8.7-2c2.4-1.3,3.6-3.4,3.6-6.3c0-2.7-1.2-4.8-3.5-6.2
		c-2.3-1.5-5.2-2.2-8.7-2.2c-5.6,0-10-1.5-13.4-4.6s-5.1-7.3-5.1-12.7s1.9-9.7,5.6-12.7c3.7-3.1,8-4.6,12.9-4.6
		c4.1,0,7.4,0.9,9.9,2.6l3.7-4.5l4.1,3.3l-4,4.7c3,3.4,4.5,7.2,4.5,11.3c0,3.2-0.8,6.1-2.5,8.7c-1.7,2.6-4.1,4.4-7.3,5.5
		c6.4,1.9,9.6,5.7,9.6,11.4c0,4.3-1.8,7.6-5.4,10s-7.9,3.6-12.9,3.6c-5.4,0-9.7-1.3-13-4c-3.3-2.7-4.9-6.3-4.8-10.9h5.6
		C369.2,58.5,370.4,60.9,372.8,62.5z M372.6,40c2.4,2.1,5.4,3.2,9.1,3.2s6.7-1.2,9.1-3.5s3.5-5.2,3.5-8.6c0-3.8-1.2-6.8-3.7-8.9
		s-5.5-3.2-8.9-3.2s-6.4,1-8.9,3.1S369,27.2,369,31C369,34.9,370.2,37.9,372.6,40z"/>
</g>
</svg>
