<?xml version="1.0" encoding="utf-8"?>
<!-- Generator: Adobe Illustrator 21.0.2, SVG Export Plug-In . SVG Version: 6.00 Build 0)  -->
<svg version="1.1" id="Layer_1" xmlns="http://www.w3.org/2000/svg" xmlns:xlink="http://www.w3.org/1999/xlink" x="0px" y="0px"
	 viewBox="0 0 254 100" style="enable-background:new 0 0 254 100;" xml:space="preserve">
<style type="text/css">
	.st0{fill:#333333;}
</style>
<g>
	<path class="st0" d="M31.2,6.1c4.7,4.1,9.6,11,14.9,20.7l-3.4,3.5c-4.4-7.4-8.4-12.8-12.2-16.2C26.8,10.7,23.2,9,19.6,9
		c-1.5,0-2.7,0.4-3.4,1.2s-1.1,2-1.1,3.4c0,1.6,0.5,3.5,1.4,5.7c0.9,2.2,2.3,4.4,4,6.5h4.2v72.4h-3.5l-10.3-9.1l2.8-3.3V35H7.5
		l-6.4-5.6v-3.5h12.4c-3.2-2.9-5.6-5.8-7.2-8.5C4.8,14.6,4,12,4,9.6c0-2.9,1.1-5.2,3.2-7c2.1-1.8,5-2.6,8.6-2.6
		C21.4,0,26.5,2,31.2,6.1z"/>
	<path class="st0" d="M94.5,35v63.3H91l-10.3-9.1l2.8-3.3V35H64.6v28.5c0,1.9-0.6,4-1.9,6c-1.2,2.1-2.7,3.9-4.5,5.3
		c-1.8,1.4-3.4,2.1-4.9,2.1c-1.9,0-4.2-0.9-6.8-2.7c-2.6-1.8-4.8-4-6.7-6.5C37.9,65.2,37,62.9,37,61c0-1.2,0.8-2.2,2.3-3.1
		c1.5-0.8,3.7-1.3,6.5-1.3c2.2,0,4.8,0.4,7.9,1.1V35H27.5L21,29.4v-3.5h81.6l6.4,5.6V35H94.5z"/>
	<path class="st0" d="M130.4,35.1c4.4,7.4,6.6,15.1,6.6,23c0,3.2-0.5,6-1.6,8.7c-1.1,2.6-2.5,4.8-4.2,6.5c-1.7,1.7-3.5,2.9-5.3,3.5
		l22.5,19.8l-3,3.4l-30.5-26.9c-2.2-1.8-4-3.7-5.6-6c-1.5-2.2-2.3-4.1-2.3-5.6c0-1.6,0.6-2.8,1.9-3.6c1.2-0.8,3-1.2,5.3-1.2
		c2.8,0,6.1,0.5,9.9,1.6c0.4-1.9,0.5-4,0.5-6.1c0-3.1-0.3-6.2-1-9.3c-0.7-3.1-1.6-5.8-2.8-8H98.1l-6.9-5.6v-3.5h51.5l6.9,5.6
		l0.1,3.5H130.4z"/>
	<path class="st0" d="M164.7,35v63.3h-3.5L151,89.2l2.8-3.3V35h-6.2l-6.4-5.6v-3.5h12.5C150,20,146.4,15.7,143.1,13
		c-3.3-2.7-6.6-4-9.7-4c-1.5,0-2.6,0.4-3.4,1.2s-1.1,1.9-1.1,3.3c0,2.2,0.8,4.9,2.5,8c1.6,3.1,3.8,5.9,6.5,8.5h-5.5
		c-4.9-3.6-8.6-7.1-11-10.6c-2.4-3.5-3.6-6.8-3.6-9.7c0-2.9,1.1-5.2,3.2-7c2.2-1.8,5-2.6,8.6-2.6c5.5,0,10.5,2,15.1,6
		c4.6,4,9.5,10.6,14.7,20H173l6.4,5.6l-0.1,3.5H164.7z"/>
	<path class="st0" d="M211.3,61c-0.6,2.8-1.5,5.4-2.5,7.7l12.8,10.4l-3,3.4l-12.2-9.8c-2.2,2.9-4.7,4.4-7.5,4.4
		c-2.2,0-4.6-0.9-7.2-2.7c-2.6-1.8-4.8-3.9-6.7-6.5c-1.8-2.5-2.8-4.7-2.8-6.6c0-1.5,0.6-2.6,1.9-3.5c1.2-0.8,3-1.3,5.4-1.3
		c2.9,0,6.2,0.6,9.8,1.7c1.2-2.4,1.8-5.2,1.8-8.6c-3-0.1-6-0.9-9-2.4c-3.1-1.5-5.6-3.4-7.5-5.7c-2-2.4-3-4.9-3-7.6c0-2.8,1-5.1,3-7
		c2-1.9,4.6-2.8,8-2.8c3.5,0,6.7,1.1,9.6,3.3c3,2.2,5.4,5.4,7.2,9.7c1.8,4.2,2.7,9.3,2.7,15.1l0.1,0.1
		C212.2,55.2,211.9,58.2,211.3,61z M194.3,41.4c0.5,0.7,1.2,1,2.1,1c1.8,0,3.3-0.6,4.7-1.9c-0.2-3.3-0.6-5.6-1.1-7
		c-0.5-1.4-1.1-2.1-1.9-2.1c-1.4,0-2.5,0.7-3.3,2c-0.8,1.3-1.2,3-1.2,5C193.5,39.7,193.8,40.7,194.3,41.4z M240.3,35.1v63.3h-3.5
		l-10.3-9.1l2.8-3.3V35.1h-6.2l-6.4-5.6V26h31.6l6.4,5.6v3.5H240.3z"/>
</g>
</svg>
