<svg id="Layer_1" data-name="Layer 1" xmlns="http://www.w3.org/2000/svg" viewBox="0 0 384.1 100"><defs><style>.cls-1{fill:#666;}</style></defs><title>Untitled-1</title><path class="cls-1" d="M471.55,403.2H415.13v44.57H402.86V349h12.27v42.74h56.42V349h12.27v98.74H471.55Z" transform="translate(-402.86 -349.04)"/><path class="cls-1" d="M511.53,386.77q10.22-10.23,25.88-10.23,15.94,0,26.09,10.15t10.15,26.38q0,15.79-10.23,25.88t-26,10.08q-15.66,0-25.88-10.08t-10.23-25.88Q501.31,397,511.53,386.77Zm43.65,7.62a25.2,25.2,0,0,0-35.33-.07q-7,7.19-7,18.76,0,11,6.91,18.05t17.63,7q10.72,0,17.7-7t7.12-18.05Q562.24,401.65,555.19,394.39Z" transform="translate(-402.86 -349.04)"/><path class="cls-1" d="M590.44,378.24h10.72l.71,10.15a19.12,19.12,0,0,1,8.53-8.6A26.29,26.29,0,0,1,622.46,377a28,28,0,0,1,14.25,3.67,20.83,20.83,0,0,1,9.16,11.56A25.74,25.74,0,0,1,656,380.78,27.87,27.87,0,0,1,670.42,377q13.68,0,21.51,8.32T699.76,408v39.78H688.19V408q0-8.75-4.87-14.46t-13.19-5.71a17.67,17.67,0,0,0-13.75,5.85,21,21,0,0,0-5.29,14.6v39.5H639.53v-39.5a21.3,21.3,0,0,0-5.15-14.6,17.24,17.24,0,0,0-13.61-5.85,17.46,17.46,0,0,0-13.68,5.85,21.13,21.13,0,0,0-5.22,14.6v39.5H590.3V378.1Z" transform="translate(-402.86 -349.04)"/><path class="cls-1" d="M782.4,436.63a32,32,0,0,1-13.26,9.24A46.09,46.09,0,0,1,752.36,449q-16.36,0-26.52-9.94t-10.15-26.44q0-15.8,10.15-26t26-10.15q16.92,0,26.87,10.51t8,30.4H727.4a21.6,21.6,0,0,0,8,15.17,26.49,26.49,0,0,0,17.21,5.71A35.62,35.62,0,0,0,765.12,436a22.25,22.25,0,0,0,9.66-6.42l7.76,7.05Zm-6.77-28.77q-.42-10-6.77-15.45T752.07,387a25.46,25.46,0,0,0-16.36,5.5q-6.92,5.5-8.32,15.23h48.24Z" transform="translate(-402.86 -349.04)"/></svg>