<svg id="Layer_1" data-name="Layer 1" xmlns="http://www.w3.org/2000/svg" viewBox="0 0 343.15 100"><title>Untitled-1</title><path d="M290,363.89a8.86,8.86,0,0,1,.06-1.09,1.71,1.71,0,0,1,.55-1q1.45-1.82,3.27-3.82t3.52-4a45.28,45.28,0,0,0,3.15-4.18,29.43,29.43,0,0,0,2.42-4.36v-.73L287.09,348h-1.82q-1.7,0-4.18-.24a22.06,22.06,0,0,1-4.85-1,11.32,11.32,0,0,1-4-2.24,4.93,4.93,0,0,1-1.64-3.88q.12-2.79,2.91-6.18a56.22,56.22,0,0,1,6.55-6.67q3.76-3.27,7.58-6.06t6.12-4.36a24.62,24.62,0,0,1,6.06-2.36,25.84,25.84,0,0,1,6.42-.91,9.37,9.37,0,0,1,4.24.91q1.82.91,1.82,3.58a11.17,11.17,0,0,1-.18,2.06q-.18,1-1.52,1.33a20.52,20.52,0,0,0-7.27.55,25,25,0,0,0-6.42,2.73,34,34,0,0,0-5.7,4.3q-2.67,2.48-5.21,5.15-.73.85-1.82,2.36a7.07,7.07,0,0,0-1.09,1.76v.12a32.37,32.37,0,0,0,6.24-.61q3.09-.61,6.18-1.27t6.18-1.27a33,33,0,0,1,6.36-.61,21.63,21.63,0,0,1,2.67.18,8.85,8.85,0,0,1,2.73.79,5.54,5.54,0,0,1,2.06,1.64,4.17,4.17,0,0,1,.79,2.61,9.15,9.15,0,0,1-1.15,4.42,42.39,42.39,0,0,1-3.39,5.09q-2.24,3-5.7,7.21T297.88,368a1.61,1.61,0,0,1-1.15.48,11.84,11.84,0,0,1-1.52.12,5.46,5.46,0,0,1-3.45-1.45A4.21,4.21,0,0,1,290,363.89Z" transform="translate(-270.6 -273.35)"/><path d="M345.64,357q-.85,1.82-1.7,3.94a22.49,22.49,0,0,1-1.94,3.82,10.57,10.57,0,0,1-2.67,2.85,6.6,6.6,0,0,1-4,1.15,11.28,11.28,0,0,1-7-2.12,16.64,16.64,0,0,1-4.55-5.33,23.87,23.87,0,0,1-2.48-7,37.11,37.11,0,0,1-.73-7l1-29.33a2.65,2.65,0,0,1,.42-1.76,7.07,7.07,0,0,1,1.45-1.7,7.66,7.66,0,0,1,2.06-1.27,5.51,5.51,0,0,1,2.12-.48,6.79,6.79,0,0,1,4.73,1.76,5.85,5.85,0,0,1,1.94,4.55v1.21a22.49,22.49,0,0,0-2.3,5.7,57.08,57.08,0,0,0-1.52,7.58,79.36,79.36,0,0,0-.67,8.3,52.52,52.52,0,0,0,.3,7.76,24.79,24.79,0,0,0,1.39,6q1,2.48,2.55,3a5.06,5.06,0,0,0,1.88-.61,8.86,8.86,0,0,0,2.73-2.3,24.75,24.75,0,0,0,3-4.79,37.49,37.49,0,0,0,2.79-8.18,84.68,84.68,0,0,0,1.82-12.36,166.64,166.64,0,0,0,.36-17.45q.48-1.33,1.39-1.45a14.21,14.21,0,0,1,1.88-.12q1.09,0,1.82.06a2.69,2.69,0,0,1,1.58.91,9.63,9.63,0,0,1,1.33,1.82,8.12,8.12,0,0,1,.73,1.33l2.06,53.7a4.7,4.7,0,0,1-1,3,3.36,3.36,0,0,1-2.79,1.21,10.52,10.52,0,0,1-1.45-.12,6.71,6.71,0,0,1-1.7-.48,6.29,6.29,0,0,1-1.52-.91,2.07,2.07,0,0,1-.79-1.27l-2.06-12.12Z" transform="translate(-270.6 -273.35)"/><path d="M376.67,351.17,363.33,318.8a.35.35,0,0,1-.12-.24v-.48a2.81,2.81,0,0,1,.67-1.88,6.94,6.94,0,0,1,1.64-1.39q.24,0,1-.06t1-.06a5.91,5.91,0,0,1,3.33.73l2.73,1.94a31.72,31.72,0,0,0,1.27,3.76q.79,1.94,1.94,4.91t3,7.45l4.61,11.39.61.61a7.37,7.37,0,0,0,.67-1.58q.3-1,1.09-3.39t2.24-7q1.45-4.61,4.12-12.48a10.27,10.27,0,0,0,1.33-3.64q.36-2.06.85-3.88a7.64,7.64,0,0,1,1.52-3,4,4,0,0,1,3.21-1.21,6.16,6.16,0,0,1,4,1.64,5,5,0,0,1,1.94,3.94,4.82,4.82,0,0,1-.73,2.36,13.75,13.75,0,0,1-1.45,2.12L388.91,368.5h-.73a12.32,12.32,0,0,1-5-1.21,1.44,1.44,0,0,1-.85-.85l-5.7-14.79Z" transform="translate(-270.6 -273.35)"/><path d="M411.45,350l4.48-31.15a3.12,3.12,0,0,1,1.39-2.3,4.78,4.78,0,0,1,2.61-.73,5.86,5.86,0,0,1,4.24,1.52,13.35,13.35,0,0,1,2.67,3.7H427a6,6,0,0,0,2.61-.55,6.63,6.63,0,0,1,2.85-.55,9.6,9.6,0,0,1,6.61,2.42,18.94,18.94,0,0,1,4.42,5.88,30,30,0,0,1,2.48,7.45,37,37,0,0,1,.79,7,21.28,21.28,0,0,1-1.88,8.12,37.61,37.61,0,0,1-5,8.48,31,31,0,0,1-7,6.67,13.78,13.78,0,0,1-7.88,2.67,11.19,11.19,0,0,1-6.24-1.7,13.91,13.91,0,0,1-4.24-4.3,18.51,18.51,0,0,1-2.36-5.88,29.56,29.56,0,0,1-.73-6.42Zm10.18.73q.24,1.21.48,2.79a14,14,0,0,0,.73,2.85,4.16,4.16,0,0,0,1.39,1.94,2.74,2.74,0,0,0,2.61.06q1.58-1.45,3.39-3.27a45.45,45.45,0,0,0,3.45-3.88,22.47,22.47,0,0,0,2.73-4.36,11.19,11.19,0,0,0,1.09-4.85,18,18,0,0,0-.61-7.58,9.67,9.67,0,0,0-3.09-5,4.18,4.18,0,0,0-4.55-.36q-2.55,1.15-5.09,6.24a25.24,25.24,0,0,0-2,7.33,59.84,59.84,0,0,0-.55,7.7Z" transform="translate(-270.6 -273.35)"/><path d="M464.42,363.65a6.43,6.43,0,0,1,.06-.73,1.17,1.17,0,0,1,.18-.61L482,329.47q.36-.85.91-2.36t1-3q.48-1.52.85-2.73a8.45,8.45,0,0,0,.36-1.45v-1.33a23.79,23.79,0,0,0-8.73,1.88q-4.73,1.88-9.33,3.21a19.34,19.34,0,0,1-8.61.67q-4-.67-6.55-5.76a2.69,2.69,0,0,1,1.7-2.36,6.31,6.31,0,0,1,2.79-.91,13.56,13.56,0,0,1,1.52.24,13.56,13.56,0,0,0,1.52.24,36.27,36.27,0,0,0,7-1.45l7-2.18q3.45-1.09,6.91-1.88a23.21,23.21,0,0,1,6.85-.55q1.45,0,3.21.06a13.89,13.89,0,0,1,3.27.48,5.85,5.85,0,0,1,2.61,1.52,4.1,4.1,0,0,1,1.09,3,12.21,12.21,0,0,1-.55,3.52,10.38,10.38,0,0,1-1.52,3.15L481,354.68v1.09l8.73-4.12h.48l39.52-12.36h1.94a16.09,16.09,0,0,1,2.24.18,10.66,10.66,0,0,1,2.36.61,4.5,4.5,0,0,1,1.82,1.27,3.23,3.23,0,0,1,.73,2.18q.24,1.58-1.94,2.79a30.62,30.62,0,0,1-6.18,2.36q-4,1.15-9.52,2.42t-11.94,3.15q-6.42,1.88-13.52,4.55a114.26,114.26,0,0,0-14.24,6.55,4.11,4.11,0,0,0-1.82.36q-1.45.48-3.21,1.15t-3.39,1.21a8.65,8.65,0,0,1-2.36.55,7.73,7.73,0,0,1-4.12-1.39A4.13,4.13,0,0,1,464.42,363.65Z" transform="translate(-270.6 -273.35)"/><path d="M542.12,275.53q0-.85,1.39-1.52a5.53,5.53,0,0,1,2.12-.67,9.86,9.86,0,0,1,4.06,1,3.31,3.31,0,0,1,2.24,3.09,5,5,0,0,1-.55,2.79q-.55.73-2.61.73a8.1,8.1,0,0,1-4.42-1.45A4.53,4.53,0,0,1,542.12,275.53Zm6.79,88.36q-1.21-12.12-2.06-20.73t-1.45-14.42q-.61-5.82-1-9.27t-.67-5.21q-.24-1.76-.36-2.36a6,6,0,0,1-.12-.73v-.48a2.76,2.76,0,0,1,1.15-2.24,3.78,3.78,0,0,1,2.36-.91,14.4,14.4,0,0,1,3.94.61,4,4,0,0,1,2.85,2.55,108.2,108.2,0,0,1,1.52,12q.42,6.06.73,12.06t.85,12.06a80.84,80.84,0,0,0,2,12,5.1,5.1,0,0,0,.18,1q.18.73.36,1.58t.3,1.58a7.44,7.44,0,0,1,.12,1v.24a.35.35,0,0,0,.12.24,4.35,4.35,0,0,1-1.33,2.91,3.06,3.06,0,0,1-2.79,1.21q-.36-.12-1.76-.42a9.32,9.32,0,0,1-1.88-.55,4.17,4.17,0,0,1-1-.55,12.65,12.65,0,0,1-1.15-.91,4.67,4.67,0,0,1-.91-1.09A.91.91,0,0,1,548.91,363.89Z" transform="translate(-270.6 -273.35)"/><path d="M575.82,333.11a5.52,5.52,0,0,0-3,.85,5.74,5.74,0,0,1-3.15.85l-1.27-.06-1.27-.06a4.1,4.1,0,0,0-1.09-1q-.61-.36-1.21-.79a4.16,4.16,0,0,1-1-1,2.93,2.93,0,0,1-.42-1.7,3.62,3.62,0,0,1,1.45-3,15.34,15.34,0,0,1,3.39-2q1.94-.85,3.94-1.58a11.33,11.33,0,0,0,3.21-1.7v-5.33q0-9-.85-18t-.85-17.88q0-2.42,1.21-3.15a6.34,6.34,0,0,1,3.27-.73,4.37,4.37,0,0,1,3.58,1.39,8.32,8.32,0,0,1,1.64,3.39,18,18,0,0,1,.48,4.24q0,2.24.12,3.82t.24,5.58q.24,4,.48,8.48t.48,8.48q.24,4,.36,5.58a19.45,19.45,0,0,0,1.88-.67q1.39-.55,3-1.09l3-1q1.39-.48,2-.73,3.15-1.33,6.55-3a15.75,15.75,0,0,1,6.91-1.64,4.4,4.4,0,0,1,3.7,1.64,6,6,0,0,1,1.27,3.82,2.49,2.49,0,0,1-1.21,2.3A25.25,25.25,0,0,1,610,318.8L587.94,327a6.78,6.78,0,0,1-.73.42,2.85,2.85,0,0,0-.73.55v3.88q0,4.24.18,8.79a86.61,86.61,0,0,0,.79,8.79q.61,3.64,1.33,7.15a35.2,35.2,0,0,1,.73,7.15,8.38,8.38,0,0,1-.73,2.91,2.44,2.44,0,0,1-2.3,1.82,7.47,7.47,0,0,1-5.33-1.94,7.64,7.64,0,0,1-2.3-5.21q-.61-6.3-1.27-13.82t-1.27-14.42Z" transform="translate(-270.6 -273.35)"/></svg>