<svg id="Layer_1" data-name="Layer 1" xmlns="http://www.w3.org/2000/svg" viewBox="0 0 90.03 100"><defs><style>.cls-1{fill:#fff;}.cls-2{fill:#4d4d4d;}</style></defs><title>Untitled-1</title><path class="cls-1" d="M588.47,448.23c4.82-4.56,8.15-12.32,11.06-22.14,2.91,9.82,6.23,17.58,11.06,22.14ZM622,433.75c-8.75,0-13.93-3.35-19.11-12.28l-1.36-2.34-2-3.39-2,3.39-1.36,2.34c-5.18,8.94-10.36,12.27-19.11,12.28h0c-11.16,0-20.26-8.55-20.27-19.06a35.7,35.7,0,0,1,3.65-15.08A78.38,78.38,0,0,1,570.35,384c8-10.08,18.66-20.38,29.18-30.38,10.53,10,21.24,20.32,29.18,30.39a78.4,78.4,0,0,1,9.91,15.59,35.71,35.71,0,0,1,3.65,15.08c0,10.51-9.11,19.06-20.28,19.06Z" transform="translate(-554.51 -350.5)"/><path class="cls-2" d="M599.53,356.76c10,9.48,19.94,19.21,27.4,28.66a76.2,76.2,0,0,1,9.63,15.13A33.5,33.5,0,0,1,640,414.68c0,9.26-8.09,16.8-18,16.8h0c-4.15,0-7.31-.83-9.94-2.6s-4.81-4.41-7.21-8.55l-.88-1.51-4.41-7.6-4.41,7.6-.88,1.51c-2.41,4.15-4.7,6.87-7.22,8.56s-5.79,2.59-9.93,2.6h0c-9.91,0-18-7.53-18-16.8a33.49,33.49,0,0,1,3.44-14.13,76.18,76.18,0,0,1,9.64-15.13c7.46-9.46,17.45-19.18,27.4-28.66m0,76.65A52.23,52.23,0,0,0,605.68,446h-12.3a52.26,52.26,0,0,0,6.15-12.55m0-82.91c-22.52,21.41-45,42.82-45,64.19,0,11.78,10.11,21.33,22.54,21.33h0c10.3,0,15.89-4.49,21.07-13.42-5.18,18.56-10.77,27.86-21.07,27.9H622c-10.31,0-15.89-9.33-21.07-27.9C606.06,431.53,611.65,436,622,436h0c12.43,0,22.53-9.55,22.55-21.33,0-21.37-22.49-42.78-45-64.19Z" transform="translate(-554.51 -350.5)"/><path class="cls-2" d="M599.53,361.16c9.72,9.31,18.29,17.85,24.91,26.23a73.12,73.12,0,0,1,9.24,14.49,30.42,30.42,0,0,1,3.15,12.8c0,7.51-6.66,13.62-14.83,13.62h0c-3.44,0-5.89-.6-8-1.93s-4.25-3.84-6.45-7.64l-1.36-2.34-2-3.39-4.71-8.13L594.82,413l-2,3.39-1.36,2.34c-2.2,3.8-4.25,6.22-6.45,7.64s-4.52,1.93-8,1.93h0c-8.17,0-14.82-6.11-14.83-13.62a30.41,30.41,0,0,1,3.15-12.8,73.1,73.1,0,0,1,9.24-14.49c6.62-8.39,15.19-16.93,24.91-26.23" transform="translate(-554.51 -350.5)"/></svg>