<svg id="Layer_1" data-name="Layer 1" xmlns="http://www.w3.org/2000/svg" viewBox="0 0 300 150"><defs><style>.cls-1{fill:#fff;}</style></defs><title>facebook-white</title><path class="cls-1" d="M157.29,74.49a11.41,11.41,0,0,0-5.06,1.37V91.46a33.06,33.06,0,0,0,3.64.14c5,0,5.63-2.27,5.63-5.44V78.71c0-2.34-.78-4.22-4.22-4.22Zm-32.91-.85c-3.44,0-4.22,1.89-4.22,4.22v1.31h8.44V77.86C128.61,75.52,127.82,73.64,124.39,73.64ZM60.64,89.88c0,1.85.87,2.81,2.8,2.81a10.26,10.26,0,0,0,4.8-1.36v-3.7H63.72C61.58,87.62,60.64,88,60.64,89.88ZM189.3,74.49c-3.44,0-4.64,1.88-4.64,4.22v8.54c0,2.35,1.19,4.23,4.64,4.23s4.64-1.88,4.64-4.23V78.71C193.94,76.37,192.74,74.49,189.3,74.49Zm-145.53,25H33.65V75H28.59V66.51h5.06V61.44c0-6.89,2.85-11,11-11h6.76V58.9H47.15c-3.16,0-3.37,1.18-3.37,3.38v4.23h7.65L50.52,75H43.77v24.5Zm34.59.06H69.93l-.36-2.13A19.33,19.33,0,0,1,60,99.86c-6.19,0-9.48-4.13-9.48-9.85,0-6.74,3.84-9.15,10.72-9.15h7V79.4c0-3.44-.39-4.45-5.69-4.45H53.9l.85-8.44H64.2c11.62,0,14.16,3.67,14.16,13v20Zm28.69-23.95c-5.25-.9-6.76-1.1-9.28-1.1-4.54,0-5.91,1-5.91,4.85v7.29c0,3.85,1.37,4.86,5.91,4.86,2.53,0,4-.2,9.28-1.11V98.6a44.79,44.79,0,0,1-10.13,1.3c-10.87,0-15.19-5.72-15.19-14V80c0-8.26,4.32-14,15.19-14a44.52,44.52,0,0,1,10.13,1.31v8.23Zm31.68,10.36H120.17v.68c0,3.85,1.37,4.86,5.91,4.86a59,59,0,0,0,11.81-1.11v8.24a53.28,53.28,0,0,1-12.65,1.3c-10.87,0-15.19-5.71-15.19-14V79.17C110,71.95,113.25,66,124.39,66s14.34,5.85,14.34,13.14v6.76Zm32.9.16c0,8-2.28,13.8-16.1,13.8a76.39,76.39,0,0,1-13.42-1.29V53l10.12-1.69v16A23,23,0,0,1,159.83,66c10.12,0,11.81,4.54,11.81,11.83v8.23Zm32.44.17c0,6.88-2.84,13.56-14.73,13.56s-14.79-6.68-14.79-13.56V79.62c0-6.89,2.9-13.57,14.79-13.57s14.73,6.68,14.73,13.57Zm32.42,0c0,6.88-2.85,13.56-14.73,13.56S207,93.15,207,86.27V79.62c0-6.89,2.9-13.57,14.79-13.57s14.73,6.68,14.73,13.57Zm33.26,13.19h-11L249.5,84V99.45H239.38V53L249.5,51.3V81.21l9.28-14.7h11l-10.13,16Zm-48-25c-3.44,0-4.63,1.88-4.63,4.22v8.54c0,2.35,1.19,4.23,4.63,4.23s4.65-1.88,4.65-4.23V78.71c0-2.34-1.22-4.22-4.65-4.22Zm53.81,19.19a3.13,3.13,0,1,1-3.1,3.12,3.08,3.08,0,0,1,3.1-3.12Zm0,.49a2.65,2.65,0,0,0,0,5.29,2.65,2.65,0,0,0,0-5.29Zm-.58,4.46h-.56V95.13a6.34,6.34,0,0,1,1-.08,1.84,1.84,0,0,1,1.08.26.84.84,0,0,1,.32.72.87.87,0,0,1-.68.85v0c.3.06.51.33.58.84a2.82,2.82,0,0,0,.22.86h-.58a2.64,2.64,0,0,1-.24-.89.65.65,0,0,0-.75-.61h-.39v1.5Zm0-1.93h.4c.46,0,.85-.17.85-.6s-.22-.61-.85-.61a3,3,0,0,0-.4,0v1.18Z"/></svg>