<?xml version="1.0" encoding="utf-8"?>
<!-- Generator: Adobe Illustrator 16.0.0, SVG Export Plug-In . SVG Version: 6.00 Build 0)  -->
<!DOCTYPE svg PUBLIC "-//W3C//DTD SVG 1.1//EN" "http://www.w3.org/Graphics/SVG/1.1/DTD/svg11.dtd">
<svg version="1.1" id="Layer_1" xmlns="http://www.w3.org/2000/svg" xmlns:xlink="http://www.w3.org/1999/xlink" x="0px" y="0px"
	 width="300px" height="150px" viewBox="0 0 300 150" enable-background="new 0 0 300 150" xml:space="preserve">
<g>
	<path fill="#3B5998" d="M157.294,74.488c-2.063,0-3.553,0.677-5.06,1.367V91.46c1.444,0.137,2.273,0.137,3.644,0.137
		c4.955,0,5.634-2.269,5.634-5.437v-7.453C161.512,76.367,160.735,74.488,157.294,74.488L157.294,74.488z M124.389,73.637
		c-3.438,0-4.222,1.887-4.222,4.225v1.313h8.44v-1.313C128.606,75.524,127.822,73.637,124.389,73.637z M60.644,89.879
		c0,1.849,0.873,2.81,2.799,2.81c2.065,0,3.288-0.673,4.796-1.365v-3.701h-4.517C61.583,87.622,60.644,88.019,60.644,89.879z
		 M189.304,74.488c-3.443,0-4.637,1.879-4.637,4.219v8.539c0,2.346,1.193,4.229,4.637,4.229c3.434,0,4.636-1.884,4.636-4.229v-8.539
		C193.939,76.367,192.737,74.488,189.304,74.488z M43.769,99.453H33.646V74.952h-5.058V66.51h5.06v-5.071
		c0-6.888,2.854-10.983,10.968-10.983h6.755v8.444h-4.223c-3.158,0-3.367,1.18-3.367,3.382l-0.013,4.226h7.648l-0.895,8.442h-6.754
		V99.453L43.769,99.453z M78.363,99.517h-8.437l-0.364-2.134c-3.853,2.134-7.29,2.479-9.558,2.479c-6.188,0-9.48-4.133-9.48-9.849
		c0-6.744,3.843-9.151,10.717-9.151h6.997v-1.458c0-3.442-0.395-4.452-5.688-4.452h-8.655l0.846-8.442h9.46
		c11.616,0,14.162,3.669,14.162,12.962V99.517L78.363,99.517z M107.051,75.571c-5.25-0.9-6.757-1.098-9.284-1.098
		c-4.537,0-5.908,1.001-5.908,4.854v7.289c0,3.853,1.371,4.858,5.908,4.858c2.526,0,4.034-0.201,9.284-1.105v8.236
		c-4.598,1.03-7.594,1.301-10.126,1.301c-10.867,0-15.187-5.715-15.187-13.971v-5.914c0-8.263,4.319-13.988,15.187-13.988
		c2.532,0,5.528,0.271,10.126,1.307V75.571L107.051,75.571z M138.728,85.936h-18.562v0.681c0,3.853,1.373,4.858,5.908,4.858
		c4.078,0,6.566-0.201,11.807-1.105v8.236c-5.055,1.03-7.688,1.301-12.646,1.301c-10.868,0-15.19-5.715-15.19-13.971v-6.762
		c0-7.224,3.207-13.14,14.343-13.14c11.138,0,14.341,5.848,14.341,13.14V85.936z M171.632,86.092c0,7.979-2.28,13.8-16.097,13.8
		c-4.989,0-7.915-0.438-13.421-1.285V52.993l10.118-1.688V67.26c2.188-0.812,5.019-1.225,7.594-1.225
		c10.12,0,11.806,4.537,11.806,11.827L171.632,86.092L171.632,86.092z M204.068,86.266c0,6.884-2.841,13.56-14.731,13.56
		c-11.896,0-14.791-6.676-14.791-13.56v-6.646c0-6.888,2.896-13.565,14.791-13.565c11.891,0,14.731,6.677,14.731,13.565V86.266z
		 M236.484,86.266c0,6.884-2.845,13.56-14.733,13.56c-11.896,0-14.791-6.676-14.791-13.56v-6.646
		c0-6.888,2.895-13.565,14.791-13.565c11.889,0,14.733,6.677,14.733,13.565V86.266z M269.749,99.453h-10.967l-9.277-15.486v15.486
		h-10.122V52.992l10.122-1.688v29.91l9.277-14.704h10.967l-10.127,16.045L269.749,99.453z M221.716,74.488
		c-3.438,0-4.63,1.879-4.63,4.219v8.539c0,2.346,1.192,4.229,4.63,4.229c3.433,0,4.648-1.884,4.648-4.229v-8.539
		C226.364,76.367,225.148,74.488,221.716,74.488L221.716,74.488z M275.527,93.675c1.704,0,3.062,1.39,3.062,3.124
		c0,1.763-1.358,3.138-3.074,3.138c-1.708,0-3.093-1.375-3.093-3.138c0-1.734,1.385-3.124,3.093-3.124H275.527z M275.515,94.16
		c-1.373,0-2.497,1.182-2.497,2.639c0,1.485,1.125,2.651,2.51,2.651c1.387,0.015,2.494-1.166,2.494-2.637
		c0-1.47-1.107-2.653-2.494-2.653H275.515z M274.933,98.618h-0.556v-3.486c0.292-0.041,0.57-0.082,0.986-0.082
		c0.527,0,0.872,0.11,1.084,0.264c0.204,0.153,0.315,0.388,0.315,0.72c0,0.461-0.305,0.737-0.678,0.851v0.026
		c0.305,0.057,0.512,0.332,0.582,0.844c0.081,0.543,0.165,0.75,0.221,0.863h-0.583c-0.082-0.113-0.166-0.432-0.236-0.891
		c-0.08-0.442-0.305-0.61-0.75-0.61h-0.385L274.933,98.618L274.933,98.618z M274.933,96.688h0.402c0.456,0,0.845-0.168,0.845-0.6
		c0-0.306-0.221-0.609-0.845-0.609c-0.182,0-0.308,0.014-0.402,0.026V96.688L274.933,96.688z"/>
</g>
</svg>
