<svg id="Layer_1" data-name="Layer 1" xmlns="http://www.w3.org/2000/svg" viewBox="0 0 300 150"><defs><style>.cls-1{fill:#fff;}</style></defs><title>flickr-white</title><path class="cls-1" d="M35,73H25V60.72H35.29V57.59c0-15.16,6.9-20.44,20.5-20.44a45,45,0,0,1,8.69,1l-1,12.13a15,15,0,0,0-5.38-.78c-4.34,0-6,3.13-6,8.12v3.13H64.1V73H52v38.64H35V73ZM73,38.32H90v73.36H73Zm31.54,1.17h17V52.4h-17Zm0,21.23h17v51h-17Zm68.1,14.58a18.18,18.18,0,0,0-10.29-2.84c-7.37,0-13,5.28-13,14.09,0,8.12,6.61,13.4,14,13.4a22.63,22.63,0,0,0,10.58-2.44l.38,13.11a44.38,44.38,0,0,1-13.88,2.25c-16.25,0-28.62-9.78-28.62-26.61s12.37-26.71,28.62-26.71a29.64,29.64,0,0,1,13.51,2.84l-1.23,12.91Zm8.69-37h17V82.14h.19l14.17-21.42h18.6L214.18,84.1l18.51,27.58H212.1L198.5,86.45h-.19v25.24h-17V38.32Z"/><path class="cls-1" d="M274.15,74.8a19,19,0,0,0-5.76-.59c-7.93,0-12.37,6-12.37,15.94v21.52H239v-51H254.5v9.39h.19c2.93-6.46,7.18-10.56,14.55-10.56a35,35,0,0,1,5.76.59l-.85,14.67Z"/></svg>