<?xml version="1.0" encoding="utf-8"?>
<!-- Generator: Adobe Illustrator 16.0.0, SVG Export Plug-In . SVG Version: 6.00 Build 0)  -->
<!DOCTYPE svg PUBLIC "-//W3C//DTD SVG 1.1//EN" "http://www.w3.org/Graphics/SVG/1.1/DTD/svg11.dtd">
<svg version="1.1" id="Layer_1" xmlns="http://www.w3.org/2000/svg" xmlns:xlink="http://www.w3.org/1999/xlink" x="0px" y="0px"
	 width="300px" height="150px" viewBox="0 0 300 150" enable-background="new 0 0 300 150" xml:space="preserve">
<path fill="#0063DB" d="M35.012,73.044H25V60.718h10.295v-3.129c0-15.162,6.895-20.445,20.495-20.445
	c3.684,0,6.517,0.587,8.689,0.979l-1.038,12.13c-1.416-0.49-2.833-0.783-5.383-0.783c-4.344,0-6.044,3.13-6.044,8.12v3.13h12.088
	v12.326H52.013v38.639H35.011L35.012,73.044L35.012,73.044z M72.979,38.317h17v73.365h-17V38.317z M104.523,39.491h17v12.912h-17
	V39.491z M104.523,60.718h17v50.965h-17V60.718z M172.619,75.293c-3.117-1.956-6.233-2.836-10.295-2.836
	c-7.367,0-13.035,5.282-13.035,14.086c0,8.12,6.613,13.401,13.978,13.401c3.873,0,7.746-0.88,10.579-2.445l0.378,13.108
	c-4.251,1.469-9.351,2.25-13.884,2.25c-16.246,0-28.618-9.781-28.618-26.607c0-16.923,12.372-26.706,28.618-26.706
	c5.101,0,9.632,0.88,13.506,2.837L172.619,75.293L172.619,75.293z M181.31,38.317h17v43.824h0.188l14.167-21.424h18.605
	l-17.095,23.38l18.512,27.585h-20.59l-13.6-25.237h-0.188v25.237h-17V38.317z"/>
<path fill="#FF0084" d="M274.149,74.804c-1.89-0.586-3.779-0.586-5.762-0.586c-7.933,0-12.372,5.967-12.372,15.945v21.52h-17V60.717
	h15.488v9.392h0.189c2.927-6.456,7.178-10.564,14.545-10.564c1.981,0,4.06,0.293,5.762,0.586L274.149,74.804L274.149,74.804z"/>
</svg>
