<svg id="Layer_1" data-name="Layer 1" xmlns="http://www.w3.org/2000/svg" viewBox="0 0 300 150"><defs><style>.cls-1{fill:#0d389e;}</style></defs><title>foursquare.ai</title><path class="cls-1" d="M96.72,59.79h-6a.74.74,0,0,0-.74.74v15.3c0,2.48-1,3.82-3.29,3.82s-3.29-1.34-3.29-3.82V60.53a.7.7,0,0,0-.74-.74h-6a.74.74,0,0,0-.74.74V77.3c0,5.17,3.76,9.39,10.74,9.39s10.87-4.16,10.87-9.39V60.53a.76.76,0,0,0-.81-.74m43.34,10.73L135.7,69c-1.27-.47-1.41-1.14-1.41-1.61,0-.67.67-1.34,1.95-1.34A9,9,0,0,1,141.6,68a.63.63,0,0,0,.87-.07l3.35-4.23a.72.72,0,0,0-.07-.94,14.76,14.76,0,0,0-9.59-3.29c-6.24,0-10,3.89-10,8.12,0,3.29,1.95,6.37,6,7.71L136,76.63c1.88.67,2.21,1.14,2.21,1.94s-.74,1.54-2.28,1.54a10.85,10.85,0,0,1-6.31-2.68.63.63,0,0,0-.87.07l-3.42,4.56a.72.72,0,0,0,.07.94,16.41,16.41,0,0,0,10.87,3.76c5.84,0,10.13-3.42,10.13-8.52,0-3.55-2.21-6.3-6.37-7.71m-27.37.54H108.8V66.5h3.89c2.21,0,3,1,3,2.28s-.87,2.28-3,2.28m5.9,5.3a7.93,7.93,0,0,0,4.83-7.72c0-4.63-3.76-8.79-10.13-8.79H101.82a.73.73,0,0,0-.67.74v25a.67.67,0,0,0,.67.67H108a.67.67,0,0,0,.67-.67V77.5h2.42l4.36,8.12a1.25,1.25,0,0,0,1,.6h7.11c.4,0,.54-.27.34-.6l-5.3-9.26ZM43.78,59.79H25.87a.83.83,0,0,0-.87.81V85.42a.74.74,0,0,0,.74.74h6a.73.73,0,0,0,.67-.74V77.37H40.1a.8.8,0,0,0,.81-.67L42,71.2a.51.51,0,0,0-.54-.67h-9v-4H42.64a.8.8,0,0,0,.81-.67l1.07-5.17a.74.74,0,0,0-.74-.87M273.1,66.57a.8.8,0,0,0,.81-.67L275,60.73c.07-.47,0-.87-.67-.87h-18a.77.77,0,0,0-.8.81V85.49a.74.74,0,0,0,.74.74h16.44a.8.8,0,0,0,.81-.67l1.07-5.17c.07-.47,0-.87-.67-.87H262.9v-3h7.65a.8.8,0,0,0,.8-.67l1.14-5.5a.51.51,0,0,0-.54-.67H262.9v-3h10.2v-.07Zm-58.77,8.18h-2.41l2.41-8.05,2.42,8.05Zm5-14.36a.87.87,0,0,0-.8-.6h-8.25a.87.87,0,0,0-.81.6l-7.58,25.16a.47.47,0,0,0,.47.67h6.78a.94.94,0,0,0,.8-.67L211,81.73h6.78l1.14,3.82a.93.93,0,0,0,.81.67h6.71a.53.53,0,0,0,.47-.67Zm-19.52-.6h-6a.74.74,0,0,0-.74.74v15.3c0,2.48-1,3.82-3.29,3.82s-3.29-1.34-3.29-3.82V60.53a.7.7,0,0,0-.74-.74h-6a.74.74,0,0,0-.74.74V77.3c0,5.17,3.76,9.39,10.73,9.39s10.87-4.16,10.87-9.39V60.53a1,1,0,0,0-.87-.74M241,71.06h-3.89V66.5H241c2.15,0,3,1,3,2.28s-.87,2.28-3,2.28m5.9,5.3a7.92,7.92,0,0,0,4.83-7.72c0-4.63-3.76-8.79-10.13-8.79H230.16a.73.73,0,0,0-.67.74v25a.67.67,0,0,0,.67.67h6.17a.67.67,0,0,0,.67-.67V77.5h2.41l4.36,8.12a1.25,1.25,0,0,0,1,.6h7.11c.4,0,.54-.27.34-.6Zm-84.87,3.36c-3.42,0-5.77-3-5.77-6.71s2.35-6.71,5.77-6.71,5.77,3,5.77,6.71-2.35,6.71-5.77,6.71m13.69,3.22a7.38,7.38,0,0,1-4.23.34c.27-.27.54-.47.81-.74a14,14,0,0,0,2.82-14.22,13.75,13.75,0,0,0-11.87-8.79A13.68,13.68,0,0,0,151.4,82a14.27,14.27,0,0,0,12.81,4.56l.2.2a16.14,16.14,0,0,0,10.4,3.82l1.48-7.25c0-.27-.2-.54-.54-.4M59,79.72c-3.42,0-5.77-3-5.77-6.71S55.59,66.3,59,66.3s5.77,3,5.77,6.71S62.5,79.72,59,79.72m1.21-20.26A13.68,13.68,0,0,0,48.35,81.93c5.23,6.11,15.43,6.31,20.93.54a13.68,13.68,0,0,0-9.06-23"/></svg>