<?xml version="1.0" encoding="utf-8"?>
<!-- Generator: Adobe Illustrator 16.0.0, SVG Export Plug-In . SVG Version: 6.00 Build 0)  -->
<!DOCTYPE svg PUBLIC "-//W3C//DTD SVG 1.1//EN" "http://www.w3.org/Graphics/SVG/1.1/DTD/svg11.dtd">
<svg version="1.1" id="Layer_1" xmlns="http://www.w3.org/2000/svg" xmlns:xlink="http://www.w3.org/1999/xlink" x="0px" y="0px"
	 width="300px" height="150px" viewBox="0 0 300 150" enable-background="new 0 0 300 150" xml:space="preserve">
<path fill="#0D389E" d="M96.72,59.791h-5.971c-0.402,0-0.738,0.335-0.738,0.738v15.296c0,2.482-1.006,3.824-3.288,3.824
	c-2.281,0-3.288-1.342-3.288-3.824V60.529c0-0.403-0.268-0.738-0.738-0.738H76.66c-0.403,0-0.738,0.336-0.738,0.738v16.773
	c0,5.166,3.757,9.393,10.735,9.393c7.044,0,10.869-4.16,10.869-9.393V60.529C97.525,60.126,97.189,59.791,96.72,59.791
	 M140.06,70.525l-4.361-1.476c-1.275-0.47-1.409-1.141-1.409-1.61c0-0.671,0.671-1.342,1.945-1.342c1.409,0,3.422,0.403,5.368,1.878
	c0.268,0.202,0.67,0.202,0.872-0.067l3.354-4.227c0.201-0.269,0.201-0.671-0.067-0.939c-2.885-2.415-6.374-3.288-9.594-3.288
	c-6.239,0-9.997,3.892-9.997,8.118c0,3.288,1.946,6.374,6.038,7.715l3.824,1.342c1.878,0.671,2.214,1.14,2.214,1.945
	c0,0.738-0.738,1.543-2.281,1.543c-2.147,0-4.629-1.274-6.307-2.684c-0.268-0.201-0.671-0.201-0.872,0.067l-3.422,4.562
	c-0.201,0.269-0.201,0.671,0.067,0.939c2.482,2.146,6.172,3.757,10.869,3.757c5.837,0,10.131-3.421,10.131-8.521
	C146.434,74.685,144.22,71.934,140.06,70.525 M112.688,71.062h-3.892V66.5h3.892c2.214,0,3.019,1.006,3.019,2.281
	S114.834,71.062,112.688,71.062 M118.591,76.362c3.22-1.61,4.831-4.026,4.831-7.716c0-4.629-3.757-8.789-10.131-8.789h-11.473
	c-0.402,0-0.671,0.402-0.671,0.738v24.958c0,0.402,0.336,0.671,0.671,0.671h6.172c0.403,0,0.671-0.336,0.671-0.671v-8.051h2.416
	l4.361,8.117c0.201,0.336,0.604,0.604,1.006,0.604h7.111c0.403,0,0.537-0.269,0.336-0.604L118.591,76.362L118.591,76.362z
	 M43.785,59.791H25.872c-0.537,0-0.872,0.403-0.872,0.805v24.823c0,0.403,0.335,0.738,0.738,0.738h6.038
	c0.403,0,0.671-0.402,0.671-0.738v-8.051h7.648c0.403,0,0.738-0.269,0.805-0.671l1.141-5.501c0.067-0.335-0.067-0.671-0.537-0.671
	h-8.99V66.5h10.13c0.403,0,0.738-0.269,0.805-0.671l1.074-5.166C44.59,60.26,44.322,59.791,43.785,59.791 M273.101,66.567
	c0.402,0,0.738-0.269,0.806-0.671l1.073-5.166c0.067-0.47,0-0.872-0.671-0.872h-18.048c-0.536,0-0.805,0.402-0.805,0.805v24.824
	c0,0.402,0.335,0.738,0.738,0.738h16.437c0.402,0,0.738-0.269,0.806-0.671l1.073-5.166c0.067-0.47,0-0.872-0.671-0.872h-10.936
	v-3.02h7.648c0.402,0,0.737-0.269,0.805-0.671l1.141-5.501c0.067-0.335-0.067-0.671-0.537-0.671h-9.057v-3.019h10.197V66.567
	L273.101,66.567z M214.329,74.752h-2.415l2.415-8.051l2.416,8.051H214.329z M219.294,60.395c-0.067-0.335-0.47-0.604-0.805-0.604
	h-8.252c-0.336,0-0.738,0.269-0.806,0.604l-7.581,25.159c-0.134,0.335,0.067,0.671,0.47,0.671h6.776
	c0.335,0,0.737-0.336,0.805-0.671l1.073-3.824h6.776l1.141,3.824c0.067,0.335,0.47,0.671,0.806,0.671h6.709
	c0.335,0,0.536-0.336,0.47-0.671L219.294,60.395z M199.771,59.791H193.8c-0.402,0-0.738,0.335-0.738,0.738v15.296
	c0,2.482-1.006,3.824-3.287,3.824s-3.287-1.342-3.287-3.824V60.529c0-0.403-0.269-0.738-0.738-0.738h-5.972
	c-0.402,0-0.737,0.336-0.737,0.738v16.773c0,5.166,3.757,9.393,10.734,9.393c7.044,0,10.868-4.16,10.868-9.393V60.529
	C200.509,60.126,200.173,59.791,199.771,59.791 M241.031,71.062h-3.891V66.5h3.891c2.147,0,3.02,1.006,3.02,2.281
	S243.179,71.062,241.031,71.062 M246.936,76.362c3.22-1.61,4.83-4.026,4.83-7.716c0-4.629-3.757-8.789-10.13-8.789h-11.473
	c-0.403,0-0.671,0.402-0.671,0.738v24.958c0,0.402,0.335,0.671,0.671,0.671h6.172c0.402,0,0.671-0.336,0.671-0.671v-8.051h2.415
	l4.361,8.117c0.201,0.336,0.604,0.604,1.007,0.604h7.111c0.402,0,0.536-0.269,0.335-0.604L246.936,76.362z M162.065,79.717
	c-3.421,0-5.77-3.02-5.77-6.709s2.349-6.709,5.77-6.709c3.422,0,5.771,3.019,5.771,6.709
	C167.836,76.765,165.487,79.717,162.065,79.717 M175.752,82.937c-0.872,0.336-2.415,0.738-4.227,0.336
	c0.269-0.269,0.537-0.47,0.806-0.738c3.556-3.757,4.562-9.393,2.817-14.223c-1.812-4.964-6.575-8.386-11.875-8.789
	c-5.367-0.403-10.802,2.214-13.351,6.843c-2.684,4.897-2.214,11.338,1.476,15.632c3.153,3.689,8.186,5.232,12.814,4.562l0.201,0.201
	c2.616,2.416,6.776,3.824,10.399,3.824l1.476-7.246C176.289,83.071,176.088,82.803,175.752,82.937 M59.015,79.717
	c-3.421,0-5.77-3.02-5.77-6.709s2.348-6.709,5.77-6.709c3.422,0,5.77,3.019,5.77,6.709C64.852,76.765,62.503,79.717,59.015,79.717
	 M60.222,59.455c-5.367-0.402-10.801,2.214-13.351,6.843c-2.684,4.898-2.214,11.338,1.476,15.632
	c5.233,6.105,15.431,6.307,20.933,0.537c3.556-3.758,4.562-9.393,2.818-14.224C70.286,63.279,65.522,59.925,60.222,59.455"/>
</svg>
