<?xml version="1.0" encoding="utf-8"?>
<!-- Generator: Adobe Illustrator 16.0.0, SVG Export Plug-In . SVG Version: 6.00 Build 0)  -->
<!DOCTYPE svg PUBLIC "-//W3C//DTD SVG 1.1//EN" "http://www.w3.org/Graphics/SVG/1.1/DTD/svg11.dtd">
<svg version="1.1" id="Layer_1" xmlns="http://www.w3.org/2000/svg" xmlns:xlink="http://www.w3.org/1999/xlink" x="0px" y="0px"
	 width="300px" height="150px" viewBox="0 0 300 150" enable-background="new 0 0 300 150" xml:space="preserve">
<g>
	<path fill="#121110" d="M73.151,70.133H52.143c-0.542,0-0.981,0.44-0.982,0.982v10.271c0,0.543,0.439,0.982,0.982,0.983h8.195
		V95.13c0,0-1.84,0.628-6.928,0.628c-6.002,0-14.387-2.193-14.387-20.631c0-18.441,8.731-20.868,16.928-20.868
		c7.095,0,10.152,1.25,12.097,1.851c0.611,0.188,1.177-0.42,1.177-0.963l2.343-9.924c0-0.253-0.086-0.56-0.375-0.767
		c-0.79-0.563-5.609-3.26-17.783-3.26C39.386,41.196,25,47.163,25,75.846c0,28.685,16.471,32.959,30.35,32.959
		c11.492,0,18.464-4.911,18.464-4.911c0.287-0.159,0.318-0.561,0.318-0.745V71.114C74.132,70.573,73.693,70.133,73.151,70.133
		 M181.418,44.632c0.005-0.541-0.43-0.982-0.97-0.987c-0.002,0-0.003,0-0.005,0h-11.829c-0.543,0.002-0.982,0.444-0.979,0.987l0,0
		l0.003,22.86h-18.438v-22.86c0.004-0.541-0.431-0.983-0.972-0.987c-0.001,0-0.002,0-0.004,0h-11.828
		c-0.542,0.003-0.98,0.444-0.977,0.987v61.898c0,0.546,0.439,0.989,0.977,0.989h11.828c0.541,0,0.976-0.444,0.976-0.989V80.054
		h18.438l-0.032,26.477c0,0.546,0.438,0.989,0.979,0.989h11.857c0.542,0,0.975-0.444,0.976-0.989V44.632 M95.473,52.755
		c0-4.26-3.415-7.702-7.628-7.702c-4.209,0-7.626,3.442-7.626,7.702c0,4.254,3.417,7.706,7.626,7.706
		C92.058,60.461,95.473,57.01,95.473,52.755 M94.626,93.474V64.901c0.001-0.542-0.436-0.984-0.979-0.986H81.856
		c-0.541,0-1.025,0.558-1.025,1.101v40.935c0,1.203,0.75,1.561,1.72,1.561h10.624c1.166,0,1.451-0.572,1.451-1.579V93.474
		 M226.372,64.008h-11.737c-0.539,0-0.977,0.444-0.977,0.99v30.35c0,0-2.982,2.183-7.215,2.183s-5.355-1.921-5.355-6.064V64.998
		c0-0.546-0.438-0.99-0.976-0.99h-11.914c-0.537,0-0.979,0.444-0.979,0.99v28.471c0,12.31,6.861,15.321,16.3,15.321
		c7.742,0,13.984-4.277,13.984-4.277s0.297,2.254,0.432,2.521c0.135,0.267,0.485,0.535,0.863,0.535l7.579-0.033
		c0.538,0,0.979-0.444,0.979-0.987l-0.004-41.551C227.353,64.452,226.913,64.008,226.372,64.008 M253.825,97.492
		c-4.071-0.123-6.833-1.972-6.833-1.972V75.919c0,0,2.724-1.67,6.066-1.969c4.227-0.378,8.3,0.898,8.3,10.982
		C261.359,95.565,259.521,97.664,253.825,97.492z M258.455,62.618c-6.667,0-11.202,2.975-11.202,2.975v-20.96
		c0-0.546-0.437-0.987-0.976-0.987h-11.862c-0.543,0.002-0.98,0.444-0.978,0.987v0v61.897c0,0.546,0.438,0.989,0.979,0.989h8.23
		c0.37,0,0.65-0.19,0.857-0.525c0.205-0.332,0.5-2.854,0.5-2.854s4.851,4.597,14.033,4.597c10.779,0,16.962-5.468,16.962-24.547
		S265.127,62.618,258.455,62.618 M128.624,63.91h-8.873l-0.014-11.723c0-0.444-0.229-0.666-0.741-0.666h-12.092
		c-0.47,0-0.723,0.208-0.723,0.659v12.114c0,0-6.06,1.462-6.469,1.581c-0.419,0.122-0.708,0.506-0.708,0.943v7.612
		c0,0.548,0.438,0.988,0.979,0.988h6.199v18.312c0,13.603,9.541,14.938,15.979,14.938c2.942,0,6.46-0.944,7.042-1.159
		c0.352-0.13,0.556-0.493,0.556-0.888l0.01-8.374c0-0.547-0.461-0.987-0.98-0.987c-0.517,0-1.84,0.21-3.202,0.21
		c-4.358,0-5.835-2.026-5.835-4.649l-0.001-17.404h8.874c0.541,0,0.979-0.441,0.979-0.988v-9.535
		c0.002-0.542-0.435-0.983-0.976-0.985C128.625,63.91,128.624,63.91,128.624,63.91"/>
</g>
</svg>
