<svg id="Layer_1" data-name="Layer 1" xmlns="http://www.w3.org/2000/svg" viewBox="0 0 300 150"><defs><style>.cls-1{fill:#3780ff;}.cls-2{fill:#38b137;}.cls-3{fill:#fa3913;}.cls-4{fill:#fcbd06;}</style></defs><title>google.ai</title><path class="cls-1" d="M55.79,34.2H58A30.33,30.33,0,0,1,78.78,43c-2,2.06-4.07,4-6,6.08A22.69,22.69,0,0,0,34.65,62.72a23.35,23.35,0,0,0,5.08,18,22.45,22.45,0,0,0,16.36,8.05,21.77,21.77,0,0,0,16.28-5.58c3.36-2.89,4.91-7.3,5.41-11.58-7,0-13.93,0-20.89,0V63H86.2c1.51,9.27-.67,19.71-7.72,26.34a28.67,28.67,0,0,1-17.83,8A32.74,32.74,0,0,1,41.9,93.68a32.28,32.28,0,0,1-15-17.07,30.93,30.93,0,0,1-.21-20.93A31.94,31.94,0,0,1,38.25,40.36,33,33,0,0,1,55.79,34.2Z"/><path class="cls-2" d="M224,36.38h9v59.9c-3,0-6,0-9,0C224,76.31,224,56.35,224,36.38Z"/><path class="cls-3" d="M106.17,57.14a21.07,21.07,0,0,1,16.11,3.44,19.7,19.7,0,0,1,7.93,12.58,20.28,20.28,0,0,1-21.31,24.33,20.41,20.41,0,0,1-15.27-8.18,21,21,0,0,1-2.77-19,19.91,19.91,0,0,1,15.31-13.13m1.26,8a11.29,11.29,0,0,0-5.87,3.73,13.3,13.3,0,0,0,.67,17.32,11.17,11.17,0,0,0,10,3.1,11.3,11.3,0,0,0,7.8-5.75c2.77-5,2-11.87-2.26-15.77a11.32,11.32,0,0,0-10.32-2.64Z"/><path class="cls-4" d="M150.63,57.14a20.86,20.86,0,0,1,18,5c7.72,6.92,8.56,19.88,2,27.85a20.75,20.75,0,0,1-32.51-.67,21.17,21.17,0,0,1-2.64-19.46,19.92,19.92,0,0,1,15.18-12.71m1.26,8A11.48,11.48,0,0,0,146,68.8,13.32,13.32,0,0,0,146.48,86a11.22,11.22,0,0,0,10.24,3.31,11.51,11.51,0,0,0,7.8-5.75c2.73-5,1.93-11.91-2.35-15.81a11.25,11.25,0,0,0-10.28-2.6Z"/><path class="cls-1" d="M188.34,59.58c4.82-3,11.24-3.86,16.44-1.26a15.67,15.67,0,0,1,4.28,3.15c0-1.13,0-2.31,0-3.48,2.81,0,5.62,0,8.47,0V95c0,5.58-1.47,11.49-5.49,15.56-4.4,4.49-11.16,5.87-17.24,4.95a19.51,19.51,0,0,1-14.68-11.7c2.52-1.22,5.16-2.18,7.76-3.31,1.47,3.44,4.45,6.38,8.18,7s8.05-.25,10.49-3.36c2.6-3.19,2.6-7.55,2.48-11.45a14.89,14.89,0,0,1-6.84,4.19c-5.83,1.64-12.25-.38-16.74-4.32a20.65,20.65,0,0,1,2.85-33.05M197,64.94a11,11,0,0,0-6.59,3.82,13.38,13.38,0,0,0,0,16.82,11,11,0,0,0,9.44,3.86,10.66,10.66,0,0,0,8-5.33,14.15,14.15,0,0,0-1.43-15.86A10.32,10.32,0,0,0,197,64.94Z"/><path class="cls-3" d="M243.75,61.72A18.93,18.93,0,0,1,263,57.9C269.13,60.2,273,66,275,72L247.73,83.32a10.82,10.82,0,0,0,5.79,5.45,11.75,11.75,0,0,0,11.07-1.59,17.86,17.86,0,0,0,3.1-3.31c2.31,1.55,4.61,3.06,6.92,4.61a20.54,20.54,0,0,1-32.42,2.06c-7-8.05-6.29-21.56,1.55-28.82m4.49,7.76a12,12,0,0,0-2,7q9.12-3.78,18.25-7.59a7.55,7.55,0,0,0-5.92-4.15A10.72,10.72,0,0,0,248.24,69.47Z"/></svg>