<?xml version="1.0" encoding="utf-8"?>
<!-- Generator: Adobe Illustrator 16.0.0, SVG Export Plug-In . SVG Version: 6.00 Build 0)  -->
<!DOCTYPE svg PUBLIC "-//W3C//DTD SVG 1.1//EN" "http://www.w3.org/Graphics/SVG/1.1/DTD/svg11.dtd">
<svg version="1.1" id="Layer_1" xmlns="http://www.w3.org/2000/svg" xmlns:xlink="http://www.w3.org/1999/xlink" x="0px" y="0px"
	 width="300px" height="150px" viewBox="0 0 300 150" enable-background="new 0 0 300 150" xml:space="preserve">
<path fill="#3780FF" d="M55.79,34.198h2.223c7.718,0.168,15.31,3.272,20.763,8.768c-2.013,2.055-4.069,4.026-6.04,6.082
	c-3.062-2.769-6.753-4.908-10.78-5.663c-5.957-1.259-12.374-0.126-17.366,3.272c-5.453,3.564-9.144,9.605-9.941,16.064
	c-0.881,6.376,0.923,13.087,5.076,18.037c3.985,4.824,10.067,7.844,16.359,8.054c5.873,0.336,11.997-1.468,16.275-5.579
	c3.356-2.894,4.908-7.299,5.411-11.576c-6.963,0-13.926,0.041-20.889,0v-8.642H86.2c1.51,9.271-0.671,19.714-7.718,26.341
	c-4.698,4.698-11.2,7.467-17.827,8.012c-6.418,0.63-13.045-0.587-18.75-3.69c-6.837-3.649-12.29-9.815-14.975-17.072
	c-2.517-6.669-2.559-14.22-0.21-20.931c2.139-6.124,6.25-11.535,11.535-15.311C43.332,36.631,49.498,34.576,55.79,34.198z"/>
<path fill="#38B137" d="M223.993,36.379h8.977v59.899c-2.979,0-5.998,0.042-8.977-0.042
	C224.035,76.312,223.993,56.346,223.993,36.379z"/>
<path fill="#FA3913" d="M106.167,57.143c5.537-1.049,11.535,0.125,16.107,3.439c4.153,2.936,7.047,7.551,7.928,12.584
	c1.133,5.83-0.293,12.206-4.069,16.82c-4.068,5.159-10.738,7.928-17.24,7.508c-5.956-0.335-11.745-3.313-15.268-8.179
	c-3.985-5.369-4.95-12.752-2.769-19.043C93.038,63.518,99.204,58.36,106.167,57.143 M107.425,65.112
	c-2.265,0.588-4.362,1.889-5.873,3.734c-4.069,4.865-3.817,12.792,0.671,17.323c2.559,2.601,6.418,3.817,9.983,3.104
	c3.313-0.588,6.208-2.811,7.802-5.747c2.769-4.991,1.972-11.87-2.265-15.772C115.018,65.239,111.032,64.19,107.425,65.112
	L107.425,65.112z"/>
<path fill="#FCBD06" d="M150.629,57.143c6.335-1.217,13.256,0.545,17.995,4.991c7.719,6.921,8.558,19.882,1.972,27.852
	c-3.984,5.033-10.444,7.802-16.82,7.508c-6.082-0.168-12.08-3.188-15.688-8.179c-4.069-5.495-4.95-13.046-2.643-19.463
	C137.752,63.309,143.792,58.317,150.629,57.143 M151.888,65.112c-2.265,0.588-4.362,1.889-5.872,3.691
	c-4.027,4.782-3.859,12.583,0.461,17.156c2.559,2.727,6.544,4.069,10.235,3.314c3.271-0.63,6.208-2.811,7.802-5.747
	c2.727-5.033,1.93-11.913-2.349-15.813C159.438,65.196,155.453,64.19,151.888,65.112L151.888,65.112z"/>
<path fill="#3780FF" d="M188.339,59.576c4.824-3.021,11.242-3.858,16.443-1.259c1.636,0.713,2.978,1.93,4.278,3.146
	c0.042-1.133,0-2.307,0.042-3.482c2.811,0.043,5.621,0,8.473,0.043V95.02c-0.042,5.579-1.468,11.493-5.494,15.562
	c-4.404,4.487-11.158,5.872-17.24,4.949c-6.502-0.965-12.164-5.705-14.682-11.703c2.518-1.216,5.16-2.181,7.761-3.313
	c1.468,3.439,4.446,6.376,8.18,7.047c3.732,0.671,8.054-0.252,10.486-3.355c2.601-3.188,2.601-7.551,2.475-11.451
	c-1.93,1.887-4.152,3.565-6.837,4.194c-5.831,1.636-12.249-0.378-16.736-4.32c-4.53-3.943-7.215-10.025-6.964-16.065
	C178.649,69.727,182.509,63.141,188.339,59.576 M197.022,64.945c-2.56,0.419-4.95,1.846-6.586,3.817
	c-3.943,4.697-3.943,12.206,0.042,16.82c2.265,2.727,5.914,4.236,9.438,3.858c3.314-0.335,6.376-2.433,8.012-5.327
	c2.769-4.907,2.308-11.576-1.426-15.855C204.194,65.616,200.504,64.315,197.022,64.945L197.022,64.945z"/>
<path fill="#FA3913" d="M243.75,61.715c5.033-4.698,12.793-6.293,19.253-3.817c6.124,2.307,10.025,8.138,11.997,14.136
	c-9.103,3.775-18.163,7.507-27.266,11.283c1.259,2.392,3.188,4.572,5.789,5.453c3.649,1.301,8.012,0.839,11.073-1.594
	c1.217-0.923,2.182-2.14,3.104-3.313c2.307,1.552,4.614,3.062,6.921,4.613c-3.271,4.908-8.767,8.348-14.681,8.893
	c-6.544,0.797-13.507-1.72-17.743-6.837C235.235,82.478,235.906,68.971,243.75,61.715 M248.238,69.475
	c-1.426,2.055-2.014,4.572-1.972,7.046c6.082-2.517,12.165-5.033,18.247-7.591c-1.007-2.35-3.44-3.775-5.915-4.153
	C254.614,64.064,250.461,66.204,248.238,69.475z"/>
</svg>
