<?xml version="1.0" encoding="utf-8"?>
<!-- Generator: Adobe Illustrator 16.0.0, SVG Export Plug-In . SVG Version: 6.00 Build 0)  -->
<!DOCTYPE svg PUBLIC "-//W3C//DTD SVG 1.1//EN" "http://www.w3.org/Graphics/SVG/1.1/DTD/svg11.dtd">
<svg version="1.1" id="Layer_1" xmlns="http://www.w3.org/2000/svg" xmlns:xlink="http://www.w3.org/1999/xlink" x="0px" y="0px"
	 width="300px" height="150px" viewBox="0 0 300 150" enable-background="new 0 0 300 150" xml:space="preserve">
<g transform="translate(4636.413 -2865.209)">
	
		<linearGradient id="SVGID_1_" gradientUnits="userSpaceOnUse" x1="-16082.1797" y1="2470.6191" x2="-16082.1797" y2="2484.4338" gradientTransform="matrix(4.5091 0 0 4.5091 67935.0234 -8242.9961)">
		<stop  offset="0" style="stop-color:#196EEF"/>
		<stop  offset="0.5" style="stop-color:#186DEE"/>
		<stop  offset="1" style="stop-color:#1065E7"/>
	</linearGradient>
	<path fill="url(#SVGID_1_)" d="M-4572.754,2939.002h10.751v15.1c-3.354,1.078-7.59,1.669-11.993,1.669
		c-17.844,0-28.332-15.281-28.332-30.204c0-14.637,9.486-24.903,22.721-24.903c8.375,0,13.248,2.837,17.607,6.789v4.927l8.174-8.174
		c-5.17-3.498-12.657-6.823-23.358-6.823c-23.492,0-34.229,16.806-34.229,30.618c0,19.66,14.319,31.502,32.314,31.502
		c8.725,0,16.472-1.332,25.421-3.821v-15.602c0-0.797,0.351-1.345,0.875-1.826l2.824-2.824h-19.176L-4572.754,2939.002
		L-4572.754,2939.002z"/>
	
		<linearGradient id="SVGID_2_" gradientUnits="userSpaceOnUse" x1="-16069.9756" y1="2475.3159" x2="-16069.9756" y2="2484.249" gradientTransform="matrix(4.5091 0 0 4.5091 67935.0234 -8242.9961)">
		<stop  offset="0" style="stop-color:#DE5744"/>
		<stop  offset="0.5" style="stop-color:#DB4632"/>
		<stop  offset="1" style="stop-color:#D13D29"/>
	</linearGradient>
	<path fill="url(#SVGID_2_)" d="M-4524.593,2918.481c-13.521,0-21.899,9.88-21.899,20.368c0,9.052,6.75,19.799,20.424,19.799
		c13.154,0,21.225-9.899,21.225-20.57c0-9.94-7.887-19.593-19.75-19.593V2918.481L-4524.593,2918.481z M-4526.836,2921.362
		c9.533,0,13.778,12.42,13.778,21.279c0,13.174-9.883,13.435-11.065,13.435c-4.522,0-7.684-2.733-10.05-6.318
		c-2.083-3.305-4.119-9.443-4.119-15.441c0-5.975,1.956-8.892,5.034-11.038c2.517-1.609,4.873-1.916,6.418-1.916H-4526.836z"/>
	
		<linearGradient id="SVGID_3_" gradientUnits="userSpaceOnUse" x1="-16050.6816" y1="2475.3159" x2="-16050.6816" y2="2489.6587" gradientTransform="matrix(4.5091 0 0 4.5091 67935.0234 -8242.9961)">
		<stop  offset="0" style="stop-color:#1A6FEF"/>
		<stop  offset="0.25" style="stop-color:#1E72EF"/>
		<stop  offset="0.5" style="stop-color:#166BEC"/>
		<stop  offset="0.75" style="stop-color:#1267E9"/>
		<stop  offset="1" style="stop-color:#1063E5;stop-opacity:0.87"/>
	</linearGradient>
	<path fill="url(#SVGID_3_)" d="M-4436.203,2918.478c-11.81,0-18.198,7.477-18.198,15.825c0,6.355,4.553,13.524,13.945,13.524h2.376
		c0,0-0.646,1.572-0.65,3.091c0,2.24,0.805,3.498,2.513,5.435c-16.161,0.984-22.656,7.503-22.656,14.509
		c0,6.136,5.875,12.174,18.221,12.174c14.616,0,22.187-8.114,22.187-16.078c0-5.614-2.797-8.691-9.88-13.999
		c-2.083-1.619-2.486-2.649-2.486-3.861c0-1.736,1.038-2.885,1.418-3.318c0.671-0.707,1.833-1.515,2.267-1.902
		c2.38-2.016,5.741-5,5.741-10.955c0-4.085-1.699-7.6-5.571-10.891h4.727l3.552-3.552L-4436.203,2918.478L-4436.203,2918.478z
		 M-4439.461,2921.135c2.143,0,3.932,0.758,5.821,2.33c2.096,1.89,5.444,6.966,5.444,13.248c0,6.779-5.268,8.635-8.118,8.635
		c-1.395,0-3.066-0.391-4.482-1.358c-3.145-2.039-6.266-7.467-6.266-13.926C-4447.062,2924.236-4443.59,2921.135-4439.461,2921.135z
		 M-4434.784,2958.926c0.9,0,1.549,0.073,1.549,0.073s2.126,1.52,3.611,2.653c3.458,2.734,5.613,4.823,5.613,8.546
		c0,5.116-4.746,9.129-12.433,9.129c-8.438,0-14.887-3.929-14.887-10.344C-4451.33,2963.669-4446.911,2959.096-4434.784,2958.926z"
		/>
	
		<linearGradient id="SVGID_4_" gradientUnits="userSpaceOnUse" x1="-16043.8018" y1="2470.8701" x2="-16043.8018" y2="2483.998" gradientTransform="matrix(4.5091 0 0 4.5091 67935.0234 -8242.9961)">
		<stop  offset="0" style="stop-color:#0AA561"/>
		<stop  offset="0.5" style="stop-color:#009B58"/>
		<stop  offset="1" style="stop-color:#00914B"/>
	</linearGradient>
	<path fill="url(#SVGID_4_)" d="M-4416.144,2957.478h16.212l2.47-2.47l-4.649-0.581c-1.252-0.153-1.995-1.235-1.995-2.283v-48.969
		c0-0.964,0.447-1.458,0.773-1.773l2.925-2.924h-13.825l-3.599,3.598h5.374v50.725c0,0.721-0.227,1.212-0.714,1.716
		L-4416.144,2957.478L-4416.144,2957.478z"/>
	
		<linearGradient id="SVGID_5_" gradientUnits="userSpaceOnUse" x1="-16037.4541" y1="2475.3159" x2="-16037.4541" y2="2484.2241" gradientTransform="matrix(4.5091 0 0 4.5091 67935.0234 -8242.9961)">
		<stop  offset="0" style="stop-color:#DE5644"/>
		<stop  offset="0.5" style="stop-color:#DA4531"/>
		<stop  offset="1" style="stop-color:#CE3A28"/>
	</linearGradient>
	<path fill="url(#SVGID_5_)" d="M-4377.965,2918.481c-9.053,0-18.669,6.899-18.669,19.286c0,10.23,6.899,20.881,19.79,20.881
		c3.215,0,5.861-0.413,8.342-1.552c2.66-1.225,5.22-3.214,7.089-5.714c-3.527,1.779-6.405,2.947-10.227,2.947
		c-7.264,0-14.267-5.24-16.717-14.874l25.658-10.371c-1.481-5.284-5.661-10.604-15.264-10.604H-4377.965L-4377.965,2918.481z
		 M-4379.641,2921.315c4.856,0,8.367,3.996,8.367,7.123c0,1.011-0.634,1.545-1.889,2.04l-15.771,6.378c0,0-0.427-1.986-0.427-4.132
		C-4389.36,2923.722-4382.852,2921.315-4379.641,2921.315L-4379.641,2921.315z"/>
	
		<linearGradient id="SVGID_6_" gradientUnits="userSpaceOnUse" x1="-16059.7998" y1="2475.3369" x2="-16059.7998" y2="2484.2329" gradientTransform="matrix(4.5091 0 0 4.5091 67935.0234 -8242.9961)">
		<stop  offset="0" style="stop-color:#FFC01A"/>
		<stop  offset="0.5" style="stop-color:#FFBA03"/>
		<stop  offset="1" style="stop-color:#FFB300"/>
	</linearGradient>
	<path fill="url(#SVGID_6_)" d="M-4478.711,2918.481c-13.521,0-21.899,9.88-21.899,20.368c0,9.052,6.75,19.799,20.424,19.799
		c13.155,0,21.226-9.899,21.226-20.57c0-9.94-7.888-19.593-19.75-19.593V2918.481L-4478.711,2918.481z M-4480.954,2921.362
		c9.533,0,13.778,12.42,13.778,21.279c0,13.174-9.883,13.435-11.064,13.435c-4.523,0-7.684-2.733-10.05-6.318
		c-2.083-3.305-4.119-9.443-4.119-15.441c0-5.975,1.956-8.892,5.033-11.038c2.517-1.609,4.873-1.916,6.419-1.916H-4480.954z"/>
</g>
</svg>
