<?xml version="1.0" encoding="utf-8"?>
<!-- Generator: Adobe Illustrator 21.0.0, SVG Export Plug-In . SVG Version: 6.00 Build 0)  -->
<svg version="1.1" id="Layer_1" xmlns="http://www.w3.org/2000/svg" xmlns:xlink="http://www.w3.org/1999/xlink" x="0px" y="0px"
	 viewBox="0 0 300 150" style="enable-background:new 0 0 300 150;" xml:space="preserve">
<style type="text/css">
	.st0{fill:#FFFFFF;}
</style>
<path class="st0" d="M55.8,34.2H58c7.7,0.2,15.3,3.3,20.8,8.8c-2,2.1-4.1,4-6,6.1c-3.1-2.8-6.8-4.9-10.8-5.7
	c-6-1.3-12.4-0.1-17.4,3.3c-5.5,3.6-9.1,9.6-9.9,16.1c-0.9,6.4,0.9,13.1,5.1,18c4,4.8,10.1,7.8,16.4,8.1c5.9,0.3,12-1.5,16.3-5.6
	c3.4-2.9,4.9-7.3,5.4-11.6c-7,0-13.9,0-20.9,0V63h29.3c1.5,9.3-0.7,19.7-7.7,26.3c-4.7,4.7-11.2,7.5-17.8,8
	c-6.4,0.6-13-0.6-18.8-3.7c-6.8-3.6-12.3-9.8-15-17.1c-2.5-6.7-2.6-14.2-0.2-20.9c2.1-6.1,6.2-11.5,11.5-15.3
	C43.3,36.6,49.5,34.6,55.8,34.2z"/>
<path class="st0" d="M224,36.4h9v59.9c-3,0-6,0-9,0C224,76.3,224,56.3,224,36.4z"/>
<path class="st0" d="M106.2,57.1c5.5-1,11.5,0.1,16.1,3.4c4.2,2.9,7,7.6,7.9,12.6c1.1,5.8-0.3,12.2-4.1,16.8
	c-4.1,5.2-10.7,7.9-17.2,7.5c-6-0.3-11.7-3.3-15.3-8.2c-4-5.4-4.9-12.8-2.8-19C93,63.5,99.2,58.4,106.2,57.1 M107.4,65.1
	c-2.3,0.6-4.4,1.9-5.9,3.7c-4.1,4.9-3.8,12.8,0.7,17.3c2.6,2.6,6.4,3.8,10,3.1c3.3-0.6,6.2-2.8,7.8-5.7c2.8-5,2-11.9-2.3-15.8
	C115,65.2,111,64.2,107.4,65.1L107.4,65.1z"/>
<path class="st0" d="M150.6,57.1c6.3-1.2,13.3,0.5,18,5c7.7,6.9,8.6,19.9,2,27.9c-4,5-10.4,7.8-16.8,7.5c-6.1-0.2-12.1-3.2-15.7-8.2
	c-4.1-5.5-4.9-13-2.6-19.5C137.8,63.3,143.8,58.3,150.6,57.1 M151.9,65.1c-2.3,0.6-4.4,1.9-5.9,3.7c-4,4.8-3.9,12.6,0.5,17.2
	c2.6,2.7,6.5,4.1,10.2,3.3c3.3-0.6,6.2-2.8,7.8-5.7c2.7-5,1.9-11.9-2.3-15.8C159.4,65.2,155.5,64.2,151.9,65.1L151.9,65.1z"/>
<path class="st0" d="M188.3,59.6c4.8-3,11.2-3.9,16.4-1.3c1.6,0.7,3,1.9,4.3,3.1c0-1.1,0-2.3,0-3.5c2.8,0,5.6,0,8.5,0v37
	c0,5.6-1.5,11.5-5.5,15.6c-4.4,4.5-11.2,5.9-17.2,4.9c-6.5-1-12.2-5.7-14.7-11.7c2.5-1.2,5.2-2.2,7.8-3.3c1.5,3.4,4.4,6.4,8.2,7
	c3.7,0.7,8.1-0.3,10.5-3.4c2.6-3.2,2.6-7.6,2.5-11.5c-1.9,1.9-4.2,3.6-6.8,4.2c-5.8,1.6-12.2-0.4-16.7-4.3c-4.5-3.9-7.2-10-7-16.1
	C178.6,69.7,182.5,63.1,188.3,59.6 M197,64.9c-2.6,0.4-4.9,1.8-6.6,3.8c-3.9,4.7-3.9,12.2,0,16.8c2.3,2.7,5.9,4.2,9.4,3.9
	c3.3-0.3,6.4-2.4,8-5.3c2.8-4.9,2.3-11.6-1.4-15.9C204.2,65.6,200.5,64.3,197,64.9L197,64.9z"/>
<path class="st0" d="M243.8,61.7c5-4.7,12.8-6.3,19.3-3.8c6.1,2.3,10,8.1,12,14.1c-9.1,3.8-18.2,7.5-27.3,11.3
	c1.3,2.4,3.2,4.6,5.8,5.5c3.6,1.3,8,0.8,11.1-1.6c1.2-0.9,2.2-2.1,3.1-3.3c2.3,1.6,4.6,3.1,6.9,4.6c-3.3,4.9-8.8,8.3-14.7,8.9
	c-6.5,0.8-13.5-1.7-17.7-6.8C235.2,82.5,235.9,69,243.8,61.7 M248.2,69.5c-1.4,2.1-2,4.6-2,7c6.1-2.5,12.2-5,18.2-7.6
	c-1-2.3-3.4-3.8-5.9-4.2C254.6,64.1,250.5,66.2,248.2,69.5z"/>
</svg>
