<?xml version="1.0" encoding="utf-8"?>
<!-- Generator: Adobe Illustrator 16.0.0, SVG Export Plug-In . SVG Version: 6.00 Build 0)  -->
<!DOCTYPE svg PUBLIC "-//W3C//DTD SVG 1.1//EN" "http://www.w3.org/Graphics/SVG/1.1/DTD/svg11.dtd">
<svg version="1.1" id="Layer_1" xmlns="http://www.w3.org/2000/svg" xmlns:xlink="http://www.w3.org/1999/xlink" x="0px" y="0px"
	 width="300px" height="150px" viewBox="0 0 300 150" enable-background="new 0 0 300 150" xml:space="preserve">
<path fill="#3F5D87" d="M39.325,39.704c-2.287,0-5.25,2.424-6.999,4.038C28.482,47.154,25,53.429,25,58.465
	c0,7.156,6.086,9.857,7.625,9.857c0.508,0,0.94-0.262,0.94-0.95c0-0.54-0.342-0.989-0.683-1.451
	c-1.409-2.154-1.862-4.211-1.862-6.984c0-5.783,2.667-11.083,4.879-13.508c0.408-0.439,1.33-1.387,1.605-1.387
	c0.273,0,0.341,0.223,0.341,0.912l-0.257,37.849c0,5.916-1.707,8.267-1.707,9.66c0,0.611,0.265,0.771,0.771,0.771
	c2.396,0,4.783-2.92,5.46-3.985c2.098-3.623,2.612-6.451,2.612-14.609V42.834c0-0.861-0.241-1.233-1.059-1.764
	C42.47,40.311,41.1,39.704,39.325,39.704z M107.829,39.81c-1.126,0-1.608,0.589-1.662,2.412l-0.25,7.547l-6.601-0.229
	c-0.4-0.01-0.581,0.116-0.756,0.468c-0.561,1.051-0.855,1.875-0.855,3.246c0,1.117,0.506,1.236,0.958,1.236l6.868,0.197
	l-0.021,14.42c0,3.058-1.93,7.025-5.354,10.325c0,0,0.294-0.996,0.278-2.041c0-2.959-1.904-5.64-4.443-7.538l-6.196-4.661
	c1.299-1.502,3.499-4.482,3.499-6.999c0-1.951-1.227-2.771-3.514-2.771c-3.228,0-6.97,2.956-6.97,7.34
	c0,1.598,0.711,3.037,1.792,4.137c-1.492,2.831-3.604,6.557-5.171,9.209c-1.184,2.031-3.188,5.144-4.373,5.144
	c-0.874,0-1.278-1.375-1.278-6.657c0-4.389,0.312-9.161,0.468-13.741c0-1.05-0.172-2.018-1.535-2.967
	c-1.253-0.804-2.802-1.925-4.396-1.925c-3.546,0-5.961,3.262-7.618,6.453c-1.714,3.306-2.642,6.093-3.95,10.135l0.145-13.913
	c0.044-0.992-0.206-1.377-1-1.715c-1.03-0.437-2.545-0.94-3.89-0.94c-1.124,0-1.26,0.485-1.26,1.666L50.59,74.342l-0.018,6.439
	c0,5.805,0.727,6.772,4.172,6.772c1.907,0,2.518-0.224,2.556-1.81c0.052-1.048,0.554-3.589,1.232-6.136
	c1.984-7.52,4.335-13.467,8.389-18c0.423-0.44,0.75-0.283,0.683,0.341c0,0-0.641,10.176-0.641,14.338
	c0,7.403,1.139,11.266,4.822,11.266c3.615,0,7.166-4.645,9.104-7.78l6.217-10.399c4.029,3.433,6.84,6.095,6.84,9.333
	c0,2.013-1.27,3.981-3.204,3.981c-2.417,0-3.961-2.549-5.594-2.549c-1.355,0-3.094,2.615-3.094,4.102
	c0,1.402,3.061,3.386,8.551,3.386c8.106,0,12.454-5.562,15.064-11.723c0.5,7.312,3.413,11.582,7.956,11.582
	c2.98,0,6.425-3.766,7.992-8.364c0,0,0.154,1.193,1.344,3.64c1.638,3.194,4.128,4.661,7.221,4.661c3.847,0,7.137-2.332,9.146-6.245
	c0.305,2.965,2.794,6.23,6.798,6.23c2.513,0,4.804-1.926,6.308-5.098c0,0,1.948,5.239,7.583,5.239c3.165,0,6.913-2.932,7.809-5.062
	l0.099,3.098l-8.36,7.71c-2.428,2.357-5.011,5.743-5.011,9.492c0,4.768,4.502,7.509,8.464,7.509c4.117,0,6.85-2.608,8.347-4.795
	c1.884-2.828,2.679-8.159,2.679-13.371l-0.187-7.836c5.635-6.193,10.045-14.755,12.009-20.812l4.276-0.113
	c0.829-0.056,0.788,0.271,0.673,0.753c-0.751,3.177-1.408,6.774-1.408,10.357c0,5.919,1.363,8.495,3.323,10.6
	c1.704,1.764,3.398,2.359,5.182,2.359c3.488,0,5.678-2.881,6.373-4.696c1.638,3.194,4.051,4.682,7.143,4.682
	c3.847,0,7.137-2.332,9.146-6.245c0.305,2.965,2.793,6.23,6.798,6.23c2.991,0,4.726-1.726,6.09-4.978
	c0.027,1.046,0.068,2.161,0.099,3.207c0.036,0.541,0.469,0.883,0.855,1.024c1.271,0.48,2.388,0.722,3.391,0.722
	c2.614,0,3.183-0.537,3.183-2.246c0-2.819,0.082-7.273,0.884-10.85c0.85-3.561,2.133-7.591,3.904-10.396
	c0.159-0.29,0.55-0.214,0.566,0.137c0.255,6.001,0.656,16.159,2.232,18.789c0.777,1.254,1.98,2.168,3.78,2.168
	c0.845,0,1.879-0.359,2.145-0.584c0.268-0.21,0.403-0.442,0.387-0.873c0-7.671,2.393-15.098,4.788-20.091
	c0.065-0.148,0.252-0.16,0.246,0.035l-0.134,5.527c0,9.079,0.654,14.813,5.189,17.571c0.892,0.499,1.896,0.76,2.918,0.757
	c2.32,0,4.424-1.296,5.464-3.38c0.847-1.619,1.641-4.736,1.641-6.502c0-0.684,0.008-1.796-1.112-1.796
	c-0.614,0-0.983,0.453-1.131,1.138c-0.356,1.482-0.649,2.754-1.204,4.221c-0.529,1.399-1.319,2.215-2.257,2.215
	c-1.101,0-1.659-0.866-1.979-1.401c-1.404-2.143-1.517-7.063-1.517-11.171l0.338-10.572c0-0.875-0.365-1.921-1.715-2.693
	c-0.905-0.522-3.197-1.503-4.601-1.503c-1.302,0-1.932,0.737-2.401,1.819c-0.881,1.944-3.825,9.569-4.615,15.768
	c-0.028,0.164-0.231,0.198-0.246-0.01c-0.41-4.384-0.621-9.666-0.616-13.229c0-1.078-0.264-2.618-2.549-3.616
	c-1.11-0.46-2.029-0.743-3.151-0.743c-1.392,0-1.691,0.681-2.189,1.584c-1.577,2.914-2.667,6.713-4.302,11.505l0.024-10.966
	c0-0.513-0.313-1.185-1.214-1.366c-2.233-0.513-3.268-0.746-4.147-0.746c-0.641,0-0.993,0.511-0.993,1.063l-0.119,18.697
	c-0.433,2.289-2.183,7.752-4.665,7.752c-2.038,0-2.989-2.065-2.989-10.695l0.37-14.026c0-0.886-0.581-1.258-1.429-1.633
	c-1.212-0.481-2.177-0.673-3.408-0.673c-1.546,0-2.076,0.74-1.764,2.518c-1.699-2.299-3.398-3.57-6.399-3.57
	c-6.026,0-10.568,7.248-10.568,17.782c-0.06,2.954,0.654,5.889,0.654,5.889c-0.545,2.452-1.827,4.45-3.598,4.45
	c-2.234,0-3.658-3.158-3.658-8.632c0-5.49,2.092-11.682,2.092-13.36c0-1.952-1.279-3.186-3.542-3.186
	c-1.134,0-5.339,0.954-7.495,1.267c0,0,0.243-1.027,0.226-1.834c0-1.924-0.902-3.13-3.144-3.13c-2.738,0-4.749,1.956-4.749,5.292
	c0,1.497,0.861,2.882,2.003,3.626c-1.481,6.178-3.89,10.772-7.438,15.906l0.299-20.785c0-0.676-0.18-1.095-1.504-1.609
	c-0.699-0.302-1.84-0.651-3.277-0.651c-2.083,0-1.945,1.488-1.834,2.602c-0.953-1.69-3.04-3.696-6.26-3.696
	c-8.773,0-11.466,13.378-10.146,22.879c0,1.158-1.131,5.27-3.686,5.27c-2.038,0-2.989-2.064-2.989-10.694l0.374-14.026
	c0-0.886-0.586-1.258-1.433-1.633c-1.212-0.481-2.173-0.673-3.405-0.673c-1.546,0-2.077,0.74-1.764,2.518
	c-1.7-2.299-3.402-3.57-6.404-3.57c-6.026,0-10.628,6.629-10.628,17.162c0,4.021-3.462,10.157-5.89,10.157
	c-1.349,0-2.785-2.476-2.785-8.801c0.007-4.312,0.595-18.989,0.595-18.989l8.474-0.137c0.404-0.004,0.639-0.446,0.789-0.718
	c0.389-0.79,0.577-1.315,0.577-2.26c0-0.853-0.171-1.164-1.264-1.226l-8.446-0.507l0.359-7.868c0.025-0.497-0.274-0.821-0.817-1.063
	C111.104,40.428,109.099,39.81,107.829,39.81z M133.475,60.425c2.259,0,4.552,2.061,4.552,9.371c0,9.205-3.354,13.487-5.932,13.487
	c-2.417,0-4.252-3.412-4.252-10.114C127.842,66.395,129.634,60.425,133.475,60.425L133.475,60.425z M214.839,60.425
	c2.259,0,4.552,2.061,4.552,9.371c0,9.205-3.354,13.487-5.932,13.487c-2.418,0-4.253-3.412-4.253-10.114
	C209.206,66.395,210.998,60.425,214.839,60.425L214.839,60.425z M163.233,60.468c2.948,0,4.253,3.039,4.253,8.931
	c0,8.883-2.641,13.941-5.848,13.941c-2.048,0-4.402-3.362-4.277-9.974C157.361,69.139,158.739,60.468,163.233,60.468L163.233,60.468
	z M168.225,90.184v3.499c0,11.61-3.094,13.593-5.579,13.593c-0.942,0-3.25-0.712-3.25-3.584c0-4.016,4.198-8.583,5.503-9.994
	L168.225,90.184L168.225,90.184z"/>
</svg>
