<svg id="Layer_1" data-name="Layer 1" xmlns="http://www.w3.org/2000/svg" viewBox="0 0 300 150"><defs><style>.cls-1{fill:#fff;}</style></defs><title>instagram-white</title><path class="cls-1" d="M39.33,39.7c-2.29,0-5.25,2.42-7,4C28.48,47.15,25,53.43,25,58.47c0,7.16,6.09,9.86,7.63,9.86a.86.86,0,0,0,.94-.95,2.57,2.57,0,0,0-.68-1.45,11.73,11.73,0,0,1-1.86-7A21.63,21.63,0,0,1,35.9,45.43C36.31,45,37.23,44,37.5,44s.34.22.34.91L37.59,82.8c0,5.92-1.71,8.27-1.71,9.66,0,.61.26.77.77.77,2.4,0,4.78-2.92,5.46-4,2.1-3.62,2.61-6.45,2.61-14.61V42.83a1.78,1.78,0,0,0-1.06-1.76A7.83,7.83,0,0,0,39.33,39.7Zm68.5.11c-1.13,0-1.61.59-1.66,2.41l-.25,7.55-6.6-.23a.7.7,0,0,0-.76.47,6.13,6.13,0,0,0-.86,3.25c0,1.12.51,1.24,1,1.24l6.87.2,0,14.42c0,3.06-1.93,7-5.35,10.32a7.78,7.78,0,0,0,.28-2c0-3-1.9-5.64-4.44-7.54l-6.2-4.66c1.3-1.5,3.5-4.48,3.5-7,0-2-1.23-2.77-3.51-2.77a7.35,7.35,0,0,0-7,7.34A5.92,5.92,0,0,0,84.6,66.9c-1.49,2.83-3.6,6.56-5.17,9.21-1.18,2-3.19,5.14-4.37,5.14-.87,0-1.28-1.37-1.28-6.66,0-4.39.31-9.16.47-13.74a3.16,3.16,0,0,0-1.54-3c-1.25-.8-2.8-1.92-4.4-1.92-3.55,0-6,3.26-7.62,6.45a61.13,61.13,0,0,0-4,10.14l.15-13.91c0-1-.21-1.38-1-1.72A10.78,10.78,0,0,0,52,56c-1.12,0-1.26.49-1.26,1.67l-.15,16.69,0,6.44c0,5.81.73,6.77,4.17,6.77,1.91,0,2.52-.22,2.56-1.81a39.54,39.54,0,0,1,1.23-6.14c2-7.52,4.33-13.47,8.39-18,.42-.44.75-.28.68.34,0,0-.64,10.18-.64,14.34,0,7.4,1.14,11.27,4.82,11.27s7.17-4.64,9.1-7.78l6.22-10.4c4,3.43,6.84,6.1,6.84,9.33,0,2-1.27,4-3.2,4-2.42,0-4-2.55-5.59-2.55-1.36,0-3.09,2.61-3.09,4.1s3.06,3.39,8.55,3.39c8.11,0,12.45-5.56,15.06-11.72.5,7.31,3.41,11.58,8,11.58,3,0,6.43-3.77,8-8.36A13.65,13.65,0,0,0,123,82.76a7.73,7.73,0,0,0,7.22,4.66c3.85,0,7.14-2.33,9.15-6.25a6.91,6.91,0,0,0,6.8,6.23c2.51,0,4.8-1.93,6.31-5.1,0,0,1.95,5.24,7.58,5.24,3.16,0,6.91-2.93,7.81-5.06l.1,3.1-8.36,7.71c-2.43,2.36-5,5.74-5,9.49,0,4.77,4.5,7.51,8.46,7.51a10.18,10.18,0,0,0,8.35-4.79c1.88-2.83,2.68-8.16,2.68-13.37l-.19-7.84a62.21,62.21,0,0,0,12-20.81l4.28-.11c.83-.06.79.27.67.75a45.71,45.71,0,0,0-1.41,10.36c0,5.92,1.36,8.5,3.32,10.6a6.86,6.86,0,0,0,5.18,2.36c3.49,0,5.68-2.88,6.37-4.7,1.64,3.19,4.05,4.68,7.14,4.68,3.85,0,7.14-2.33,9.15-6.25a6.91,6.91,0,0,0,6.8,6.23c3,0,4.73-1.73,6.09-5,0,1,.07,2.16.1,3.21a1.23,1.23,0,0,0,.85,1,9.7,9.7,0,0,0,3.39.72c2.61,0,3.18-.54,3.18-2.25a53.51,53.51,0,0,1,.88-10.85,36.63,36.63,0,0,1,3.9-10.4.3.3,0,0,1,.57.14c.26,6,.66,16.16,2.23,18.79A4.26,4.26,0,0,0,252.36,85a4.41,4.41,0,0,0,2.15-.58.93.93,0,0,0,.39-.87,48.48,48.48,0,0,1,4.79-20.09c.07-.15.25-.16.25,0L259.79,69c0,9.08.65,14.81,5.19,17.57a5.94,5.94,0,0,0,2.92.76,6.08,6.08,0,0,0,5.46-3.38,17.65,17.65,0,0,0,1.64-6.5c0-.68,0-1.8-1.11-1.8-.61,0-1,.45-1.13,1.14a32.88,32.88,0,0,1-1.2,4.22c-.53,1.4-1.32,2.21-2.26,2.21a2.35,2.35,0,0,1-2-1.4c-1.4-2.14-1.52-7.06-1.52-11.17l.34-10.57a3,3,0,0,0-1.71-2.69,12.09,12.09,0,0,0-4.6-1.5,2.47,2.47,0,0,0-2.4,1.82,68,68,0,0,0-4.62,15.77c0,.16-.23.2-.25,0-.41-4.38-.62-9.67-.62-13.23a3.65,3.65,0,0,0-2.55-3.62,7.84,7.84,0,0,0-3.15-.74c-1.39,0-1.69.68-2.19,1.58-1.58,2.91-2.67,6.71-4.3,11.51l0-11a1.39,1.39,0,0,0-1.21-1.37,20.94,20.94,0,0,0-4.15-.75,1,1,0,0,0-1,1.06l-.12,18.7c-.43,2.29-2.18,7.75-4.66,7.75-2,0-3-2.07-3-10.69l.37-14c0-.89-.58-1.26-1.43-1.63a8.55,8.55,0,0,0-3.41-.67c-1.55,0-2.08.74-1.76,2.52-1.7-2.3-3.4-3.57-6.4-3.57-6,0-10.57,7.25-10.57,17.78a26.27,26.27,0,0,0,.65,5.89c-.54,2.45-1.83,4.45-3.6,4.45-2.23,0-3.66-3.16-3.66-8.63s2.09-11.68,2.09-13.36c0-2-1.28-3.19-3.54-3.19-1.13,0-5.34,1-7.49,1.27a8.84,8.84,0,0,0,.23-1.83c0-1.92-.9-3.13-3.14-3.13-2.74,0-4.75,2-4.75,5.29a4.45,4.45,0,0,0,2,3.63,44.84,44.84,0,0,1-7.44,15.91l.3-20.78c0-.68-.18-1.1-1.5-1.61a8.35,8.35,0,0,0-3.28-.65c-2.08,0-1.95,1.49-1.83,2.6a7.17,7.17,0,0,0-6.26-3.7c-8.77,0-11.47,13.38-10.15,22.88,0,1.16-1.13,5.27-3.69,5.27-2,0-3-2.06-3-10.69l.37-14c0-.89-.59-1.26-1.43-1.63a8.53,8.53,0,0,0-3.4-.67c-1.55,0-2.08.74-1.76,2.52-1.7-2.3-3.4-3.57-6.4-3.57-6,0-10.63,6.63-10.63,17.16,0,4-3.46,10.16-5.89,10.16-1.35,0-2.79-2.48-2.79-8.8,0-4.31.6-19,.6-19l8.47-.14c.4,0,.64-.45.79-.72a4.44,4.44,0,0,0,.58-2.26c0-.85-.17-1.16-1.26-1.23L113.2,50l.36-7.87c0-.5-.27-.82-.82-1.06A16.17,16.17,0,0,0,107.83,39.81Zm25.65,20.61c2.26,0,4.55,2.06,4.55,9.37,0,9.21-3.35,13.49-5.93,13.49-2.42,0-4.25-3.41-4.25-10.11s1.79-12.74,5.63-12.74Zm81.36,0c2.26,0,4.55,2.06,4.55,9.37,0,9.21-3.35,13.49-5.93,13.49-2.42,0-4.25-3.41-4.25-10.11s1.79-12.74,5.63-12.74Zm-51.61,0c2.95,0,4.25,3,4.25,8.93,0,8.88-2.64,13.94-5.85,13.94-2,0-4.4-3.36-4.28-10,0-4.23,1.38-12.9,5.87-12.9Zm5,29.72v3.5c0,11.61-3.09,13.59-5.58,13.59a3.35,3.35,0,0,1-3.25-3.58c0-4,4.2-8.58,5.5-10l3.33-3.51Z"/></svg>