<svg id="Layer_1" data-name="Layer 1" xmlns="http://www.w3.org/2000/svg" viewBox="0 0 300 150"><defs><style>.cls-1{fill:#069;}.cls-2{fill:#fff;}</style></defs><title>linkedin-white</title><path class="cls-1" d="M209.2,46.63a4.81,4.81,0,0,1,4.86-4.74h56.08A4.81,4.81,0,0,1,275,46.63v56.73a4.8,4.8,0,0,1-4.86,4.74H214.06a4.8,4.8,0,0,1-4.86-4.74V46.63Z"/><path class="cls-2" d="M25,97.36H52.46v-9H34.94V53.95H25Zm41.36,0V67.46H56.43v29.9h9.94Zm-5-34c3.47,0,5.62-2.3,5.62-5.17S64.86,53,61.46,53s-5.62,2.23-5.62,5.17a5.14,5.14,0,0,0,5.49,5.17Zm9.58,34h9.94V80.66a6.78,6.78,0,0,1,.33-2.42,5.44,5.44,0,0,1,5.1-3.64c3.6,0,5,2.74,5,6.76v16h9.94V80.21c0-9.18-4.9-13.46-11.44-13.46a9.9,9.9,0,0,0-9,5h.07V67.46H71C71.11,70.26,71,97.36,71,97.36Zm44.36-43.41H105.4V97.36h9.94V87.66l2.48-3.13,7.78,12.82h12.23L124.75,78.8l11.44-12.63h-12s-8.17,11.3-8.89,12.64Z"/><path class="cls-2" d="M164.41,84.89a24.12,24.12,0,0,0,.33-3.91c0-7.73-3.92-15.58-14.25-15.58-11.05,0-16.15,8.74-16.15,16.67,0,9.8,6.21,15.93,17.07,15.93A30.9,30.9,0,0,0,163,96l-1.31-6.56a27.06,27.06,0,0,1-8.83,1.33c-4.64,0-8.69-1.91-9-6l20.6.06h0Zm-20.66-6.72c.26-2.55,2-6.32,6.21-6.32,4.51,0,5.56,4,5.56,6.32Zm45.52-24.22V69h-.13c-1.44-2.1-4.45-3.51-8.43-3.51-7.65,0-14.38,6.12-14.32,16.58,0,9.7,6.08,16,13.66,16,4.12,0,8-1.79,10-5.23h.2l.39,4.53h8.83c-.13-2.1-.26-5.74-.26-9.31V53.95Zm0,29.57a11,11,0,0,1-.2,2.17,5.85,5.85,0,0,1-5.82,4.66c-4.12,0-6.8-3.32-6.8-8.55,0-4.91,2.29-8.86,6.87-8.86a5.87,5.87,0,0,1,5.82,4.72,8.24,8.24,0,0,1,.13,1.79v4.08Z"/><path class="cls-2" d="M229.15,97.32V67.42h-9.94v29.9Zm-5-34c3.46,0,5.62-2.3,5.62-5.17S227.64,53,224.24,53s-5.62,2.23-5.62,5.17a5.14,5.14,0,0,0,5.49,5.17Zm10.47,34h9.94V80.63a6.8,6.8,0,0,1,.33-2.43,5.44,5.44,0,0,1,5.1-3.64c3.6,0,5,2.74,5,6.76v16H265V80.18c0-9.18-4.9-13.46-11.44-13.46a9.9,9.9,0,0,0-9,5h.07V67.42h-9.94c.13,2.8,0,29.9,0,29.9Z"/></svg>