<?xml version="1.0" encoding="utf-8"?>
<!-- Generator: Adobe Illustrator 16.0.0, SVG Export Plug-In . SVG Version: 6.00 Build 0)  -->
<!DOCTYPE svg PUBLIC "-//W3C//DTD SVG 1.1//EN" "http://www.w3.org/Graphics/SVG/1.1/DTD/svg11.dtd">
<svg version="1.1" id="Layer_1" xmlns="http://www.w3.org/2000/svg" xmlns:xlink="http://www.w3.org/1999/xlink" x="0px" y="0px"
	 width="300px" height="150px" viewBox="0 0 300 150" enable-background="new 0 0 300 150" xml:space="preserve">
<path fill="#006699" d="M209.198,46.634c0-2.619,2.178-4.744,4.863-4.744h56.075c2.686,0,4.863,2.125,4.863,4.744v56.732
	c0,2.619-2.178,4.743-4.863,4.743h-56.075c-2.686,0-4.863-2.124-4.863-4.742V46.634L209.198,46.634z"/>
<path d="M25,97.358h27.461v-9.017H34.939V53.947H25V97.358z M66.364,97.358V67.458h-9.938v29.901H66.364z M61.396,63.375
	c3.465,0,5.623-2.296,5.623-5.167c-0.064-2.934-2.157-5.165-5.557-5.165c-3.4,0-5.623,2.232-5.623,5.165
	c0,2.872,2.157,5.167,5.492,5.167H61.396L61.396,63.375z M70.978,97.358h9.939V80.66c0-0.895,0.064-1.788,0.327-2.424
	c0.717-1.786,2.353-3.636,5.099-3.636c3.597,0,5.036,2.742,5.036,6.76v15.997h9.937V80.213c0-9.185-4.903-13.458-11.443-13.458
	c-5.361,0-7.716,2.997-9.023,5.039h0.067v-4.336h-9.939C71.109,70.263,70.978,97.358,70.978,97.358z M115.337,53.947h-9.938v43.412
	h9.938v-9.694l2.484-3.128l7.781,12.822h12.227l-13.076-18.562l11.441-12.627H124.23c0,0-8.173,11.297-8.893,12.638V53.947z"/>
<path d="M164.406,84.886c0.132-0.768,0.328-2.241,0.328-3.906c0-7.729-3.924-15.577-14.254-15.577
	c-11.05,0-16.151,8.74-16.151,16.666c0,9.804,6.212,15.925,17.065,15.925c4.316,0,8.303-0.636,11.574-1.976l-1.309-6.563
	c-2.682,0.889-5.428,1.335-8.827,1.335c-4.642,0-8.695-1.907-9.022-5.968l20.595,0.062V84.886L164.406,84.886z M143.746,78.162
	c0.262-2.552,1.963-6.316,6.212-6.316c4.511,0,5.558,4.02,5.558,6.316H143.746L143.746,78.162z M189.266,53.947v15.028h-0.132
	c-1.438-2.104-4.446-3.507-8.433-3.507c-7.65,0-14.385,6.123-14.32,16.582c0,9.696,6.081,16.011,13.665,16.011
	c4.12,0,8.042-1.788,10.005-5.231h0.195l0.394,4.529h8.826c-0.131-2.104-0.263-5.74-0.263-9.312v-34.1L189.266,53.947
	L189.266,53.947z M189.266,83.518c0,0.765-0.065,1.531-0.197,2.167c-0.586,2.744-2.94,4.656-5.818,4.656
	c-4.118,0-6.8-3.316-6.8-8.546c0-4.91,2.29-8.865,6.866-8.865c3.072,0,5.229,2.104,5.818,4.718c0.131,0.576,0.131,1.215,0.131,1.788
	V83.518L189.266,83.518z"/>
<path fill="#FFFFFF" d="M229.146,97.322V67.421h-9.939v29.901H229.146L229.146,97.322z M224.178,63.339
	c3.465,0,5.622-2.296,5.622-5.166c-0.065-2.935-2.157-5.167-5.557-5.167c-3.401,0-5.623,2.232-5.623,5.167
	c0,2.87,2.156,5.166,5.492,5.166H224.178L224.178,63.339z M234.646,97.322h9.938V80.626c0-0.893,0.064-1.787,0.327-2.425
	c0.719-1.786,2.354-3.635,5.1-3.635c3.596,0,5.034,2.742,5.034,6.761v15.995h9.938V80.178c0-9.184-4.902-13.458-11.441-13.458
	c-5.361,0-7.716,2.996-9.023,5.037h0.066v-4.335h-9.938C234.776,70.227,234.646,97.323,234.646,97.322L234.646,97.322z"/>
</svg>
