<svg id="Layer_1" data-name="Layer 1" xmlns="http://www.w3.org/2000/svg" viewBox="0 0 300 150"><defs><style>.cls-1{fill:#706d6e;}.cls-2{fill:#f1511b;}.cls-3{fill:#80cc28;}.cls-4{fill:#00adef;}.cls-5{fill:#fbbc09;}</style></defs><title>microsoft</title><path class="cls-1" d="M275,72.46v-4.4h-5.46V61.23l-.18.06-5.13,1.57-.1,0v5.18H256V65.18a4.58,4.58,0,0,1,.89-3.06,3.15,3.15,0,0,1,2.5-1,5.83,5.83,0,0,1,2.37.54l.2.09V57.1l-.1,0a9.27,9.27,0,0,0-3-.4,8.9,8.9,0,0,0-4.3,1,7.36,7.36,0,0,0-3,2.92,8.7,8.7,0,0,0-1,4.28v3.17h-3.8v4.4h3.8V91H256V72.46h8.09V84.23c0,4.85,2.29,7.31,6.8,7.31a11.14,11.14,0,0,0,2.32-.26,6.42,6.42,0,0,0,1.69-.54l.07,0V86.26l-.22.15a3.87,3.87,0,0,1-1.1.48,4.18,4.18,0,0,1-1.08.18,2.92,2.92,0,0,1-2.32-.85,4.56,4.56,0,0,1-.74-2.94V72.46ZM234.59,87.07a5.79,5.79,0,0,1-4.64-1.95,8.29,8.29,0,0,1-1.67-5.51A8.61,8.61,0,0,1,229.94,74a5.7,5.7,0,0,1,4.6-2A5.61,5.61,0,0,1,239,73.87a8.45,8.45,0,0,1,1.63,5.61,9,9,0,0,1-1.54,5.68,5.48,5.48,0,0,1-4.53,1.91m.24-19.56c-3.78,0-6.78,1.11-8.92,3.29s-3.22,5.21-3.22,9a11.69,11.69,0,0,0,3.15,8.58,11.41,11.41,0,0,0,8.44,3.17A11.64,11.64,0,0,0,243,88.2a12.31,12.31,0,0,0,3.22-8.9c0-3.64-1-6.55-3-8.64s-4.83-3.15-8.39-3.15m-20.94,0a9.86,9.86,0,0,0-6.32,2,6.23,6.23,0,0,0-2.46,5.08,7.11,7.11,0,0,0,.53,2.84,5.71,5.71,0,0,0,1.63,2.13,14.2,14.2,0,0,0,3.32,1.86,24.84,24.84,0,0,1,2.76,1.29,3.85,3.85,0,0,1,1.21,1,2.24,2.24,0,0,1,.34,1.3c0,1.54-1.15,2.29-3.52,2.29a9.69,9.69,0,0,1-3-.55,11.18,11.18,0,0,1-3.05-1.55L205.1,85v5.25l.08,0a13.62,13.62,0,0,0,2.89.89,15.56,15.56,0,0,0,3.09.36,10.47,10.47,0,0,0,6.68-2,6.35,6.35,0,0,0,2.49-5.21A6,6,0,0,0,219,80.42a11.47,11.47,0,0,0-4.54-2.89,11.69,11.69,0,0,1-3.24-1.68,2.36,2.36,0,0,1-.65-1.76,2,2,0,0,1,.83-1.63,3.72,3.72,0,0,1,2.32-.65,9.52,9.52,0,0,1,2.76.43,8.9,8.9,0,0,1,2.41,1.12l.22.15v-5l-.09,0a11.82,11.82,0,0,0-2.45-.68,15.08,15.08,0,0,0-2.69-.28m-23,19.56a5.79,5.79,0,0,1-4.64-1.95,8.28,8.28,0,0,1-1.67-5.51A8.61,8.61,0,0,1,186.23,74a5.7,5.7,0,0,1,4.6-2,5.61,5.61,0,0,1,4.48,1.89,8.44,8.44,0,0,1,1.63,5.61,9,9,0,0,1-1.54,5.68,5.48,5.48,0,0,1-4.53,1.91m.24-19.56c-3.78,0-6.78,1.11-8.92,3.29S179,76,179,79.79a11.69,11.69,0,0,0,3.15,8.58,11.41,11.41,0,0,0,8.45,3.17,11.64,11.64,0,0,0,8.74-3.34,12.31,12.31,0,0,0,3.22-8.9c0-3.64-1-6.55-3-8.64s-4.83-3.15-8.39-3.15M170.69,72v-4h-5.39V91h5.39V79.26A8.17,8.17,0,0,1,172,74.39a4.12,4.12,0,0,1,3.49-1.84,6.35,6.35,0,0,1,1.62.24,4.1,4.1,0,0,1,1.26.51l.23.16V68l-.09,0a5.59,5.59,0,0,0-2.11-.32,5.53,5.53,0,0,0-3.6,1.29A7.3,7.3,0,0,0,170.75,72h-.06Zm-15-4.52a13.3,13.3,0,0,0-6.56,1.58,10.63,10.63,0,0,0-4.32,4.45,14.16,14.16,0,0,0-1.49,6.59,12.16,12.16,0,0,0,1.44,5.9,10.14,10.14,0,0,0,4,4.08,12,12,0,0,0,5.89,1.43,12.91,12.91,0,0,0,6.5-1.52l.07,0V85l-.23.17a10.13,10.13,0,0,1-2.64,1.37,8,8,0,0,1-2.58.5,6.64,6.64,0,0,1-5-2,7.65,7.65,0,0,1-1.86-5.45,7.94,7.94,0,0,1,1.94-5.59A6.61,6.61,0,0,1,155.86,72,8.66,8.66,0,0,1,161,73.76l.23.16v-5.2l-.07,0a8.93,8.93,0,0,0-2.49-.84,14.9,14.9,0,0,0-3-.32m-16.08.55h-5.39V91h5.39V68.06Zm-2.64-9.76a3.25,3.25,0,0,0-2.3.9,3,3,0,0,0-1,2.25,2.89,2.89,0,0,0,1,2.2,3.28,3.28,0,0,0,2.31.88,3.32,3.32,0,0,0,2.32-.88,2.87,2.87,0,0,0,1-2.21,3,3,0,0,0-.94-2.22,3.21,3.21,0,0,0-2.34-.92m-13.45,8.07V91H129V59h-7.61l-9.68,23.75L102.29,59H94.36V91h5.17V66.37h.18L109.63,91h3.9l9.76-24.61h.18Z"/><path class="cls-2" d="M50.36,73.68H25V48.31H50.36Z"/><path class="cls-3" d="M78.36,73.68H53V48.31H78.36V73.68Z"/><path class="cls-4" d="M50.36,101.69H25V76.32H50.36Z"/><path class="cls-5" d="M78.36,101.69H53V76.32H78.36v25.36Z"/></svg>