<?xml version="1.0" encoding="utf-8"?>
<!-- Generator: Adobe Illustrator 16.0.0, SVG Export Plug-In . SVG Version: 6.00 Build 0)  -->
<!DOCTYPE svg PUBLIC "-//W3C//DTD SVG 1.1//EN" "http://www.w3.org/Graphics/SVG/1.1/DTD/svg11.dtd">
<svg version="1.1" id="Layer_1" xmlns="http://www.w3.org/2000/svg" xmlns:xlink="http://www.w3.org/1999/xlink" x="0px" y="0px"
	 width="300px" height="150px" viewBox="0 0 300 150" enable-background="new 0 0 300 150" xml:space="preserve">
<path fill="#706D6E" d="M275,72.458v-4.396h-5.46v-6.835l-0.184,0.057l-5.128,1.569l-0.102,0.03v5.179h-8.094v-2.885
	c0-1.343,0.3-2.372,0.892-3.057c0.589-0.677,1.429-1.021,2.502-1.021c0.771,0,1.569,0.182,2.372,0.54l0.202,0.09v-4.63l-0.095-0.035
	c-0.75-0.269-1.77-0.405-3.033-0.405c-1.592,0-3.039,0.347-4.301,1.033c-1.263,0.688-2.256,1.67-2.952,2.918
	c-0.693,1.247-1.045,2.687-1.045,4.281v3.172h-3.802v4.396h3.802V90.98h5.458V72.458h8.094v11.77c0,4.848,2.286,7.305,6.796,7.305
	c0.741,0,1.521-0.087,2.317-0.257c0.811-0.175,1.363-0.349,1.688-0.535L275,90.698v-4.437l-0.222,0.146
	c-0.297,0.197-0.665,0.358-1.098,0.479c-0.435,0.122-0.797,0.184-1.078,0.184c-1.057,0-1.838-0.285-2.323-0.847
	c-0.49-0.567-0.739-1.559-0.739-2.945v-10.82H275L275,72.458z M234.586,87.07c-1.98,0-3.543-0.656-4.644-1.95
	c-1.107-1.301-1.668-3.154-1.668-5.51c0-2.431,0.561-4.333,1.669-5.656c1.101-1.314,2.647-1.982,4.598-1.982
	c1.893,0,3.399,0.637,4.479,1.895c1.084,1.265,1.635,3.151,1.635,5.61c0,2.489-0.518,4.4-1.538,5.68
	C238.103,86.426,236.578,87.07,234.586,87.07 M234.828,67.51c-3.779,0-6.78,1.107-8.921,3.292c-2.139,2.184-3.224,5.207-3.224,8.985
	c0,3.588,1.059,6.475,3.147,8.577c2.088,2.104,4.929,3.169,8.444,3.169c3.664,0,6.605-1.122,8.745-3.337
	c2.139-2.212,3.223-5.206,3.223-8.896c0-3.645-1.017-6.552-3.023-8.641C241.212,68.569,238.389,67.51,234.828,67.51 M213.885,67.51
	c-2.57,0-4.697,0.657-6.321,1.954c-1.635,1.304-2.464,3.015-2.464,5.084c0,1.076,0.179,2.032,0.531,2.842
	c0.354,0.813,0.902,1.529,1.631,2.131c0.723,0.596,1.839,1.22,3.317,1.855c1.243,0.512,2.17,0.944,2.759,1.285
	c0.575,0.334,0.984,0.67,1.215,0.997c0.225,0.32,0.338,0.759,0.338,1.3c0,1.539-1.153,2.288-3.525,2.288
	c-0.881,0-1.885-0.184-2.984-0.546c-1.092-0.356-2.122-0.879-3.055-1.549l-0.227-0.163v5.255l0.083,0.039
	c0.772,0.356,1.746,0.656,2.894,0.894c1.145,0.236,2.186,0.356,3.09,0.356c2.789,0,5.036-0.66,6.675-1.965
	c1.649-1.312,2.485-3.063,2.485-5.205c0-1.545-0.449-2.87-1.337-3.938c-0.881-1.06-2.41-2.032-4.543-2.893
	c-1.699-0.682-2.787-1.248-3.236-1.683c-0.433-0.42-0.653-1.014-0.653-1.765c0-0.667,0.271-1.201,0.829-1.633
	c0.561-0.435,1.343-0.655,2.322-0.655c0.909,0,1.84,0.144,2.765,0.425c0.925,0.282,1.737,0.659,2.415,1.12l0.223,0.152v-4.984
	l-0.086-0.037c-0.625-0.269-1.449-0.498-2.451-0.684C215.576,67.603,214.672,67.51,213.885,67.51 M190.872,87.07
	c-1.98,0-3.543-0.656-4.643-1.95c-1.108-1.301-1.668-3.153-1.668-5.51c0-2.431,0.561-4.333,1.669-5.656
	c1.101-1.314,2.646-1.982,4.598-1.982c1.892,0,3.398,0.637,4.478,1.895c1.085,1.265,1.635,3.151,1.635,5.61
	c0,2.489-0.518,4.4-1.538,5.68C194.389,86.426,192.865,87.07,190.872,87.07 M191.115,67.51c-3.78,0-6.782,1.107-8.921,3.292
	s-3.224,5.207-3.224,8.985c0,3.59,1.059,6.475,3.146,8.577c2.088,2.104,4.93,3.169,8.445,3.169c3.663,0,6.605-1.122,8.745-3.337
	c2.139-2.212,3.223-5.206,3.223-8.896c0-3.645-1.018-6.552-3.024-8.641C197.498,68.569,194.675,67.51,191.115,67.51 M170.686,72.031
	v-3.969h-5.391V90.98h5.391V79.257c0-1.994,0.452-3.631,1.344-4.869c0.881-1.222,2.055-1.841,3.487-1.841
	c0.485,0,1.03,0.08,1.621,0.238c0.584,0.157,1.007,0.328,1.257,0.508l0.227,0.164v-5.435l-0.087-0.037
	c-0.503-0.213-1.213-0.321-2.111-0.321c-1.354,0-2.567,0.436-3.605,1.292c-0.912,0.753-1.57,1.786-2.074,3.074H170.686z
	 M155.641,67.51c-2.474,0-4.68,0.53-6.556,1.576c-1.88,1.048-3.334,2.544-4.324,4.446c-0.985,1.897-1.485,4.115-1.485,6.586
	c0,2.165,0.485,4.152,1.443,5.904c0.959,1.754,2.316,3.126,4.034,4.078c1.716,0.951,3.698,1.433,5.894,1.433
	c2.562,0,4.75-0.512,6.504-1.522l0.07-0.04v-4.939l-0.227,0.165c-0.794,0.579-1.682,1.041-2.637,1.374
	c-0.953,0.332-1.822,0.5-2.584,0.5c-2.115,0-3.813-0.661-5.046-1.967c-1.235-1.307-1.862-3.141-1.862-5.45
	c0-2.323,0.653-4.205,1.94-5.594c1.284-1.384,2.985-2.087,5.056-2.087c1.772,0,3.499,0.6,5.133,1.785l0.226,0.164v-5.204
	l-0.072-0.041c-0.615-0.344-1.454-0.628-2.494-0.844C157.617,67.618,156.604,67.51,155.641,67.51 M139.562,68.062h-5.391V90.98
	h5.391V68.062L139.562,68.062z M136.922,58.299c-0.888,0-1.661,0.302-2.297,0.9c-0.638,0.601-0.962,1.356-0.962,2.248
	c0,0.878,0.32,1.62,0.952,2.204c0.628,0.583,1.405,0.878,2.307,0.878s1.682-0.295,2.317-0.877c0.64-0.585,0.964-1.327,0.964-2.205
	c0-0.861-0.316-1.609-0.938-2.224C138.645,58.61,137.855,58.299,136.922,58.299 M123.471,66.371V90.98h5.502V59h-7.615
	l-9.679,23.753L102.287,59h-7.925v31.979h5.17V66.369h0.177l9.918,24.612h3.902l9.764-24.609H123.471L123.471,66.371z"/>
<path fill="#F1511B" d="M50.361,73.675H25V48.313h25.361V73.675z"/>
<path fill="#80CC28" d="M78.363,73.675H53.002V48.313h25.361V73.675L78.363,73.675z"/>
<path fill="#00ADEF" d="M50.36,101.687H25V76.325h25.36V101.687z"/>
<path fill="#FBBC09" d="M78.363,101.687H53.002V76.325h25.361V101.687L78.363,101.687z"/>
</svg>
