<?xml version="1.0" encoding="utf-8"?>
<!-- Generator: Adobe Illustrator 16.0.0, SVG Export Plug-In . SVG Version: 6.00 Build 0)  -->
<!DOCTYPE svg PUBLIC "-//W3C//DTD SVG 1.1//EN" "http://www.w3.org/Graphics/SVG/1.1/DTD/svg11.dtd">
<svg version="1.1" id="Layer_1" xmlns="http://www.w3.org/2000/svg" xmlns:xlink="http://www.w3.org/1999/xlink" x="0px" y="0px"
	 width="300px" height="150px" viewBox="0 0 300 150" enable-background="new 0 0 300 150" xml:space="preserve">
<path fill="#314358" d="M267.765,86.613c-3.996,0-7.233,3.172-7.233,7.085c0,3.909,3.237,7.082,7.233,7.082
	c3.997,0,7.235-3.173,7.235-7.082C275,89.785,271.762,86.613,267.765,86.613 M228.15,90.644l0.012-41.542h-4.371
	c0,0-7.26,2.626-12.488,3.184v7.847h3.302c1.061,0,1.507,0.453,1.522,1.445v29.066c0,1.024-0.603,1.586-1.576,1.649
	c-0.834,0.056-2.703,0.176-2.703,0.176v7.849h20.584v-7.849c0,0-1.872-0.12-2.704-0.176C228.752,92.229,228.15,91.668,228.15,90.644
	z M269.757,70.025c-0.401-8.754-12.258-9.157-18.454-3.244l-1.132-3.39h-14.329v8.023l3.005-0.004c1.065,0,1.459,0.452,1.474,1.443
	v17.79c0,1.024-0.604,1.586-1.578,1.649c-0.834,0.056-2.513,0.175-2.513,0.175v7.85h20.175v-7.85c0,0-1.668-0.12-2.5-0.175
	c-0.976-0.063-1.58-0.624-1.58-1.649l-0.004-12.062c0-2.261,0.518-6.034,4.508-6.999c0.491,3.772,4.137,4.899,5.915,4.899
	C267.233,76.481,269.757,73.12,269.757,70.025L269.757,70.025z M193.742,62.9c-3.055,0.134-6.278,1.303-8.619,3.338V49.101h-4.324
	c0,0-7.072,2.512-12.547,3.184l-0.179,7.847l3.46,0.005c1.062,0,1.521,0.453,1.535,1.445v38.739l9.889-0.01l1.415-3.179
	c0.302,0.17,4.84,4.435,12.085,3.582c9.123-1.076,13.914-8.299,13.914-19.259C210.372,75.706,208.608,62.251,193.742,62.9
	L193.742,62.9z M191.913,91.753c-1.681,0.123-4.79-0.159-6.79-3.669v-5.142l0.002-0.003h-0.002v-5.945
	c0-2.569,2.375-4.826,6.049-4.962c3.72-0.138,7.014,2.402,7.014,9.574C198.186,91.283,193.941,91.602,191.913,91.753L191.913,91.753
	z M165.265,90.675V79.474c0-3.991-0.048-8.117-2.69-11.485c-2.42-3.082-6.435-5.342-12.531-5.048
	c-4.049,0.195-8.367,2.077-10.751,5.299l-0.376,0.475l-0.229-0.275c-2.451-3.54-6.364-5.792-12.46-5.499
	c-4.05,0.195-8.368,2.077-10.752,5.299l-0.358-4.811h-14.939v8.024l3.438,0.051c1.063,0,1.512,0.453,1.527,1.445l0,15.703v2.023
	c0,1.024-0.603,1.586-1.576,1.65c-0.834,0.055-2.522,0.174-2.522,0.174v7.849l20.201,0.007V92.5c0,0-1.592-0.113-2.524-0.175
	c-0.974-0.066-1.574-0.625-1.574-1.65c0,0,0.016-10.022,0.016-12.03c0-2.004,1.659-6.118,6.925-6.118
	c4.249,0,5.119,2.589,5.119,5.602c0,3.012,0.005,12.548,0.005,12.548c0,1.024-0.602,1.585-1.575,1.648
	c-0.834,0.057-2.523,0.177-2.523,0.177v7.846h20.18V92.5c0,0-1.591-0.113-2.523-0.175c-0.974-0.066-1.566-0.625-1.566-1.65h-0.03
	c0,0,0.018-10.022,0.018-12.03c0-2.004,1.479-6.118,6.746-6.118c4.248,0,5.312,2.589,5.312,5.602v10.522l-0.003,2.024
	c0,1.024-0.604,1.585-1.575,1.648c-0.834,0.057-2.523,0.177-2.523,0.177v7.846h20.206V92.5c0,0-1.591-0.113-2.522-0.175
	C165.855,92.259,165.265,91.699,165.265,90.675z M93.616,90.752V63.43H76.827v8.022l3.235,0c1.065,0,1.512,0.453,1.526,1.445
	l-0.017,12.463c0,1.221-0.88,5.81-6.998,5.924c-4.168,0.081-5.044-2.378-5.044-5.602V63.43H57.167v22.889
	c0,5.792,2.645,14.903,14.987,14.57c4.052-0.111,8.694-2.149,11.106-5.138l0.101,4.603h13.776v-7.848c0,0-1.114-0.087-1.949-0.143
	C94.214,92.301,93.616,91.777,93.616,90.752L93.616,90.752z M47.85,91.661c-4.102,0.105-4.896-2.821-4.931-4.945V71.973h9.56V63.43
	h-9.521V50.731h-7.507c-0.123,0-0.338,0.106-0.368,0.375c-0.44,3.91-2.311,10.775-10.083,13.517v7.35h5.916v15.518
	c0,5.611,3.5,13.582,14.66,13.394c3.766-0.062,7.95-1.606,8.876-2.938l-2.464-7.152C51.033,91.238,49.212,91.625,47.85,91.661
	L47.85,91.661z"/>
</svg>
