<svg id="Layer_1" data-name="Layer 1" xmlns="http://www.w3.org/2000/svg" viewBox="0 0 300 150"><defs><style>.cls-1{fill:#fff;}</style></defs><title>tumblr-white</title><path class="cls-1" d="M267.77,86.61A7.09,7.09,0,1,0,275,93.7a7.16,7.16,0,0,0-7.23-7.08m-39.62,4V49.1h-4.37s-7.26,2.63-12.49,3.18v7.85h3.3c1.06,0,1.51.45,1.52,1.44V90.64a1.52,1.52,0,0,1-1.58,1.65l-2.7.18v7.85h20.58V92.47l-2.7-.18A1.53,1.53,0,0,1,228.15,90.64ZM269.76,70c-.4-8.75-12.26-9.16-18.45-3.24l-1.13-3.39H235.84v8h3c1.07,0,1.46.45,1.47,1.44V90.64a1.53,1.53,0,0,1-1.58,1.65l-2.51.18v7.85H256.4V92.47l-2.5-.18a1.53,1.53,0,0,1-1.58-1.65V78.58c0-2.26.52-6,4.51-7,.49,3.77,4.14,4.9,5.92,4.9a6.66,6.66,0,0,0,7-6.46Zm-76-7.12a14.4,14.4,0,0,0-8.62,3.34V49.1H180.8a72.41,72.41,0,0,1-12.55,3.18l-.18,7.85h3.46c1.06,0,1.52.45,1.54,1.44v38.74H183l1.41-3.18a16.09,16.09,0,0,0,12.09,3.58c9.12-1.08,13.91-8.3,13.91-19.26,0-5.75-1.76-19.2-16.63-18.55Zm-1.83,28.85a6.89,6.89,0,0,1-6.79-3.67V82.94h0V77c0-2.57,2.38-4.83,6-5s7,2.4,7,9.57c0,9.68-4.25,10-6.27,10.15Zm-26.65-1.08V79.47c0-4,0-8.12-2.69-11.49-2.42-3.08-6.43-5.34-12.53-5-4,.19-8.37,2.08-10.75,5.3l-.38.47-.23-.28c-2.45-3.54-6.36-5.79-12.46-5.5-4.05.19-8.37,2.08-10.75,5.3l-.36-4.81H100.18v8l3.44.05c1.06,0,1.51.45,1.53,1.44V90.67a1.53,1.53,0,0,1-1.58,1.65L101,92.5v7.85h20.2V92.5l-2.52-.18a1.52,1.52,0,0,1-1.57-1.65s0-10,0-12,1.66-6.12,6.93-6.12c4.25,0,5.12,2.59,5.12,5.6s0,12.55,0,12.55a1.52,1.52,0,0,1-1.57,1.65l-2.52.18v7.85H145.3V92.5l-2.52-.18a1.52,1.52,0,0,1-1.57-1.65h0s0-10,0-12,1.48-6.12,6.75-6.12c4.25,0,5.31,2.59,5.31,5.6V90.67a1.52,1.52,0,0,1-1.57,1.65l-2.52.18v7.85h20.21V92.5l-2.52-.18A1.52,1.52,0,0,1,165.26,90.68Zm-71.65.08V63.43H76.83v8h3.24c1.07,0,1.51.45,1.53,1.44l0,12.46c0,1.22-.88,5.81-7,5.92-4.17.08-5-2.38-5-5.6V63.43H57.17V86.32c0,5.79,2.65,14.9,15,14.57,4.05-.11,8.69-2.15,11.11-5.14l.1,4.6H97.14V92.51l-1.95-.14a1.49,1.49,0,0,1-1.57-1.61Zm-45.77.91c-4.1.11-4.9-2.82-4.93-4.94V72h9.56V63.43H43V50.73H35.45a.4.4,0,0,0-.37.38C34.64,55,32.77,61.88,25,64.62V72h5.92V87.49c0,5.61,3.5,13.58,14.66,13.39,3.77-.06,8-1.61,8.88-2.94L52,90.79a12.42,12.42,0,0,1-4.14.87Z"/></svg>