<?xml version="1.0" encoding="utf-8"?>
<!-- Generator: Adobe Illustrator 16.0.0, SVG Export Plug-In . SVG Version: 6.00 Build 0)  -->
<!DOCTYPE svg PUBLIC "-//W3C//DTD SVG 1.1//EN" "http://www.w3.org/Graphics/SVG/1.1/DTD/svg11.dtd">
<svg version="1.1" id="Layer_1" xmlns="http://www.w3.org/2000/svg" xmlns:xlink="http://www.w3.org/1999/xlink" x="0px" y="0px"
	 width="300px" height="150px" viewBox="0 0 300 150" enable-background="new 0 0 300 150" xml:space="preserve">
<path fill="#5DA8DC" stroke="#5DA8DC" stroke-width="0.5" d="M165.523,36.517V36.5h4.329l1.58,0.316
	c1.055,0.206,2.013,0.474,2.872,0.808c0.86,0.333,1.692,0.722,2.497,1.166c0.806,0.444,1.535,0.896,2.189,1.356
	c0.649,0.455,1.232,0.938,1.748,1.448c0.511,0.516,1.307,0.649,2.389,0.4c1.083-0.25,2.248-0.596,3.497-1.041
	c1.248-0.444,2.482-0.943,3.703-1.499c1.222-0.555,1.964-0.907,2.231-1.056c0.262-0.156,0.399-0.239,0.416-0.25l0.017-0.025
	l0.084-0.042l0.082-0.041l0.083-0.042l0.082-0.042l0.018-0.024l0.023-0.017l0.025-0.017l0.017-0.024l0.083-0.025l0.083-0.016
	l-0.016,0.125l-0.025,0.125l-0.042,0.125l-0.041,0.125l-0.043,0.083l-0.042,0.083l-0.041,0.125
	c-0.028,0.083-0.056,0.194-0.084,0.333c-0.027,0.139-0.291,0.694-0.791,1.665c-0.499,0.971-1.123,1.956-1.872,2.955
	c-0.75,0.999-1.421,1.753-2.015,2.264c-0.6,0.516-0.996,0.877-1.191,1.082c-0.193,0.211-0.43,0.405-0.707,0.583l-0.416,0.274
	l-0.084,0.042l-0.082,0.041l-0.016,0.025l-0.025,0.017l-0.025,0.017l-0.016,0.025l-0.082,0.042l-0.084,0.042l-0.017,0.024
	l-0.024,0.017l-0.024,0.017l-0.017,0.024l-0.016,0.025l-0.025,0.017l-0.025,0.017l-0.016,0.025h0.416l2.331-0.5
	c1.554-0.333,3.038-0.735,4.453-1.207l2.247-0.75l0.249-0.083l0.124-0.042l0.084-0.042l0.083-0.041l0.084-0.042l0.082-0.042
	l0.167-0.025l0.167-0.017v0.167l-0.043,0.017l-0.041,0.024l-0.018,0.025l-0.024,0.017l-0.024,0.017l-0.017,0.025l-0.016,0.024
	l-0.024,0.017l-0.024,0.017l-0.018,0.024l-0.017,0.026l-0.024,0.017l-0.041,0.083l-0.043,0.083l-0.024,0.017
	c-0.011,0.017-0.363,0.489-1.057,1.416c-0.694,0.932-1.069,1.404-1.123,1.415c-0.056,0.017-0.134,0.1-0.233,0.25
	c-0.095,0.156-0.684,0.774-1.767,1.856c-1.081,1.083-2.142,2.045-3.179,2.889c-1.044,0.849-1.571,1.892-1.582,3.13
	c-0.016,1.232-0.08,2.625-0.191,4.179c-0.11,1.554-0.318,3.232-0.624,5.036c-0.306,1.804-0.777,3.843-1.415,6.119
	c-0.639,2.275-1.415,4.495-2.331,6.659c-0.915,2.164-1.872,4.107-2.872,5.827c-0.998,1.721-1.914,3.177-2.747,4.37
	c-0.832,1.193-1.679,2.317-2.538,3.371c-0.86,1.055-1.947,2.242-3.264,3.562c-1.32,1.316-2.042,2.037-2.164,2.165
	c-0.127,0.122-0.672,0.577-1.632,1.365c-0.955,0.793-1.981,1.587-3.079,2.38c-1.094,0.789-2.099,1.446-3.015,1.974
	c-0.915,0.527-2.02,1.129-3.312,1.806c-1.288,0.684-2.68,1.315-4.179,1.897c-1.498,0.583-3.08,1.124-4.745,1.624
	c-1.665,0.498-3.274,0.889-4.829,1.165c-1.554,0.276-3.315,0.514-5.286,0.708l-2.955,0.291v0.041h-5.411v-0.043l-0.708-0.041
	c-0.471-0.027-0.859-0.055-1.166-0.083c-0.305-0.027-1.457-0.18-3.455-0.457s-3.565-0.556-4.703-0.832s-2.831-0.804-5.078-1.581
	c-2.248-0.777-4.171-1.562-5.769-2.356c-1.593-0.788-2.592-1.288-2.997-1.499c-0.4-0.205-0.849-0.459-1.349-0.765l-0.749-0.458
	l-0.017-0.025l-0.024-0.016l-0.025-0.016l-0.017-0.025l-0.083-0.041l-0.084-0.043l-0.016-0.024l-0.025-0.017l-0.025-0.017
	l-0.017-0.024l-0.017-0.024l-0.025-0.017h-0.042v-0.166l0.083,0.016l0.083,0.025l0.375,0.042c0.25,0.026,0.929,0.069,2.04,0.124
	c1.11,0.056,2.289,0.056,3.538,0c1.249-0.055,2.525-0.18,3.829-0.375c1.305-0.193,2.844-0.527,4.62-0.998
	c1.776-0.473,3.407-1.031,4.895-1.682c1.482-0.655,2.536-1.143,3.164-1.465c0.622-0.316,1.57-0.904,2.846-1.766l1.915-1.29
	l0.017-0.024l0.025-0.018l0.025-0.015l0.016-0.026l0.017-0.024l0.024-0.017l0.025-0.016l0.016-0.025l0.083-0.024l0.083-0.017
	l0.017-0.083l0.024-0.083l0.025-0.016l0.016-0.024l-0.666-0.042c-0.444-0.028-0.875-0.057-1.29-0.083
	c-0.416-0.028-1.068-0.152-1.956-0.374c-0.888-0.223-1.846-0.556-2.872-1c-1.027-0.443-2.026-0.971-2.997-1.581
	s-1.673-1.118-2.106-1.522c-0.427-0.4-0.982-0.967-1.665-1.699c-0.678-0.736-1.266-1.496-1.765-2.271
	c-0.5-0.777-0.977-1.674-1.432-2.688l-0.691-1.517l-0.042-0.124l-0.042-0.125l-0.024-0.083l-0.017-0.084l0.125,0.017l0.125,0.024
	l0.916,0.126c0.61,0.083,1.568,0.11,2.872,0.083c1.304-0.028,2.206-0.083,2.705-0.167c0.5-0.083,0.805-0.139,0.916-0.167
	l0.167-0.041l0.208-0.043l0.208-0.041l0.017-0.025l0.025-0.016l0.025-0.017l0.017-0.025l-0.167-0.042l-0.167-0.042l-0.167-0.041
	l-0.167-0.042l-0.167-0.041c-0.111-0.028-0.305-0.084-0.583-0.168c-0.277-0.083-1.027-0.389-2.248-0.916
	c-1.221-0.526-2.192-1.041-2.914-1.54c-0.723-0.501-1.414-1.048-2.064-1.64c-0.65-0.6-1.362-1.371-2.14-2.314
	c-0.777-0.943-1.47-2.039-2.081-3.288c-0.61-1.249-1.068-2.441-1.374-3.579c-0.304-1.131-0.504-2.287-0.6-3.454l-0.15-1.748
	l0.083,0.017l0.083,0.024l0.083,0.042l0.083,0.042l0.083,0.042l0.083,0.042l1.29,0.583c0.86,0.389,1.929,0.722,3.205,0.999
	c1.276,0.278,2.04,0.431,2.289,0.458l0.375,0.042h0.749l-0.016-0.025l-0.025-0.016l-0.025-0.017l-0.017-0.024l-0.017-0.026
	l-0.025-0.017l-0.025-0.016l-0.017-0.025l-0.083-0.042l-0.083-0.042l-0.017-0.024l-0.025-0.017l-0.025-0.017l-0.017-0.025
	l-0.083-0.042l-0.083-0.042l-0.016-0.025c-0.017-0.011-0.255-0.188-0.717-0.532c-0.455-0.35-0.932-0.802-1.431-1.357
	c-0.5-0.555-0.999-1.138-1.499-1.748c-0.5-0.612-0.947-1.266-1.332-1.956c-0.389-0.694-0.799-1.576-1.232-2.646
	c-0.428-1.065-0.752-2.14-0.975-3.222c-0.222-1.082-0.346-2.151-0.375-3.205c-0.028-1.054,0-1.956,0.084-2.705
	c0.083-0.75,0.25-1.596,0.499-2.539c0.25-0.943,0.611-1.942,1.083-2.997l0.707-1.582l0.042-0.125l0.042-0.125l0.024-0.017
	l0.017-0.025l0.017-0.025l0.025-0.017l0.024,0.017l0.017,0.025l0.016,0.025l0.025,0.017l0.025,0.017l0.017,0.024l0.017,0.025
	l0.025,0.017l0.042,0.083l0.041,0.083l0.024,0.017l0.017,0.024l1.123,1.249c0.75,0.833,1.637,1.762,2.665,2.789
	c1.026,1.026,1.595,1.56,1.706,1.598c0.111,0.044,0.25,0.172,0.416,0.382c0.167,0.206,0.722,0.697,1.665,1.473
	c0.944,0.777,2.178,1.679,3.704,2.706c1.526,1.026,3.219,2.039,5.078,3.038c1.859,0.999,3.857,1.9,5.994,2.705
	c2.137,0.805,3.635,1.332,4.495,1.581c0.86,0.25,2.331,0.569,4.412,0.957c2.081,0.389,3.648,0.638,4.703,0.749
	c1.054,0.111,1.776,0.175,2.164,0.191l0.583,0.017l-0.017-0.125l-0.024-0.125l-0.167-1.041c-0.111-0.694-0.166-1.666-0.166-2.914
	c0-1.249,0.097-2.4,0.291-3.454c0.195-1.055,0.486-2.123,0.875-3.204c0.389-1.082,0.769-1.951,1.141-2.605
	c0.378-0.649,0.872-1.391,1.482-2.222s1.4-1.693,2.372-2.58c0.971-0.888,2.08-1.679,3.329-2.373s2.4-1.221,3.454-1.581
	c1.055-0.361,1.942-0.597,2.664-0.707C165.162,36.597,165.523,36.533,165.523,36.517z"/>
</svg>
