<svg id="Layer_1" data-name="Layer 1" xmlns="http://www.w3.org/2000/svg" viewBox="0 0 300 150"><defs><style>.cls-1{fill:#fff;}</style></defs><title>twitter-white</title><path class="cls-1" d="M165.52,36.52v0h4.33l1.58.32a16.84,16.84,0,0,1,2.87.81,20.46,20.46,0,0,1,2.5,1.17A23.59,23.59,0,0,1,179,40.15a13.52,13.52,0,0,1,1.75,1.45,2.43,2.43,0,0,0,2.39.4,31.77,31.77,0,0,0,3.5-1q1.87-.67,3.7-1.5t2.23-1.06l.42-.25,0,0,.08,0,.08,0,.08,0,.08,0,0,0,0,0,0,0,0,0,.08,0,.08,0,0,.13,0,.13,0,.13,0,.13,0,.08,0,.08,0,.13a2.83,2.83,0,0,0-.08.33,13.71,13.71,0,0,1-.79,1.67,20.8,20.8,0,0,1-1.87,3,14.57,14.57,0,0,1-2,2.26q-.9.77-1.19,1.08a3.56,3.56,0,0,1-.71.58l-.42.27-.08,0-.08,0,0,0,0,0,0,0,0,0-.08,0-.08,0,0,0,0,0,0,0,0,0,0,0,0,0,0,0,0,0h.42l2.33-.5a41.63,41.63,0,0,0,4.45-1.21l2.25-.75.25-.08.12,0,.08,0,.08,0,.08,0,.08,0,.17,0,.17,0v.17l0,0,0,0,0,0,0,0,0,0,0,0,0,0,0,0,0,0,0,0,0,0,0,0,0,.08,0,.08,0,0-1.06,1.42a12,12,0,0,1-1.12,1.42c-.06,0-.13.1-.23.25a24,24,0,0,1-1.77,1.86,41.74,41.74,0,0,1-3.18,2.89A3.94,3.94,0,0,0,186.81,57q0,1.85-.19,4.18t-.62,5a60.35,60.35,0,0,1-1.41,6.12A55.71,55.71,0,0,1,182.25,79a51.58,51.58,0,0,1-2.87,5.83q-1.5,2.58-2.75,4.37t-2.54,3.37q-1.29,1.58-3.26,3.56l-2.16,2.17q-.19.18-1.63,1.36T164,102a35.71,35.71,0,0,1-3,2q-1.37.79-3.31,1.81a39,39,0,0,1-4.18,1.9q-2.25.87-4.74,1.62a43.3,43.3,0,0,1-4.83,1.17q-2.33.41-5.29.71l-3,.29v0h-5.41v0l-.71,0-1.17-.08q-.46,0-3.46-.46t-4.7-.83q-1.71-.41-5.08-1.58a49.3,49.3,0,0,1-5.77-2.36l-3-1.5q-.6-.31-1.35-.76l-.75-.46,0,0,0,0,0,0,0,0-.08,0-.08,0,0,0,0,0,0,0,0,0,0,0,0,0h0v-.17l.08,0,.08,0,.38,0c.25,0,.93.07,2,.12s2.29.06,3.54,0a36.85,36.85,0,0,0,3.83-.37,43,43,0,0,0,4.62-1,34.11,34.11,0,0,0,4.89-1.68q2.22-1,3.16-1.46a30.3,30.3,0,0,0,2.85-1.77l1.91-1.29,0,0,0,0h0l0,0,0,0,0,0,0,0,0,0,.08,0,.08,0,0-.08,0-.08,0,0,0,0-.67,0L129.68,95a12.53,12.53,0,0,1-2-.37,18.86,18.86,0,0,1-2.87-1,22,22,0,0,1-3-1.58,14.83,14.83,0,0,1-2.11-1.52q-.64-.6-1.67-1.7a16.71,16.71,0,0,1-1.76-2.27,20.44,20.44,0,0,1-1.43-2.69l-.69-1.52,0-.12,0-.12,0-.08,0-.08.13,0,.13,0,.92.13a20.51,20.51,0,0,0,2.87.08,22.09,22.09,0,0,0,2.71-.17l.92-.17.17,0,.21,0,.21,0,0,0,0,0,0,0,0,0-.17,0-.17,0-.17,0-.17,0-.17,0-.58-.17q-.42-.12-2.25-.92a17.16,17.16,0,0,1-2.91-1.54,19.88,19.88,0,0,1-2.06-1.64,23.71,23.71,0,0,1-2.14-2.31,16.65,16.65,0,0,1-2.08-3.29A20.09,20.09,0,0,1,108.16,68a19.45,19.45,0,0,1-.6-3.45l-.15-1.75.08,0,.08,0,.08,0,.08,0,.08,0,.08,0,1.29.58a16.22,16.22,0,0,0,3.21,1q1.91.42,2.29.46l.38,0h.75l0,0,0,0,0,0,0,0,0,0,0,0,0,0,0,0-.08,0-.08,0,0,0,0,0,0,0,0,0-.08,0-.08,0,0,0-.72-.53a10.92,10.92,0,0,1-1.43-1.36q-.75-.83-1.5-1.75a13.46,13.46,0,0,1-1.33-2A23.72,23.72,0,0,1,109,56.42a18.82,18.82,0,0,1-1-3.22,18.45,18.45,0,0,1-.37-3.21,20,20,0,0,1,.08-2.71,17.71,17.71,0,0,1,.5-2.54,19.82,19.82,0,0,1,1.08-3l.71-1.58,0-.12,0-.12,0,0,0,0,0,0,0,0,0,0,0,0,0,0,0,0,0,0,0,0,0,0,0,0,0,.08,0,.08,0,0,0,0,1.12,1.25q1.13,1.25,2.67,2.79a15.55,15.55,0,0,0,1.71,1.6,1.22,1.22,0,0,1,.42.38,16.92,16.92,0,0,0,1.67,1.47q1.42,1.17,3.7,2.71t5.08,3a49.54,49.54,0,0,0,6,2.71q3.21,1.21,4.49,1.58t4.41,1q3.12.58,4.7.75t2.16.19l.58,0,0-.12,0-.12-.17-1a19.59,19.59,0,0,1-.17-2.91,19.11,19.11,0,0,1,.29-3.45,20.42,20.42,0,0,1,.88-3.2,17.1,17.1,0,0,1,1.14-2.6A25.7,25.7,0,0,1,152.61,44,17.89,17.89,0,0,1,155,41.37,17.5,17.5,0,0,1,158.31,39a21.57,21.57,0,0,1,3.45-1.58,16,16,0,0,1,2.66-.71A10.13,10.13,0,0,0,165.52,36.52Z"/></svg>