<svg id="Layer_1" data-name="Layer 1" xmlns="http://www.w3.org/2000/svg" viewBox="0 0 300 150"><defs><style>.cls-1{fill:#fff;}</style></defs><title>vimeo-white</title><path class="cls-1" d="M244.8,110.85c-4.95-.33-8.8-1.86-11.83-4.72a17.11,17.11,0,0,1-3.29-4.44,2.18,2.18,0,0,0-.27-.47s-.34.18-.7.41c-.8.5-3.23,1.89-4.26,2.45a53.61,53.61,0,0,1-20.73,6.4,41.16,41.16,0,0,1-6.5.08,17,17,0,0,1-8.87-3.12,20.11,20.11,0,0,1-2.45-2.39,18.75,18.75,0,0,1-1.25-1.83l-.25-.44-.76.65a27.66,27.66,0,0,1-12.79,6.64,16.48,16.48,0,0,1-5.83.11,6.29,6.29,0,0,1-4.61-3.3c-1-2-1.27-4.72-.78-8.62a59.84,59.84,0,0,1,1.58-7.85,56.11,56.11,0,0,0,1.21-6.61,16.09,16.09,0,0,0,0-3.17c-.23-1.52-.79-2.4-1.8-2.8a3.76,3.76,0,0,0-1.72-.06c-1.87.49-4,2.76-6.48,6.79a37.55,37.55,0,0,0-5.72,16.17,43.19,43.19,0,0,0,0,5.32,15.5,15.5,0,0,0,.66,3.14l.27.8c0,.1,0,.1-1.68.07a27.56,27.56,0,0,1-4.3-.34c-4.62-.76-7.24-2.62-8.38-5.94a17.89,17.89,0,0,1-.65-7.38,35.33,35.33,0,0,1,1.15-6.71,40.45,40.45,0,0,0,1.13-5.8,17.76,17.76,0,0,0,0-3.35,3.05,3.05,0,0,0-2.43-2.78,3.92,3.92,0,0,0-1-.06,2.44,2.44,0,0,0-1,.18c-1.75.69-3.61,3-5.57,6.81a38.05,38.05,0,0,0-4,13.48,46.77,46.77,0,0,0,0,8.46,15.72,15.72,0,0,0,.7,3.35c0,.1,0,.1-1.46.07a21.57,21.57,0,0,1-5.21-.63,11,11,0,0,1-5.58-3.12,10.47,10.47,0,0,1-2.11-4c0-.18-.1-.36-.17-.53a4,4,0,0,0-.52.43,31.87,31.87,0,0,1-11.27,7.11,20.55,20.55,0,0,1-6.4,1.1c-3,0-5.12-1-6.51-3.14a7.93,7.93,0,0,1-1.14-2.64c-.54-2.09-.44-4.64.33-8.59.51-2.59,1-4.69,2.22-9,.86-3.1,1.45-5.27,1.81-6.69a5.34,5.34,0,0,0,.3-1.8c0-1.9-.79-3-2.11-3a1.3,1.3,0,0,0-.84.22,16.59,16.59,0,0,0-2.21,1.43l-1,.7-.14.43a47.72,47.72,0,0,1-4.57,9.16A117.78,117.78,0,0,1,66.57,99.2c-5.72,6.85-10.63,10.57-15,11.33a7.72,7.72,0,0,1-2.62,0c-2.68-.67-4.91-3.38-6.84-8.33-.16-.42-1-3.35-2.52-9.1q-1.24-4.62-2.5-9.24a26.42,26.42,0,0,0-2.69-6.55,3.63,3.63,0,0,0-2.27-1.79c-.3,0-.34,0-.8.21s-1.86,1.13-3,2l-.67.46a11.73,11.73,0,0,1-1.31-1.59L25,74.84c-.07-.08,0-.18.88-.94q2.87-2.57,5.71-5.18A43.65,43.65,0,0,1,37.43,64a8.32,8.32,0,0,1,4.4-1.74c3.46-.15,5.76,1.92,7,6.33a36.28,36.28,0,0,1,.89,4.61c1.19,7.46,1.69,10.15,2.47,13.26.93,3.7,2,5.85,3.06,6.4a1,1,0,0,0,.65.15c1.21-.09,2.93-2,5.29-5.77a26.24,26.24,0,0,0,3.54-7.59,6.75,6.75,0,0,0,.13-1.72,5.49,5.49,0,0,0-.1-1.5,3,3,0,0,0-1.59-2,4.05,4.05,0,0,0-2.12-.4,9.42,9.42,0,0,0-3.49.66c-.34.13-.55.18-.56.14a7.77,7.77,0,0,1,.28-.93,23.15,23.15,0,0,1,3.61-7,17.91,17.91,0,0,1,2.24-2.31,14.06,14.06,0,0,1,3.7-2.12A14.89,14.89,0,0,1,75.59,62c3.19,1,4.87,3.71,5.24,8.31l0,.44.25-.23,2.1-1.93c4.19-3.85,6.63-5.6,8.67-6.19a4.59,4.59,0,0,1,1.32-.17,5.82,5.82,0,0,1,5.56,2.56,10.23,10.23,0,0,1,1.47,6.35,24.57,24.57,0,0,1-.58,3.51c-.86,4.28-1.73,9.23-2.69,15.19a10.73,10.73,0,0,0-.3,2.77,5.18,5.18,0,0,0,1.26,3.71,2.63,2.63,0,0,0,.81.6,4,4,0,0,0,2.45.28,9.25,9.25,0,0,0,1.9-.91,24.79,24.79,0,0,0,3.83-2.95c0-.07.1-.71.19-1.43s.41-2.74.7-4.48c.56-3.36.85-5.35,1-7.06a34.58,34.58,0,0,0,.21-3.51c-.07-.94-.68-1.44-1.45-1.19a16.77,16.77,0,0,0-3.2,2c-.64.46-.78.54-.84.48-.32-.34-2.93-3.34-2.92-3.37a2.43,2.43,0,0,1,.31-.3c.46-.4,2.82-2.6,5.65-5.27a66.6,66.6,0,0,1,5.92-5.26,9.88,9.88,0,0,1,2.65-1.55,2.74,2.74,0,0,1,1.07-.12,6,6,0,0,1,1.07.09A5.74,5.74,0,0,1,120.92,65a11.83,11.83,0,0,1,1.89,4.9,16,16,0,0,1,0,3.75c-.05.29-.09.55-.09.59a2.06,2.06,0,0,0,.36-.47A25.33,25.33,0,0,1,128.59,68c.6-.46,2-1.39,2.61-1.74a21.46,21.46,0,0,1,9.85-2.82c3.15-.1,5.52.66,7.14,2.29a7.6,7.6,0,0,1,1.48,2.11,13.05,13.05,0,0,1,1.15,5.48l0,1.11.94-.83a16.2,16.2,0,0,0,1.53-1.51c.73-.85,2.15-2.31,3-3.1a19.84,19.84,0,0,1,11-5.44,19.55,19.55,0,0,1,3.38-.08,8.22,8.22,0,0,1,5.4,2.32c1.94,2,2.74,4.77,2.55,8.63A58.19,58.19,0,0,1,177,84.94c-1.46,6.44-1.67,7.79-1.5,9.55.13,1.39.43,2,1.14,2.38a3.89,3.89,0,0,0,1.9.41,2.52,2.52,0,0,0,1.24-.12,9.29,9.29,0,0,0,1.9-1c.4-.26.49-.34.47-.43a26.36,26.36,0,0,1-.12-3.41,24.14,24.14,0,0,1,2.61-10.5A32.85,32.85,0,0,1,189,75.14c5.41-6.49,11.86-10.49,19.11-11.87a31.12,31.12,0,0,1,9-.37c4.88.63,7.94,2.74,9.3,6.43a12.54,12.54,0,0,1,.73,4,10.19,10.19,0,0,1-.57,3.94c-1.06,3.22-3.47,6.43-7.38,9.82a37.63,37.63,0,0,1-16.68,8.19c-.88.19-2.51.52-2.62.52a6.27,6.27,0,0,0,.92,1.07,7.61,7.61,0,0,0,4.6,2.05,37.13,37.13,0,0,0,4.56-.08,52.69,52.69,0,0,0,16.15-4.42l1.21-.52,0-.3a29.33,29.33,0,0,1,0-5.35,25.67,25.67,0,0,1,4.26-11.65,33.17,33.17,0,0,1,3.24-4.16,30.25,30.25,0,0,1,9.26-7.31A29.18,29.18,0,0,1,257,62a21.24,21.24,0,0,1,5,.4,15.36,15.36,0,0,1,6.17,2.71,17.51,17.51,0,0,1,3.37,3.59A20.75,20.75,0,0,1,275,81.42a31.56,31.56,0,0,1-2.8,12.49,32.19,32.19,0,0,1-7.05,9.73,26,26,0,0,1-15.7,7.1c-.79.09-3.9.15-4.64.11Zm3.81-10.77c3.23-.39,6.09-2.64,8.53-6.7a24,24,0,0,0,3.62-13,14.75,14.75,0,0,0-.76-4.57,6,6,0,0,0-1.52-2.7,2.87,2.87,0,0,0-2.48-.65,10.14,10.14,0,0,0-3.84,1,14.5,14.5,0,0,0-5.93,5.93,25.37,25.37,0,0,0-3.76,11.88,11.29,11.29,0,0,0,1.1,6,5.22,5.22,0,0,0,2.32,2.53,5.41,5.41,0,0,0,2.73.25Zm-49.93-9.43a26.89,26.89,0,0,0,12.13-9.5,9.23,9.23,0,0,0,1.52-3.41,5.9,5.9,0,0,0-.08-1.87,3.12,3.12,0,0,0-.57-1.16,2.52,2.52,0,0,0-1-.64,5.74,5.74,0,0,0-2.05,0c-2.22.47-4.41,2.17-6.61,5.14a18.76,18.76,0,0,0-4,9.31,11.46,11.46,0,0,0,0,2.42s.34-.11.68-.25ZM92.11,54.81a8.68,8.68,0,0,1-3.29-.92,5.87,5.87,0,0,1-1.44-1.28,5.59,5.59,0,0,1-.91-2.33,9.8,9.8,0,0,1,0-2.79,8.24,8.24,0,0,1,2.35-4.07,13.29,13.29,0,0,1,8.41-4.24,6.06,6.06,0,0,1,4.49,1,7.59,7.59,0,0,1,2.51,3.58,6.51,6.51,0,0,1,.11,2.52,9.64,9.64,0,0,1-3.08,5.24A10.9,10.9,0,0,1,95,54.73,16.7,16.7,0,0,1,92.11,54.81Z"/></svg>