<?xml version="1.0" encoding="utf-8"?>
<!-- Generator: Adobe Illustrator 16.0.0, SVG Export Plug-In . SVG Version: 6.00 Build 0)  -->
<!DOCTYPE svg PUBLIC "-//W3C//DTD SVG 1.1//EN" "http://www.w3.org/Graphics/SVG/1.1/DTD/svg11.dtd">
<svg version="1.1" id="Layer_1" xmlns="http://www.w3.org/2000/svg" xmlns:xlink="http://www.w3.org/1999/xlink" x="0px" y="0px"
	 width="300px" height="150px" viewBox="0 0 300 150" enable-background="new 0 0 300 150" xml:space="preserve">
<path fill="#1CA7CC" d="M244.798,110.851c-4.949-0.326-8.798-1.861-11.833-4.723c-1.234-1.163-2.538-2.92-3.292-4.442
	c-0.127-0.258-0.249-0.468-0.271-0.468c-0.02,0-0.335,0.185-0.699,0.411c-0.805,0.5-3.229,1.894-4.26,2.446
	c-6.756,3.634-13.71,5.781-20.731,6.403c-2.246,0.2-4.884,0.234-6.498,0.085c-3.592-0.332-6.511-1.358-8.871-3.122
	c-0.591-0.441-1.994-1.81-2.445-2.385c-0.452-0.586-0.87-1.198-1.25-1.834l-0.252-0.438l-0.762,0.655
	c-4.172,3.593-8.502,5.839-12.791,6.635c-2.067,0.384-4.282,0.427-5.83,0.111c-2.156-0.438-3.721-1.558-4.61-3.299
	c-1.023-2-1.27-4.719-0.78-8.623c0.293-2.335,0.544-3.585,1.577-7.854c0.552-2.271,1.034-4.906,1.21-6.605
	c0.105-1.008,0.105-2.485,0.002-3.172c-0.229-1.521-0.794-2.399-1.8-2.804c-0.356-0.145-1.267-0.174-1.719-0.057
	c-1.869,0.485-4.038,2.759-6.48,6.795c-3.369,5.567-5.218,10.795-5.719,16.166c-0.104,1.123-0.089,4.291,0.025,5.318
	c0.13,1.161,0.373,2.32,0.658,3.142c0.133,0.384,0.257,0.744,0.275,0.801c0.032,0.1-0.014,0.102-1.681,0.069
	c-1.855-0.033-3.025-0.125-4.303-0.337c-4.625-0.765-7.243-2.619-8.385-5.94c-0.688-2.002-0.878-4.163-0.649-7.376
	c0.158-2.213,0.471-4.039,1.152-6.714c0.629-2.474,0.933-4.028,1.134-5.801c0.112-0.996,0.128-2.856,0.027-3.354
	c-0.327-1.623-1.086-2.489-2.433-2.775c-0.273-0.058-0.574-0.076-0.984-0.06c-0.497,0.019-0.657,0.048-1.005,0.185
	c-1.747,0.688-3.612,2.968-5.572,6.812c-2.181,4.274-3.534,8.83-4.004,13.479c-0.254,2.516-0.252,6.1,0.005,8.46
	c0.138,1.265,0.422,2.632,0.698,3.352c0.039,0.1,0,0.101-1.46,0.067c-2.185-0.049-3.611-0.221-5.206-0.626
	c-2.362-0.601-4.266-1.666-5.577-3.121c-0.891-0.988-1.659-2.457-2.105-4.023c-0.047-0.179-0.102-0.355-0.165-0.53
	c-0.011-0.012-0.243,0.183-0.517,0.433c-3.925,3.578-7.486,5.824-11.266,7.105c-2.089,0.709-4.375,1.103-6.396,1.103
	c-2.98,0-5.117-1.032-6.508-3.142c-0.554-0.84-0.862-1.551-1.141-2.635c-0.538-2.089-0.44-4.639,0.33-8.591
	c0.506-2.594,1.023-4.687,2.223-8.995c0.861-3.098,1.452-5.273,1.813-6.687c0.284-1.113,0.301-1.218,0.297-1.8
	c-0.016-1.904-0.786-3.011-2.11-3.029c-0.372-0.004-0.437,0.012-0.836,0.218c-0.592,0.304-1.062,0.607-2.21,1.429l-0.979,0.7
	l-0.144,0.435c-0.798,2.413-2.55,5.925-4.573,9.162c-2.228,3.566-5.631,8.234-8.552,11.737c-5.72,6.852-10.629,10.572-14.958,11.334
	c-0.809,0.143-2.012,0.134-2.619-0.019c-2.683-0.669-4.911-3.383-6.842-8.335c-0.163-0.419-0.977-3.351-2.523-9.104
	c-0.824-3.081-1.657-6.16-2.497-9.237c-0.779-2.712-1.802-5.198-2.695-6.546c-0.686-1.037-1.546-1.712-2.274-1.785
	c-0.295-0.03-0.343-0.016-0.802,0.213c-0.479,0.242-1.861,1.13-3.046,1.959c-0.331,0.231-0.631,0.437-0.666,0.457
	c-0.042,0.023-0.512-0.547-1.311-1.588c-0.437-0.573-0.877-1.144-1.32-1.712c-0.065-0.076,0.036-0.185,0.881-0.94
	c1.911-1.715,3.812-3.44,5.706-5.175c2.592-2.382,4.095-3.605,5.83-4.744c1.854-1.218,3.028-1.682,4.404-1.742
	c3.463-0.153,5.763,1.924,7.009,6.329c0.297,1.052,0.432,1.754,0.887,4.615c1.185,7.463,1.686,10.154,2.468,13.261
	c0.93,3.697,1.964,5.854,3.064,6.396c0.296,0.146,0.387,0.166,0.654,0.146c1.205-0.093,2.926-1.973,5.288-5.774
	c1.946-3.136,3.125-5.659,3.543-7.592c0.105-0.482,0.123-0.724,0.125-1.716c0.001-0.96-0.016-1.214-0.096-1.504
	c-0.275-0.982-0.79-1.638-1.594-2.034c-0.65-0.32-1.087-0.402-2.122-0.402c-1.211,0-2.274,0.2-3.485,0.657
	c-0.34,0.128-0.548,0.182-0.558,0.145c-0.009-0.033,0.118-0.45,0.279-0.927c0.972-2.864,2.113-5.076,3.607-6.997
	c0.542-0.696,1.612-1.798,2.245-2.31c1.057-0.855,2.466-1.661,3.703-2.119c2.71-1.001,6.392-1.173,8.737-0.407
	c3.188,1.042,4.872,3.713,5.238,8.312l0.036,0.443l0.252-0.228c0.138-0.126,1.084-0.995,2.102-1.931
	c4.188-3.854,6.625-5.595,8.671-6.194c0.396-0.116,0.636-0.146,1.321-0.172c2.559-0.094,4.333,0.725,5.558,2.563
	c1.115,1.677,1.621,3.855,1.471,6.351c-0.042,0.715-0.124,1.2-0.585,3.508c-0.856,4.285-1.731,9.229-2.692,15.194
	c-0.319,1.985-0.327,2.062-0.296,2.772c0.077,1.785,0.454,2.89,1.265,3.705c0.305,0.306,0.504,0.455,0.808,0.6
	c0.719,0.342,1.748,0.459,2.446,0.277c0.404-0.105,1.243-0.503,1.905-0.906c1.198-0.729,3.792-2.721,3.835-2.946
	c0.013-0.066,0.099-0.712,0.192-1.435c0.092-0.724,0.407-2.742,0.698-4.484c0.56-3.361,0.848-5.354,1.018-7.063
	c0.138-1.384,0.238-3.098,0.205-3.51c-0.075-0.94-0.685-1.44-1.451-1.191c-0.533,0.174-1.651,0.858-3.202,1.961
	c-0.641,0.456-0.783,0.537-0.84,0.476c-0.318-0.337-2.926-3.343-2.923-3.369c0.003-0.019,0.143-0.152,0.31-0.298
	c0.465-0.404,2.821-2.6,5.648-5.267c3.456-3.26,4.488-4.175,5.923-5.255c1.088-0.817,1.933-1.312,2.648-1.549
	c0.314-0.104,0.479-0.122,1.069-0.118c0.421,0.002,0.848,0.037,1.074,0.087c1.49,0.332,2.659,1.178,3.625,2.625
	c0.997,1.492,1.606,3.073,1.889,4.904c0.154,0.996,0.168,2.943,0.028,3.749c-0.05,0.288-0.092,0.552-0.092,0.588
	c0,0.035,0.164-0.175,0.363-0.469c1.382-2.037,3.322-4.058,5.484-5.71c0.605-0.463,1.997-1.388,2.612-1.737
	c3.067-1.738,6.469-2.711,9.855-2.818c3.154-0.099,5.523,0.66,7.143,2.29c0.61,0.615,1.11,1.329,1.479,2.112
	c0.728,1.52,1.071,3.162,1.145,5.477l0.035,1.112l0.94-0.827c0.604-0.53,1.151-1.072,1.531-1.514
	c0.73-0.852,2.151-2.314,3.007-3.096c3.44-3.145,7.075-4.936,11.038-5.437c0.953-0.121,2.572-0.161,3.383-0.083
	c2.342,0.223,4.143,0.997,5.399,2.323c1.936,2.04,2.74,4.766,2.549,8.631c-0.139,2.772-0.563,5.357-1.725,10.48
	c-1.459,6.438-1.673,7.793-1.501,9.548c0.135,1.392,0.425,1.995,1.14,2.377c0.526,0.279,0.984,0.38,1.897,0.413
	c0.772,0.027,0.823,0.022,1.235-0.116c0.506-0.169,1.202-0.525,1.896-0.972c0.402-0.259,0.492-0.339,0.474-0.427
	c-0.085-0.356-0.151-2.246-0.122-3.411c0.093-3.764,0.904-7.02,2.614-10.5c1.166-2.374,2.559-4.495,4.409-6.714
	c5.41-6.485,11.861-10.491,19.114-11.866c2.963-0.562,6.449-0.707,9.022-0.375c4.884,0.628,7.938,2.74,9.297,6.429
	c0.444,1.203,0.689,2.54,0.731,3.989c0.044,1.523-0.098,2.499-0.573,3.944c-1.062,3.223-3.471,6.429-7.38,9.82
	c-4.59,3.982-10.25,6.762-16.684,8.189c-0.881,0.195-2.512,0.52-2.616,0.52c-0.064,0,0.545,0.703,0.923,1.066
	c1.216,1.169,2.719,1.84,4.595,2.054c0.718,0.08,3.333,0.034,4.564-0.081c5.157-0.488,10.211-1.871,16.15-4.417l1.209-0.519
	l-0.031-0.3c-0.165-1.563-0.169-3.789-0.008-5.35c0.423-4.114,1.836-7.981,4.257-11.653c0.977-1.484,1.851-2.607,3.239-4.164
	c2.971-3.33,5.791-5.554,9.261-7.308c3.954-1.997,8.127-2.997,12.917-3.095c2.039-0.042,3.423,0.066,5.047,0.395
	c2.292,0.464,4.402,1.392,6.168,2.714c1.064,0.798,2.387,2.206,3.366,3.588c2.361,3.331,3.53,7.706,3.394,12.702
	c-0.126,4.557-1.037,8.623-2.8,12.49c-1.577,3.462-4.167,7.036-7.055,9.734c-4.458,4.169-9.551,6.473-15.695,7.102
	C248.647,110.834,245.542,110.899,244.798,110.851L244.798,110.851z M248.611,100.084c3.234-0.392,6.091-2.635,8.531-6.699
	c2.498-4.162,3.734-8.601,3.617-12.979c-0.048-1.777-0.268-3.101-0.76-4.573c-0.448-1.343-0.905-2.154-1.518-2.703
	c-0.651-0.581-1.242-0.735-2.482-0.646c-1.406,0.1-2.644,0.427-3.844,1.015c-2.28,1.116-4.167,3.002-5.935,5.927
	c-2.288,3.79-3.493,7.598-3.763,11.883c-0.144,2.292,0.207,4.196,1.103,5.988c0.626,1.251,1.438,2.141,2.318,2.533
	C246.54,100.126,247.516,100.216,248.611,100.084L248.611,100.084z M198.684,90.656c4.978-1.988,9.476-5.511,12.134-9.497
	c0.827-1.242,1.351-2.42,1.516-3.413c0.079-0.471,0.04-1.361-0.081-1.866c-0.096-0.402-0.341-0.906-0.565-1.161
	c-0.224-0.254-0.632-0.507-1.033-0.638c-0.401-0.133-1.532-0.16-2.055-0.049c-2.221,0.47-4.407,2.169-6.607,5.139
	c-2.391,3.224-3.696,6.266-3.998,9.311c-0.078,0.785-0.074,2.424,0.007,2.424C198.034,90.905,198.342,90.793,198.684,90.656
	L198.684,90.656z M92.111,54.812c-1.233-0.111-2.485-0.46-3.292-0.92c-0.446-0.254-1.136-0.869-1.438-1.278
	c-0.433-0.592-0.751-1.4-0.912-2.333c-0.126-0.725-0.112-2.103,0.028-2.791c0.286-1.404,1.048-2.726,2.346-4.069
	c2.421-2.508,5.288-3.954,8.412-4.242c1.921-0.177,3.31,0.141,4.485,1.026c1.111,0.837,2.121,2.277,2.511,3.581
	c0.191,0.639,0.237,1.74,0.105,2.52c-0.306,1.806-1.313,3.519-3.08,5.24c-1.875,1.826-3.877,2.839-6.296,3.187
	C94.273,54.835,92.811,54.875,92.111,54.812z"/>
</svg>
