<?xml version="1.0" encoding="utf-8"?>
<!-- Generator: Adobe Illustrator 21.0.0, SVG Export Plug-In . SVG Version: 6.00 Build 0)  -->
<svg version="1.1" id="Layer_1" xmlns="http://www.w3.org/2000/svg" xmlns:xlink="http://www.w3.org/1999/xlink" x="0px" y="0px"
	 viewBox="0 0 24 24" style="enable-background:new 0 0 24 24;" xml:space="preserve">
<style type="text/css">
	.st0{fill:none;}
</style>
<path d="M12,8.2c0.7,0,1.3,0.6,1.3,1.3s-0.6,1.3-1.3,1.3s-1.3-0.6-1.3-1.3S11.3,8.2,12,8.2 M12,13.8c1.9,0,3.8,0.9,3.8,1.3v0.7H8.2
	v-0.7C8.2,14.7,10.1,13.8,12,13.8 M12,7c-1.4,0-2.5,1.1-2.5,2.5S10.6,12,12,12s2.5-1.1,2.5-2.5S13.4,7,12,7z M12,12.6
	c-1.7,0-5,0.8-5,2.5V17h10v-1.9C17,13.5,13.7,12.6,12,12.6z"/>
<path class="st0" d="M0,0h24v24H0V0z"/>
</svg>
