<?xml version="1.0" encoding="utf-8"?>
<!-- Generator: Adobe Illustrator 16.0.0, SVG Export Plug-In . SVG Version: 6.00 Build 0)  -->
<!DOCTYPE svg PUBLIC "-//W3C//DTD SVG 1.1//EN" "http://www.w3.org/Graphics/SVG/1.1/DTD/svg11.dtd">
<svg version="1.1" id="Layer_1" xmlns="http://www.w3.org/2000/svg" xmlns:xlink="http://www.w3.org/1999/xlink" x="0px" y="0px"
	 width="418px" height="100px" viewBox="0 0 418 100" enable-background="new 0 0 418 100" xml:space="preserve">
<g>
	<g>
		<path fill="#4D4D4D" d="M203.009,95.049h-20.103l-26.13-29.954h-16.254v29.954h-16.908V5.285c14.221,0,28.419,0.125,42.64,0.125
			c21.133,0.131,32.276,14.209,32.276,29.708c0,12.298-5.623,24.713-22.674,28.185l27.152,30.608V95.049z M140.522,21.167v28.678
			h25.731c10.757,0,15.367-7.168,15.367-14.339c0-7.167-4.732-14.339-15.367-14.339H140.522z"/>
		<path fill="#4D4D4D" d="M225.789,14.128c0,12.158-18.436,12.158-18.436,0C207.354,1.958,225.789,1.958,225.789,14.128z
			 M208.769,31.662v63.387h15.615V31.662H208.769z"/>
		<path fill="#4D4D4D" d="M280.478,95.049v-33.8c0-8.324-4.339-15.884-12.939-15.884c-8.422,0-13.438,7.56-13.438,15.884v33.8
			h-15.624V31.791h14.455l1.169,7.689c3.314-6.404,10.655-8.715,16.663-8.715c7.524,0,15.092,3.081,18.68,11.779
			c5.635-8.959,12.938-11.52,21.128-11.52c17.958,0,26.75,11.016,26.75,29.965v34.059h-15.588V60.99
			c0-8.322-3.49-15.366-11.911-15.366c-8.472,0-13.711,7.301-13.711,15.625v33.8H280.478z"/>
		<path fill="#4D4D4D" d="M366.525,69.057c1.008,7.803,7.802,13.439,18.813,13.439c5.756,0,13.346-2.164,16.935-5.879l9.954,9.855
			c-6.644,6.92-17.55,10.252-27.146,10.252c-21.771,0-34.683-13.447-34.683-33.684c0-19.208,13.07-33.042,33.525-33.042
			c21.13,0,34.352,13.065,31.886,39.058H366.525z M400.843,56.131c-0.999-8.208-7.438-12.298-16.4-12.298
			c-8.422,0-15.333,4.09-17.646,12.298H400.843z"/>
	</g>
	<g>
		<path fill="#DA2E75" d="M37.922,31.429V0h21.385v31.516l27.187-15.758l10.735,18.527L70.042,49.957l27.187,15.757L86.493,84.242
			L59.307,68.571V100H37.922V68.571L10.736,84.242L0,65.714l27.1-15.757L0,34.285l10.736-18.527L37.922,31.429z"/>
	</g>
</g>
</svg>
