<?xml version="1.0" encoding="utf-8"?>
<!-- Generator: Adobe Illustrator 21.0.2, SVG Export Plug-In . SVG Version: 6.00 Build 0)  -->
<svg version="1.1" id="Layer_1" xmlns="http://www.w3.org/2000/svg" xmlns:xlink="http://www.w3.org/1999/xlink" x="0px" y="0px"
	 viewBox="0 0 418 100" style="enable-background:new 0 0 418 100;" xml:space="preserve">
<style type="text/css">
	.st0{fill:#FFFFFF;}
	.st1{fill:#DA2E75;}
</style>
<g>
	<g>
		<path class="st0" d="M203,95h-20.1l-26.1-30h-16.3v30h-16.9V5.3c14.2,0,28.4,0.1,42.6,0.1c21.1,0.1,32.3,14.2,32.3,29.7
			c0,12.3-5.6,24.7-22.7,28.2L203,93.9L203,95L203,95z M140.5,21.2v28.7h25.7c10.8,0,15.4-7.2,15.4-14.3c0-7.2-4.7-14.3-15.4-14.3
			H140.5z"/>
		<path class="st0" d="M225.8,14.1c0,12.2-18.4,12.2-18.4,0C207.4,2,225.8,2,225.8,14.1z M208.8,31.7V95h15.6V31.7H208.8z"/>
		<path class="st0" d="M280.5,95V61.2c0-8.3-4.3-15.9-12.9-15.9c-8.4,0-13.4,7.6-13.4,15.9V95h-15.6V31.8h14.5l1.2,7.7
			c3.3-6.4,10.7-8.7,16.7-8.7c7.5,0,15.1,3.1,18.7,11.8c5.6-9,12.9-11.5,21.1-11.5c18,0,26.8,11,26.8,30V95h-15.6V61
			c0-8.3-3.5-15.4-11.9-15.4c-8.5,0-13.7,7.3-13.7,15.6V95C296.1,95,280.5,95,280.5,95z"/>
		<path class="st0" d="M366.5,69.1c1,7.8,7.8,13.4,18.8,13.4c5.8,0,13.3-2.2,16.9-5.9l10,9.9c-6.6,6.9-17.5,10.3-27.1,10.3
			c-21.8,0-34.7-13.4-34.7-33.7c0-19.2,13.1-33,33.5-33c21.1,0,34.4,13.1,31.9,39.1L366.5,69.1L366.5,69.1z M400.8,56.1
			c-1-8.2-7.4-12.3-16.4-12.3c-8.4,0-15.3,4.1-17.6,12.3H400.8z"/>
	</g>
	<g>
		<path class="st1" d="M37.9,31.4V0h21.4v31.5l27.2-15.8l10.7,18.5L70,50l27.2,15.8L86.5,84.2L59.3,68.6V100H37.9V68.6L10.7,84.2
			L0,65.7L27.1,50L0,34.3l10.7-18.5L37.9,31.4z"/>
	</g>
</g>
</svg>
