<?xml version="1.0" encoding="utf-8"?>
<!-- Generator: Adobe Illustrator 16.0.0, SVG Export Plug-In . SVG Version: 6.00 Build 0)  -->
<!DOCTYPE svg PUBLIC "-//W3C//DTD SVG 1.1//EN" "http://www.w3.org/Graphics/SVG/1.1/DTD/svg11.dtd">
<svg version="1.1" id="Layer_1" xmlns="http://www.w3.org/2000/svg" xmlns:xlink="http://www.w3.org/1999/xlink" x="0px" y="0px"
	 width="500px" height="158px" viewBox="0 0 500 158" enable-background="new 0 0 500 158" xml:space="preserve">
<g>
	<path fill="#FFFFFF" d="M135.721,154.534h-34.364L56.69,103.329H28.903v51.205H0V1.087c24.31,0,48.582,0.214,72.891,0.214
		c36.125,0.225,55.174,24.29,55.174,50.785c0,21.024-9.611,42.246-38.759,48.18l46.415,52.324V154.534z M28.903,28.235V77.26h43.987
		c18.389,0,26.27-12.255,26.27-24.513c0-12.253-8.09-24.512-26.27-24.512H28.903z"/>
	<path fill="#FFFFFF" d="M174.664,16.203c0,20.784-31.515,20.784-31.515,0C143.149-4.602,174.664-4.602,174.664,16.203z
		 M145.567,46.176v108.357h26.694V46.176H145.567z"/>
	<path fill="#FFFFFF" d="M268.151,154.534V96.755c0-14.23-7.418-27.152-22.119-27.152c-14.398,0-22.973,12.922-22.973,27.152v57.779
		h-26.708V46.397h24.711l1.998,13.145c5.667-10.946,18.216-14.897,28.485-14.897c12.864,0,25.8,5.266,31.933,20.136
		c9.632-15.315,22.118-19.692,36.117-19.692c30.698,0,45.728,18.831,45.728,51.224v58.221h-26.646V96.312
		c0-14.227-5.967-26.268-20.36-26.268c-14.482,0-23.438,12.479-23.438,26.71v57.779H268.151z"/>
	<path fill="#FFFFFF" d="M415.246,110.102c1.722,13.337,13.337,22.974,32.159,22.974c9.841,0,22.815-3.701,28.949-10.05
		l17.018,16.847c-11.357,11.83-30.001,17.526-46.405,17.526c-37.216,0-59.288-22.987-59.288-57.581
		c0-32.835,22.345-56.484,57.311-56.484c36.121,0,58.722,22.334,54.508,66.769H415.246z M473.91,88.004
		c-1.709-14.031-12.715-21.022-28.036-21.022c-14.396,0-26.211,6.991-30.165,21.022H473.91z"/>
</g>
</svg>
