<?xml version="1.0" encoding="utf-8"?>
<!-- Generator: Adobe Illustrator 16.0.0, SVG Export Plug-In . SVG Version: 6.00 Build 0)  -->
<!DOCTYPE svg PUBLIC "-//W3C//DTD SVG 1.1//EN" "http://www.w3.org/Graphics/SVG/1.1/DTD/svg11.dtd">
<svg version="1.1" id="Layer_1" xmlns="http://www.w3.org/2000/svg" xmlns:xlink="http://www.w3.org/1999/xlink" x="0px" y="0px"
	 width="1476px" height="520px" viewBox="0 0 1476 520" enable-background="new 0 0 1476 520" xml:space="preserve">
<g>
	<path fill="#4D4D4D" d="M400.68,482.959H299.245L167.398,331.814H85.383v151.145H0.067V30.024
		c71.755,0,143.397,0.633,215.153,0.633c106.634,0.663,162.861,71.696,162.861,149.902c0,62.055-28.372,124.7-114.408,142.216
		L400.68,477.224V482.959z M85.383,110.16v144.706H215.22c54.277,0,77.54-36.171,77.54-72.354c0-36.166-23.878-72.352-77.54-72.352
		H85.383z"/>
	<path fill="#4D4D4D" d="M515.625,74.644c0,61.348-93.023,61.348-93.023,0C422.602,13.234,515.625,13.234,515.625,74.644z
		 M429.742,163.116v319.843h78.793V163.116H429.742z"/>
	<path fill="#4D4D4D" d="M791.577,482.959v-170.55c0-42.002-21.894-80.146-65.293-80.146c-42.495,0-67.804,38.145-67.804,80.146
		v170.55h-78.836v-319.19h72.938l5.898,38.8c16.725-32.313,53.766-43.974,84.08-43.974c37.969,0,76.152,15.544,94.257,59.437
		c28.433-45.206,65.285-58.125,106.609-58.125c90.612,0,134.976,55.583,134.976,151.198v171.855h-78.654V311.104
		c0-41.992-17.61-77.535-60.102-77.535c-42.747,0-69.184,36.839-69.184,78.841v170.55H791.577z"/>
	<path fill="#4D4D4D" d="M1225.762,351.807c5.086,39.37,39.367,67.812,94.931,67.812c29.043,0,67.34-10.919,85.448-29.663
		l50.227,49.729c-33.521,34.917-88.553,51.729-136.971,51.729c-109.856,0-175.004-67.854-175.004-169.962
		c0-96.923,65.951-166.728,169.164-166.728c106.618,0,173.333,65.923,160.89,197.082H1225.762z M1398.922,286.584
		c-5.04-41.417-37.528-62.055-82.754-62.055c-42.495,0-77.367,20.639-89.041,62.055H1398.922z"/>
</g>
</svg>
