<?xml version="1.0" encoding="utf-8"?>
<!-- Generator: Adobe Illustrator 16.0.0, SVG Export Plug-In . SVG Version: 6.00 Build 0)  -->
<!DOCTYPE svg PUBLIC "-//W3C//DTD SVG 1.1//EN" "http://www.w3.org/Graphics/SVG/1.1/DTD/svg11.dtd">
<svg version="1.1" id="Layer_1" xmlns="http://www.w3.org/2000/svg" xmlns:xlink="http://www.w3.org/1999/xlink" x="0px" y="0px"
	 width="1600px" height="500px" viewBox="588.5 335.5 1600 500" enable-background="new 588.5 335.5 1600 500" xml:space="preserve"
	>
<g opacity="0.8">
	<path fill="#4D4D4D" d="M1021.288,826.366H911.707L769.271,663.082h-88.603v163.284H588.5V337.053
		c77.518,0,154.914,0.685,232.434,0.685c115.197,0.717,175.941,77.455,175.941,161.94c0,67.039-30.651,134.716-123.598,153.64
		l148.011,166.853V826.366z M680.668,423.626v156.328h140.266c58.637,0,83.768-39.076,83.768-78.166
		c0-39.07-25.797-78.162-83.768-78.162H680.668z"/>
	<path fill="#4D4D4D" d="M1145.465,385.258c0,66.274-100.494,66.274-100.494,0C1044.971,318.915,1145.465,318.915,1145.465,385.258z
		 M1052.686,480.835v345.531h85.121V480.835H1052.686z"/>
	<path fill="#4D4D4D" d="M1443.58,826.366V642.118c0-45.375-23.652-86.582-70.537-86.582c-45.908,0-73.248,41.208-73.248,86.582
		v184.248h-85.168V481.541h78.795l6.373,41.915c18.067-34.908,58.084-47.505,90.832-47.505c41.02,0,82.268,16.791,101.828,64.21
		c30.715-48.836,70.527-62.793,115.17-62.793c97.891,0,145.818,60.047,145.818,163.342v185.657h-84.973V640.708
		c0-45.365-19.023-83.763-64.928-83.763c-46.182,0-74.742,39.799-74.742,85.174v184.248L1443.58,826.366L1443.58,826.366z"/>
	<path fill="#4D4D4D" d="M1912.637,684.68c5.494,42.532,42.529,73.26,102.557,73.26c31.375,0,72.748-11.796,92.311-32.046
		l54.262,53.723c-36.215,37.721-95.666,55.884-147.973,55.884c-118.68,0-189.061-73.304-189.061-183.612
		c0-104.707,71.248-180.118,182.75-180.118c115.182,0,187.256,71.216,173.814,212.909L1912.637,684.68L1912.637,684.68z
		 M2099.705,614.219c-5.445-44.743-40.541-67.038-89.4-67.038c-45.908,0-83.582,22.296-96.193,67.038H2099.705z"/>
</g>
</svg>
