<?xml version="1.0" encoding="utf-8"?>
<!-- Generator: Adobe Illustrator 16.0.0, SVG Export Plug-In . SVG Version: 6.00 Build 0)  -->
<!DOCTYPE svg PUBLIC "-//W3C//DTD SVG 1.1//EN" "http://www.w3.org/Graphics/SVG/1.1/DTD/svg11.dtd">
<svg version="1.1" id="Layer_1" xmlns="http://www.w3.org/2000/svg" xmlns:xlink="http://www.w3.org/1999/xlink" x="0px" y="0px"
	 width="1600px" height="500px" viewBox="0 0 1600 500" enable-background="new 0 0 1600 500" xml:space="preserve">
<g>
	<path fill="#4D4D4D" d="M468.371,469.192h-99.723L239.031,320.602h-80.635v148.591H74.522V23.905
		c70.543,0,140.978,0.622,211.521,0.622c104.833,0.652,160.11,70.487,160.11,147.372c0,61.01-27.89,122.594-112.475,139.816
		l134.692,151.84V469.192z M158.396,102.686v142.267h127.647c53.364,0,76.232-35.563,76.232-71.136
		c0-35.556-23.478-71.131-76.232-71.131H158.396z"/>
	<path fill="#4D4D4D" d="M581.379,67.77c0,60.313-91.451,60.313-91.451,0C489.928,7.397,581.379,7.397,581.379,67.77z
		 M496.942,154.75v314.443h77.466V154.75H496.942z"/>
	<path fill="#4D4D4D" d="M852.672,469.192V301.524c0-41.296-21.526-78.794-64.188-78.794c-41.779,0-66.663,37.498-66.663,78.794
		v167.668h-77.505V155.391h71.709l5.796,38.146c16.445-31.767,52.858-43.23,82.664-43.23c37.325,0,74.864,15.281,92.662,58.432
		c27.951-44.443,64.185-57.144,104.808-57.144c89.085,0,132.7,54.646,132.7,148.646v168.952h-77.326V300.24
		c0-41.285-17.316-76.226-59.086-76.226c-42.026,0-68.017,36.214-68.017,77.51v167.668H852.672z"/>
	<path fill="#4D4D4D" d="M1279.527,340.257c4.996,38.703,38.705,66.668,93.324,66.668c28.557,0,66.209-10.738,84.008-29.164
		l49.383,48.888c-32.957,34.329-87.059,50.859-134.664,50.859c-107.998,0-172.047-66.708-172.047-167.097
		c0-95.284,64.84-163.912,166.311-163.912c104.816,0,170.404,64.811,158.176,193.757H1279.527z M1449.764,276.131
		c-4.957-40.716-36.895-61.004-81.355-61.004c-41.779,0-76.062,20.288-87.537,61.004H1449.764z"/>
</g>
</svg>
