<?xml version="1.0" encoding="utf-8"?>
<!-- Generator: Adobe Illustrator 21.0.2, SVG Export Plug-In . SVG Version: 6.00 Build 0)  -->
<svg version="1.1" id="Layer_1" xmlns="http://www.w3.org/2000/svg" xmlns:xlink="http://www.w3.org/1999/xlink" x="0px" y="0px"
	 viewBox="0 0 1600 500" style="enable-background:new 0 0 1600 500;" xml:space="preserve">
<style type="text/css">
	.st0{fill:#FFFFFF;}
</style>
<g>
	<path class="st0" d="M432.8,490.9H323.2L180.8,327.6H92.2v163.3H0V1.6c77.5,0,154.9,0.7,232.4,0.7C347.6,3,408.4,79.7,408.4,164.2
		c0,67-30.7,134.7-123.6,153.6l148,166.9L432.8,490.9L432.8,490.9z M92.2,88.1v156.3h140.3c58.6,0,83.8-39.1,83.8-78.2
		c0-39.1-25.8-78.2-83.8-78.2L92.2,88.1L92.2,88.1z"/>
	<path class="st0" d="M557,49.8c0,66.3-100.5,66.3-100.5,0C456.5-16.6,557-16.6,557,49.8z M464.2,145.3v345.5h85.1V145.3H464.2z"/>
	<path class="st0" d="M855.1,490.9V306.6c0-45.4-23.7-86.6-70.5-86.6c-45.9,0-73.2,41.2-73.2,86.6v184.2h-85.2V146h78.8l6.4,41.9
		c18.1-34.9,58.1-47.5,90.8-47.5c41,0,82.3,16.8,101.8,64.2c30.7-48.8,70.5-62.8,115.2-62.8c97.9,0,145.8,60,145.8,163.3v185.7h-85
		V305.2c0-45.4-19-83.8-64.9-83.8c-46.2,0-74.7,39.8-74.7,85.2v184.2L855.1,490.9L855.1,490.9z"/>
	<path class="st0" d="M1324.1,349.2c5.5,42.5,42.5,73.3,102.6,73.3c31.4,0,72.7-11.8,92.3-32l54.3,53.7
		c-36.2,37.7-95.7,55.9-148,55.9c-118.7,0-189.1-73.3-189.1-183.6c0-104.7,71.2-180.1,182.8-180.1c115.2,0,187.3,71.2,173.8,212.9
		H1324.1L1324.1,349.2z M1511.2,278.7c-5.4-44.7-40.5-67-89.4-67c-45.9,0-83.6,22.3-96.2,67H1511.2z"/>
</g>
</svg>
