<?xml version="1.0" encoding="utf-8"?>
<!-- Generator: Adobe Illustrator 16.0.0, SVG Export Plug-In . SVG Version: 6.00 Build 0)  -->
<!DOCTYPE svg PUBLIC "-//W3C//DTD SVG 1.0//EN" "http://www.w3.org/TR/2001/REC-SVG-20010904/DTD/svg10.dtd">
<svg version="1.0" id="Layer_1" xmlns="http://www.w3.org/2000/svg" xmlns:xlink="http://www.w3.org/1999/xlink" x="0px" y="0px"
	 width="150px" height="38px" viewBox="0 0 150 38" enable-background="new 0 0 150 38" xml:space="preserve">
<g>
	<g>
		<path fill="#666666" d="M129.092,4.514c0,0.514-0.248,1.006-0.866,1.283c0.779,0.238,1.064,1.063,1.064,1.482
			c0,1.484-1.112,1.96-2.49,1.96c-1.056,0-2.102,0-3.158,0V2.583c1.047,0,2.103,0,3.158,0
			C128.111,2.583,129.092,3.172,129.092,4.514z M124.879,5.254h1.921c0.789,0,1.046-0.333,1.046-0.713
			c0-0.304-0.247-0.818-1.046-0.818h-1.921V5.254z M124.879,8.07h1.921c0.513,0,1.246-0.172,1.246-0.799
			c0-0.6-0.733-0.914-1.246-0.914h-1.921V8.07z"/>
		<path fill="#666666" d="M135.138,9.239h-4.984c0-2.217,0-4.441,0-6.657h4.984V3.8H131.4v1.53h3.604V6.5H131.4v1.503h3.737V9.239z"
			/>
		<path fill="#666666" d="M138.218,3.724h-2.111V2.583c1.921,0,3.549,0,5.478,0v1.141h-2.11v5.516h-1.256V3.724z"/>
		<path fill="#666666" d="M147.069,7.984h-3.481l-0.569,1.255h-1.358l2.985-6.657h1.37L149,9.239h-1.369L147.069,7.984z
			 M145.329,3.98l-1.234,2.835h2.472L145.329,3.98z"/>
	</g>
	<g>
		<path fill="#DA2E75" d="M14.792,12.195V0.765h7.776v11.461l9.885-5.732l3.904,6.74l-9.886,5.697l9.886,5.729l-3.904,6.74
			l-9.885-5.7v11.43h-7.776V25.7l-9.888,5.7L1,24.66l9.855-5.729L1,13.234l3.904-6.74L14.792,12.195z"/>
	</g>
	<g>
		<path fill="#4D4D4D" d="M71.276,35.43h-7.333l-9.528-10.927H48.48V35.43h-6.164V2.688c5.184,0,10.367,0.044,15.556,0.044
			c7.706,0.048,11.769,5.185,11.769,10.835c0,4.486-2.055,9.018-8.267,10.279l9.902,11.161V35.43z M48.48,8.479v10.464h9.392
			c3.923,0,5.604-2.616,5.604-5.233c0-2.614-1.729-5.23-5.604-5.23H48.48z"/>
		<path fill="#4D4D4D" d="M79.585,5.911c0,4.437-6.725,4.437-6.725,0C72.86,1.474,79.585,1.474,79.585,5.911z M73.372,12.31v23.12
			h5.7V12.31H73.372z"/>
		<path fill="#4D4D4D" d="M99.529,35.43V23.1c0-3.036-1.588-5.793-4.718-5.793c-3.082,0-4.902,2.757-4.902,5.793v12.33h-5.7V12.356
			h5.277l0.423,2.801c1.213-2.335,3.877-3.176,6.072-3.176c2.754,0,5.51,1.122,6.817,4.296c2.055-3.268,4.718-4.2,7.706-4.2
			c6.54,0,9.763,4.018,9.763,10.93V35.43h-5.698V23.007c0-3.036-1.261-5.606-4.345-5.606c-3.081,0-4.996,2.663-4.996,5.699v12.33
			H99.529z"/>
		<path fill="#4D4D4D" d="M130.913,25.95c0.375,2.848,2.849,4.902,6.866,4.902c2.102,0,4.858-0.793,6.168-2.149l3.642,3.597
			c-2.428,2.521-6.401,3.739-9.903,3.739c-7.939,0-12.657-4.905-12.657-12.286c0-7.006,4.763-12.052,12.237-12.052
			c7.706,0,12.52,4.765,11.629,14.249H130.913z M143.432,21.229c-0.373-2.988-2.71-4.482-5.98-4.482
			c-3.081,0-5.604,1.494-6.445,4.482H143.432z"/>
	</g>
</g>
</svg>
