<svg id="Layer_1" data-name="Layer 1" xmlns="http://www.w3.org/2000/svg" viewBox="0 0 300 150"><defs><style>.cls-1{fill:#121110;}</style></defs><title>github</title><path class="cls-1" d="M73.15,70.13h-21a1,1,0,0,0-1,1V81.39a1,1,0,0,0,1,1h8.19V95.13s-1.84.63-6.93.63c-6,0-14.39-2.19-14.39-20.63S47.75,54.26,56,54.26A33.25,33.25,0,0,1,68,56.11a1,1,0,0,0,1.18-1l2.34-9.92a.92.92,0,0,0-.37-.77c-.79-.56-5.61-3.26-17.78-3.26-14,0-28.41,6-28.41,34.65s16.47,33,30.35,33c11.49,0,18.46-4.91,18.46-4.91a.85.85,0,0,0,.32-.75v-32a1,1,0,0,0-1-1m108.27-25.5a1,1,0,0,0-1-1H168.61a1,1,0,0,0-1,1h0V67.49H149.2V44.63a1,1,0,0,0-1-1H136.4a1,1,0,0,0-1,1v61.9a1,1,0,0,0,1,1h11.83a1,1,0,0,0,1-1V80.05h18.44l0,26.48a1,1,0,0,0,1,1h11.86a1,1,0,0,0,1-1V44.63M95.47,52.76a7.63,7.63,0,1,0-7.63,7.71,7.66,7.66,0,0,0,7.63-7.71m-.85,40.72V64.9a1,1,0,0,0-1-1H81.86a1.13,1.13,0,0,0-1,1.1V106c0,1.2.75,1.56,1.72,1.56H93.18c1.17,0,1.45-.57,1.45-1.58V93.47M226.37,64H214.63a1,1,0,0,0-1,1V95.35a13.26,13.26,0,0,1-7.21,2.18c-4.23,0-5.35-1.92-5.35-6.06V65a1,1,0,0,0-1-1H188.2a1,1,0,0,0-1,1V93.47c0,12.31,6.86,15.32,16.3,15.32a27.51,27.51,0,0,0,14-4.28,24.63,24.63,0,0,0,.43,2.52,1,1,0,0,0,.86.54l7.58,0a1,1,0,0,0,1-1V65a1,1,0,0,0-1-1m27.45,33.48a14.06,14.06,0,0,1-6.83-2V75.92a15.64,15.64,0,0,1,6.07-2c4.23-.38,8.3.9,8.3,11C261.36,95.57,259.52,97.66,253.82,97.49Zm4.63-34.87a22.07,22.07,0,0,0-11.2,3v-21a1,1,0,0,0-1-1H234.41a1,1,0,0,0-1,1h0v61.9a1,1,0,0,0,1,1h8.23a1,1,0,0,0,.86-.53,19.21,19.21,0,0,0,.5-2.85s4.85,4.6,14,4.6c10.78,0,17-5.47,17-24.55s-9.87-21.57-16.54-21.57M128.62,63.91h-8.87V52.19c0-.44-.23-.67-.74-.67H106.9c-.47,0-.72.21-.72.66V64.29s-6.06,1.46-6.47,1.58a1,1,0,0,0-.71.94v7.61a1,1,0,0,0,1,1h6.2V93.73c0,13.6,9.54,14.94,16,14.94a27,27,0,0,0,7-1.16.92.92,0,0,0,.56-.89V98.25a1,1,0,0,0-1-1c-.52,0-1.84.21-3.2.21-4.36,0-5.83-2-5.83-4.65V75.42h8.87a1,1,0,0,0,1-1V64.89a1,1,0,0,0-1-1h0"/></svg>