<?xml version="1.0" encoding="utf-8"?>
<!-- Generator: Adobe Illustrator 21.0.0, SVG Export Plug-In . SVG Version: 6.00 Build 0)  -->
<svg version="1.1" id="Layer_1" xmlns="http://www.w3.org/2000/svg" xmlns:xlink="http://www.w3.org/1999/xlink" x="0px" y="0px"
	 viewBox="0 0 300 150" style="enable-background:new 0 0 300 150;" xml:space="preserve">
<style type="text/css">
	.st0{fill:#5DA8DC;}
</style>
<title>twitter</title>
<path class="st0" d="M165.5,36.5L165.5,36.5h4.3l1.6,0.3c1,0.2,1.9,0.5,2.9,0.8c0.9,0.3,1.7,0.7,2.5,1.2c0.8,0.4,1.5,0.8,2.2,1.3
	c0.6,0.4,1.2,0.9,1.8,1.5c0.7,0.5,1.6,0.7,2.4,0.4c1.2-0.3,2.4-0.6,3.5-1c1.2-0.4,2.5-0.9,3.7-1.5c1.2-0.6,2-0.9,2.2-1.1l0.4-0.2
	l0,0h0.1h0.1h0.1h0.1l0,0l0,0l0,0l0,0h0.1h0.1v0.1v0.1v0.1v0.1v0.1v0.1V39c0,0.1-0.1,0.2-0.1,0.3c-0.2,0.6-0.5,1.1-0.8,1.7
	c-0.5,1.1-1.2,2.1-1.9,3c-0.6,0.8-1.3,1.6-2,2.3c-0.6,0.5-1,0.9-1.2,1.1c-0.2,0.2-0.4,0.4-0.7,0.6l-0.4,0.3h-0.1h-0.1l0,0l0,0l0,0
	l0,0h-0.1h-0.1l0,0l0,0l0,0l0,0l0,0l0,0l0,0l0,0h0.4l2.3-0.5c1.5-0.3,3-0.7,4.4-1.2l2.2-0.8l0.2-0.1h0.1h0.1h0.1h0.1h0.1h0.2h0.2
	v0.2l0,0l0,0l0,0l0,0l0,0l0,0l0,0l0,0l0,0l0,0l0,0l0,0v0.1V46l0,0l-1.1,1.4c-0.3,0.5-0.7,1-1.1,1.4c-0.1,0-0.1,0.1-0.2,0.2
	c-0.6,0.7-1.1,1.3-1.8,1.9c-1,1-2.1,2-3.2,2.9c-1.3,0.5-2.2,1.8-2.4,3.2c0,1.2-0.1,2.6-0.2,4.2c-0.1,1.6-0.3,3.2-0.6,5
	c-0.4,2.1-0.8,4.1-1.4,6.1c-0.6,2.3-1.4,4.5-2.3,6.7c-0.8,2-1.8,3.9-2.9,5.8c-1,1.7-1.9,3.2-2.8,4.4c-0.8,1.2-1.7,2.3-2.5,3.4
	c-0.9,1.1-1.9,2.2-3.3,3.6l-2.2,2.2c-0.1,0.1-0.7,0.6-1.6,1.4s-2,1.6-3,2.3c-1,0.7-2,1.4-3,2c-0.9,0.5-2,1.1-3.3,1.8
	c-1.4,0.7-2.8,1.3-4.2,1.9c-1.5,0.6-3.1,1.1-4.7,1.6c-1.6,0.5-3.2,0.9-4.8,1.2c-1.6,0.3-3.3,0.5-5.3,0.7l-3,0.3l0,0h-5.4l0,0h-0.7
	l-1.2-0.1c-0.3,0-1.5-0.2-3.5-0.5c-2-0.3-3.6-0.6-4.7-0.8c-1.1-0.3-2.8-0.8-5.1-1.6c-2-0.7-3.9-1.5-5.8-2.4l-3-1.5
	c-0.4-0.2-0.8-0.5-1.3-0.8l-0.8-0.5l0,0l0,0l0,0l0,0h-0.1h-0.1l0,0l0,0l0,0l0,0l0,0l0,0l0,0v-0.2h0.1h0.1h0.4c0.2,0,0.9,0.1,2,0.1
	s2.3,0.1,3.5,0c1.3-0.1,2.6-0.2,3.8-0.4c1.6-0.2,3.1-0.6,4.6-1c1.7-0.4,3.3-1,4.9-1.7c1.5-0.7,2.5-1.2,3.2-1.5
	c1-0.5,1.9-1.1,2.9-1.8l1.9-1.3l0,0l0,0l0,0l0,0l0,0l0,0l0,0l0,0h0.1h0.1v-0.1v-0.1l0,0l0,0h-0.7l-1.2-0.7c-0.7-0.1-1.3-0.2-2-0.4
	c-1-0.3-1.9-0.6-2.9-1c-1-0.4-2-1-3-1.6c-0.7-0.4-1.5-1-2.1-1.5c-0.4-0.4-1-1-1.7-1.7c-0.7-0.7-1.2-1.5-1.8-2.3
	c-0.5-0.9-1-1.8-1.4-2.7l-0.7-1.5v-0.1v-0.1V82v-0.1h0.1h0.1l0.9,0.1c1,0.1,1.9,0.1,2.9,0.1c0.9,0,1.8-0.1,2.7-0.2l0.9-0.2h0.2h0.2
	h0.2l0,0l0,0l0,0l0,0h-0.2h-0.2h-0.2h-0.2h-0.2l-0.6-0.2c-0.3-0.1-1-0.4-2.2-0.9c-1-0.4-2-0.9-2.9-1.5c-0.7-0.5-1.4-1-2.1-1.6
	c-0.8-0.7-1.5-1.5-2.1-2.3c-0.8-1-1.5-2.1-2.1-3.3c-0.6-1.3-1.1-2.6-1.4-4c-0.3-1.1-0.5-2.3-0.6-3.4l-0.2-1.8h0.1h0.1h0.1h0.1h0.1
	h0.1l1.3,0.6c1,0.4,2.1,0.8,3.2,1c1.3,0.3,2,0.4,2.3,0.5h0.4h0.8l0,0l0,0l0,0l0,0l0,0l0,0l0,0l0,0h-0.1h-0.1l0,0l0,0l0,0l0,0h-0.1
	h-0.1l0,0l-0.7-0.5c-0.5-0.4-1-0.9-1.4-1.4c-0.5-0.6-1-1.1-1.5-1.8c-0.5-0.6-0.9-1.3-1.3-2c-0.6-0.9-1.1-1.8-1.5-2.8
	c-0.4-1-0.8-2.1-1-3.2c-0.2-1.1-0.3-2.1-0.4-3.2c0-0.9,0-1.8,0.1-2.7c0.1-0.9,0.3-1.7,0.5-2.5c0.3-1,0.6-2,1.1-3l0.7-1.6V40v-0.1
	l0,0l0,0l0,0l0,0l0,0l0,0l0,0l0,0l0,0l0,0l0,0l0,0V40v0.1l0,0l0,0l1.1,1.2c0.8,0.8,1.6,1.8,2.7,2.8c0.5,0.6,1.1,1.1,1.7,1.6
	c0.2,0.1,0.3,0.2,0.4,0.4c0.5,0.5,1.1,1,1.7,1.5c0.9,0.8,2.2,1.7,3.7,2.7c1.5,1,3.2,2,5.1,3c1.9,1,3.9,1.9,6,2.7
	c2.1,0.8,3.6,1.3,4.5,1.6c0.9,0.2,2.3,0.6,4.4,1c2.1,0.4,3.6,0.6,4.7,0.8c1.1,0.1,1.8,0.2,2.2,0.2h0.6v-0.1v-0.1l-0.2-1
	c-0.1-1-0.2-1.9-0.2-2.9c0-1.2,0.1-2.3,0.3-3.5c0.2-1.1,0.5-2.2,0.9-3.2c0.3-0.9,0.7-1.8,1.1-2.6c0.6-0.7,1.2-1.4,1.9-2.1
	c0.7-1,1.5-1.8,2.4-2.6c1-0.9,2.1-1.7,3.3-2.4c1.1-0.6,2.3-1.2,3.4-1.6c0.9-0.3,1.8-0.6,2.7-0.7C164.8,36.7,165.2,36.6,165.5,36.5z"
	/>
</svg>
