<?xml version="1.0" encoding="UTF-8" standalone="no"?>
<svg
   xmlns:dc="http://purl.org/dc/elements/1.1/"
   xmlns:cc="http://creativecommons.org/ns#"
   xmlns:rdf="http://www.w3.org/1999/02/22-rdf-syntax-ns#"
   xmlns:svg="http://www.w3.org/2000/svg"
   xmlns="http://www.w3.org/2000/svg"
   xmlns:sodipodi="http://sodipodi.sourceforge.net/DTD/sodipodi-0.dtd"
   xmlns:inkscape="http://www.inkscape.org/namespaces/inkscape"
   id="Layer_1"
   data-name="Layer 1"
   viewBox="0 0 300 150"
   version="1.1"
   sodipodi:docname="social-icon-dribbble.svg"
   inkscape:version="1.0 (4035a4f, 2020-05-01)">
  <metadata
     id="metadata844">
    <rdf:RDF>
      <cc:Work
         rdf:about="">
        <dc:format>image/svg+xml</dc:format>
        <dc:type
           rdf:resource="http://purl.org/dc/dcmitype/StillImage" />
        <dc:title>github</dc:title>
      </cc:Work>
    </rdf:RDF>
  </metadata>
  <sodipodi:namedview
     inkscape:document-rotation="0"
     pagecolor="#ffffff"
     bordercolor="#666666"
     borderopacity="1"
     objecttolerance="10"
     gridtolerance="10"
     guidetolerance="10"
     inkscape:pageopacity="0"
     inkscape:pageshadow="2"
     inkscape:window-width="1394"
     inkscape:window-height="684"
     id="namedview842"
     showgrid="false"
     inkscape:zoom="2.2266391"
     inkscape:cx="159.15011"
     inkscape:cy="67.51372"
     inkscape:window-x="0"
     inkscape:window-y="23"
     inkscape:window-maximized="0"
     inkscape:current-layer="Layer_1" />
  <defs
     id="defs835">
    <style
       id="style833">.cls-1{fill:#121110;}</style>
  </defs>
  <title
     id="title837">github</title>
  <path
     style="stroke-width:0.610794"
     fill="#444444"
     d="m 272.35953,86.757763 c -0.7751,-0.56193 -1.38956,-0.64133 -1.89713,0.42756 -8.70932,18.833837 -23.37632,9.43066 -21.90675,10.25829 3.2592,-1.49645 11.80849,-8.33551 10.52582,-17.81932 -0.77449,-5.797046 -5.74391,-8.361772 -11.03339,-7.427256 -9.21689,1.603335 -12.58298,11.541576 -10.87336,20.330906 0.29379,1.52271 0.82823,2.75163 1.38955,3.98054 -10.39266,8.468667 -14.53324,-7.56041 -15.01455,-9.4838 -0.0263,-0.10689 8.04172,-6.8128 10.28578,-22.815005 2.35095,-16.751036 -2.99228,-19.823332 -8.46866,-19.716443 -10.12514,0.186903 -12.85051,21.319168 -9.19063,38.924708 -0.29379,0.08 -1.73649,0.88137 -4.03368,0.962 -1.65648,-5.21008 -8.7362,-9.778208 -10.57957,-8.01484 -4.62188,4.4081 1.12203,13.00992 5.1832,13.67813 -2.43157,14.987667 -17.65929,11.274037 -14.82765,-7.50667 4.94255,-9.190622 8.7362,-22.895627 8.04172,-31.150514 -0.24065,-2.912878 -2.4047,-6.839064 -7.29349,-6.652161 -9.4038,0.373806 -10.41894,21.506071 -9.32378,36.520005 -0.0531,-0.3738 -0.58759,1.81651 -4.43498,2.91227 -0.90825,-5.04944 -9.05625,-10.152013 -10.97964,-7.69418 -3.57987,4.56875 2.64474,12.71674 5.58327,13.27745 -2.43096,14.987677 -17.65868,11.274047 -14.82703,-7.50666 4.96942,-9.190624 8.73619,-22.868754 8.06798,-31.123641 -0.24004,-2.912267 -2.40409,-6.839675 -7.2935,-6.652161 -9.40379,0.373806 -10.41893,21.506071 -9.32316,36.519402 -0.0538,-0.37381 -0.5882,1.89712 -4.59562,2.96601 -0.13315,-6.57214 -8.30802,-9.564426 -10.28517,-7.4804 -3.49985,3.7399 0.80137,11.4072 4.78191,13.27745 -2.43096,14.987677 -17.65867,11.274047 -14.82703,-7.50666 4.94255,-9.190624 8.73619,-22.895629 8.04172,-31.150516 -0.21378,-2.885392 -2.37782,-6.8128 -7.26723,-6.625286 -9.40379,0.373806 -10.15141,22.57435 -9.05625,37.588292 -3.09917,13.27806 -13.49123,29.841577 -12.12916,-3.36548 0.13377,-2.32468 0.26753,-3.206672 -0.88137,-4.088048 -0.88138,-0.667599 -2.85852,-0.347542 -3.927413,-0.320667 -1.30894,0.05375 -1.65587,0.828237 -1.92339,1.977141 -0.6676,2.992284 -0.80137,5.903944 -0.90826,9.884484 -0.0531,1.87025 -0.21377,2.72537 -0.93512,5.26322 -0.72135,2.53785 -4.781912,7.15973 -7.025971,6.38524 -3.099171,-1.06889 -2.08403,-9.80508 -1.496446,-15.81591 0.481306,-4.75503 -1.068279,-6.865327 -5.021952,-7.641036 -2.324683,-0.480085 -3.740505,-0.400071 -6.144592,-1.175169 -2.297808,-0.720737 -2.805379,-5.048827 -7.667302,-3.60613 -2.671613,0.801362 -0.962001,6.437773 -1.603336,10.632705 -3.152308,20.597207 -9.697581,21.157917 -12.743002,11.16655 13.678129,-33.554605 3.927408,-46.778914 -1.763363,-46.778914 -5.930814,0 -12.71674,4.088047 -9.858222,30.269139 -1.388947,-0.400682 -1.816503,-0.61446 -3.366088,-0.61446 C 30.903939,74.201048 25,81.200753 25,89.829453 c 0,8.6293 5.903939,15.629007 14.560118,15.629007 5.102576,0 8.682442,-2.32469 11.407196,-5.904547 1.763364,2.538457 3.927408,5.957677 7.881081,5.797657 11.754737,-0.45443 15.174575,-24.578367 15.575256,-25.940437 1.255793,0.18629 2.457837,0.56071 3.606741,0.74761 1.924002,0.29379 2.08403,1.06889 2.030281,2.99228 -0.50696,16.40289 2.511586,22.147407 9.377526,22.147407 3.819909,0 7.239748,-3.76738 9.590698,-6.438997 1.763363,3.633617 4.541253,6.331497 8.308633,6.438387 9.08313,0.21377 12.58298,-14.265717 12.26231,-12.368587 -0.24065,1.49522 2.93853,12.261697 12.31606,12.315447 11.5941,0.0531 13.75815,-12.689867 13.9988,-14.827037 0.0531,-0.37441 0.0269,-0.42755 0,0 v 0.13316 c 3.68675,-0.69448 5.58327,-2.64474 5.58327,-2.64474 0,0 2.96541,17.552397 13.89252,17.364877 11.35406,-0.21378 13.51749,-11.727247 13.78502,-13.971917 0.0531,-0.4807 0.0269,-0.53445 0,0 v 0.0531 c 4.38123,-1.60273 5.53013,-3.17858 5.53013,-3.17858 0,0 2.35095,17.204857 13.89191,17.364887 10.28578,0.13376 14.10569,-10.418927 14.13256,-14.827037 1.73649,0.0263 4.94255,-1.04201 4.86254,-1.09515 0,0 3.76676,15.040807 14.29259,15.815297 4.94254,0.37381 8.65556,-2.7785 10.76647,-4.22059 4.96881,4.03369 21.50607,9.16314 31.95188,-8.549287 1.49583,-2.51159 -1.68335,-5.53013 -2.24406,-5.90455 z M 39.132561,99.607043 c -5.049437,0 -8.282372,-4.67502 -8.282372,-9.69758 0,-5.02256 2.966018,-9.69819 8.015455,-9.69819 2.270323,0 3.526116,0.24065 5.316355,1.78963 0.320056,1.2564 1.228918,4.16806 1.682739,5.50386 0.587584,1.76337 1.308932,3.28608 2.003405,4.91568 -1.041404,4.22059 -4.354353,7.1866 -8.735582,7.1866 z m 12.289184,-17.47177 c -0.213778,-0.34754 -0.160639,-0.13437 -0.400681,-0.45443 -0.908251,-2.51098 -2.69849,-8.121734 -2.912268,-14.506369 -0.240042,-7.213482 0.962002,-15.682147 4.514993,-15.682147 2.404697,0 4.969423,17.151108 -1.202044,30.642946 z M 122.5115,74.627999 c -0.56071,-4.27434 -0.58759,-23.376325 3.98116,-22.841879 2.53785,1.01514 -1.60334,19.02136 -3.98116,22.841879 z m 33.47459,0 c -0.56071,-4.27434 -0.58759,-23.376325 3.98116,-22.841879 2.53785,1.01514 -1.60334,19.02136 -3.98116,22.841879 z m 33.20767,0.266917 c -0.56132,-4.274339 -0.58759,-23.375714 3.98055,-22.841879 2.53785,0.988876 -1.60273,19.021971 -3.98055,22.841879 z m 36.65377,-24.257701 c 4.19433,-0.427555 4.00742,17.873067 -4.38123,29.414028 -1.09576,-4.167451 -2.75162,-27.971331 4.38123,-29.414028 z m 17.63242,39.405398 c -1.33581,-6.81219 2.13717,-11.27404 5.71703,-11.75473 1.2558,-0.18691 3.0723,0.61446 3.41923,2.13778 0.58819,2.85851 -0.08,7.10598 -8.12112,12.47547 0.0269,0.0269 -0.72135,-1.36207 -1.01514,-2.85852 z M 101.37984,69.044727 c 2.85852,0 5.18259,-2.324073 5.18259,-5.182591 0,-2.858518 -2.32407,-5.18259 -5.18259,-5.18259 -2.858513,0 -5.183203,2.324072 -5.183203,5.18259 0,2.858518 2.32469,5.182591 5.183203,5.182591 z"
     id="path847" />
</svg>
