<?xml version="1.0" encoding="UTF-8" standalone="no"?>
<svg
   xmlns:dc="http://purl.org/dc/elements/1.1/"
   xmlns:cc="http://creativecommons.org/ns#"
   xmlns:rdf="http://www.w3.org/1999/02/22-rdf-syntax-ns#"
   xmlns:svg="http://www.w3.org/2000/svg"
   xmlns="http://www.w3.org/2000/svg"
   xmlns:sodipodi="http://sodipodi.sourceforge.net/DTD/sodipodi-0.dtd"
   xmlns:inkscape="http://www.inkscape.org/namespaces/inkscape"
   inkscape:version="1.0 (4035a4f, 2020-05-01)"
   sodipodi:docname="social-icon-behance.svg"
   version="1.1"
   viewBox="0 0 300 150"
   data-name="Layer 1"
   id="Layer_1">
  <metadata
     id="metadata844">
    <rdf:RDF>
      <cc:Work
         rdf:about="">
        <dc:format>image/svg+xml</dc:format>
        <dc:type
           rdf:resource="http://purl.org/dc/dcmitype/StillImage" />
        <dc:title>github</dc:title>
      </cc:Work>
    </rdf:RDF>
  </metadata>
  <sodipodi:namedview
     inkscape:current-layer="Layer_1"
     inkscape:window-maximized="0"
     inkscape:window-y="23"
     inkscape:window-x="0"
     inkscape:cy="66.166398"
     inkscape:cx="161.03284"
     inkscape:zoom="2.2266391"
     showgrid="false"
     id="namedview842"
     inkscape:window-height="684"
     inkscape:window-width="1394"
     inkscape:pageshadow="2"
     inkscape:pageopacity="0"
     guidetolerance="10"
     gridtolerance="10"
     objecttolerance="10"
     borderopacity="1"
     bordercolor="#666666"
     pagecolor="#ffffff" />
  <defs
     id="defs835">
    <style
       id="style833">.cls-1{fill:#121110;}</style>
  </defs>
  <title
     id="title837">github</title>
  <g
     transform="translate(43.680538,126.69836)"
     id="g1468">
    <path
       id="path846"
       d="m 2.8049879,-74.896857 c 2.1282851,0 4.0944072,0.162156 5.8983802,0.648618 1.8039799,0.324312 3.2836409,0.993199 4.6011519,1.803972 1.317505,0.810774 2.290434,1.966129 2.959321,3.445797 0.648625,1.479661 0.9932,3.283634 0.9932,5.249763 0,2.290434 -0.486462,4.256563 -1.641817,5.736231 -0.993199,1.47966 -2.614747,2.797172 -4.601145,3.770102 2.797172,0.810773 4.925457,2.290434 6.222692,4.256563 1.297242,1.966129 2.128285,4.41872 2.128285,7.215892 0,2.290441 -0.486461,4.25657 -1.317511,5.898387 -0.810774,1.641817 -2.128278,3.121484 -3.607946,4.094414 -1.479661,0.993199 -3.283634,1.803973 -5.2497626,2.290434 -1.966129,0.486468 -3.9322581,0.810774 -5.8983871,0.810774 l -21.9719873,0.04055 v -45.261486 z m -1.3175115,18.364041 c 1.8039729,0 3.2836405,-0.486461 4.4187195,-1.317504 1.1350858,-0.831043 1.6418237,-2.290441 1.6418237,-4.094414 0,-0.9932 -0.1621561,-1.966129 -0.4864684,-2.614747 C 6.7372459,-65.208098 6.2507776,-65.714836 5.5818905,-66.201298 4.933273,-66.52561 4.264379,-66.849922 3.4536054,-67.012078 2.6428318,-67.174227 1.8117886,-67.174227 0.83885876,-67.174227 H -8.6674742 v 10.661681 c 0,-0.02024 10.1549506,-0.02024 10.1549506,-0.02024 z m 0.4864683,19.357241 c 0.9931993,0 1.966129,-0.162149 2.7971722,-0.324305 0.8107736,-0.162156 1.6418168,-0.486468 2.2904343,-0.993199 0.6486245,-0.506738 1.1553554,-0.9932 1.6418169,-1.803973 0.3243122,-0.810774 0.6486244,-1.803973 0.6486244,-2.959329 0,-2.290441 -0.6486244,-3.932258 -1.966129,-5.087613 -1.3175115,-0.993199 -3.1214845,-1.479661 -5.2497627,-1.479661 h -10.803575 v 12.627811 H 1.9739447 Z"
       style="stroke-width:0.202694" />
    <path
       id="path848"
       d="m 33.634691,-37.337724 c 1.317504,1.317505 3.283633,1.966122 5.89838,1.966122 1.803973,0 3.445796,-0.486461 4.763301,-1.317505 1.317511,-0.993199 2.128285,-1.966129 2.45259,-2.959328 h 8.026673 c -1.317512,3.932258 -3.283641,6.72943 -5.898387,8.533403 -2.614747,1.641817 -5.736231,2.614747 -9.506333,2.614747 -2.614747,0 -4.925451,-0.486462 -7.053736,-1.317512 -2.128285,-0.810773 -3.770102,-1.966122 -5.249763,-3.607945 -1.479667,-1.479661 -2.614746,-3.283634 -3.28364,-5.411919 -0.810774,-2.128285 -1.155356,-4.41872 -1.155356,-7.053736 0,-2.452597 0.324313,-4.763301 1.155356,-6.891586 0.831043,-2.128285 1.966129,-3.932258 3.445797,-5.574075 1.47966,-1.479661 3.283633,-2.797172 5.249762,-3.607946 2.128285,-0.810773 4.256564,-1.317511 6.89158,-1.317511 2.797172,0 5.249769,0.486468 7.378047,1.641823 2.128286,1.155349 3.770102,2.452591 5.087614,4.41872 1.317511,1.803973 2.290441,3.932258 2.959328,6.222692 0.324306,2.290442 0.486462,4.601145 0.324306,7.215892 H 31.344249 c 0,2.675562 0.97293,5.128152 2.290442,6.445664 z M 43.97206,-54.566687 c -1.155349,-1.155355 -2.959322,-1.803972 -5.087607,-1.803972 -1.47966,0 -2.614746,0.324312 -3.607946,0.810773 -0.993199,0.486469 -1.641816,1.155356 -2.290441,1.803973 -0.648617,0.648625 -0.993199,1.479668 -1.155348,2.290441 -0.162156,0.810774 -0.324313,1.479661 -0.324313,2.128279 h 14.756096 c -0.324312,-2.432321 -1.155355,-4.074138 -2.290441,-5.229494 z M 29.540276,-71.775373 h 18.364042 v 4.41872 H 29.540276 Z"
       style="stroke-width:0.202694" />
    <path
       id="path850"
       d="m 67.910182,-74.896857 v 17.046537 h 0.162149 c 1.155355,-1.966129 2.614753,-3.283641 4.418726,-4.094414 1.803973,-0.810774 3.44579,-1.317512 5.249763,-1.317512 2.45259,0 4.418719,0.324312 5.898387,0.993199 1.479661,0.648625 2.797172,1.641824 3.607946,2.797173 0.810773,1.155355 1.479661,2.614753 1.803973,4.25657 0.324305,1.641817 0.486461,3.44579 0.486461,5.574075 v 20.168014 h -9.019864 v -18.526197 c 0,-2.797173 -0.486462,-4.763302 -1.317512,-6.060537 -0.831043,-1.297242 -2.270165,-1.986398 -4.39845,-1.986398 -2.45259,0 -4.256563,0.810773 -5.249763,2.128278 -1.155355,1.479668 -1.641816,3.932258 -1.641816,7.215899 v 17.228955 h -9.019871 v -45.423642 c 0,0 9.019871,0 9.019871,0 z"
       style="stroke-width:0.202694" />
    <path
       id="path852"
       d="m 96.125131,-57.505745 c 0.993199,-1.479661 2.128285,-2.452591 3.607946,-3.44579 1.479663,-0.810774 3.121483,-1.479661 4.925453,-1.803973 1.80398,-0.324312 3.60795,-0.486468 5.41192,-0.486468 1.64182,0 3.28364,0.162156 5.08762,0.324312 1.64181,0.162156 3.28363,0.648617 4.60114,1.317511 1.47966,0.648618 2.45259,1.641817 3.44579,2.797173 0.81077,1.155348 1.31751,2.797172 1.31751,4.763301 v 17.228955 c 0,1.479661 0.16215,2.959329 0.32431,4.256564 0.16215,1.317511 0.64862,2.452597 1.15535,3.121484 h -9.18202 c -0.32431,-0.324312 -0.48647,-0.993199 -0.64861,-1.47966 -0.16216,-0.486469 -0.16216,-1.155356 -0.16216,-1.641824 -1.47967,1.479667 -3.12149,2.452597 -5.08761,3.121484 -1.96613,0.648617 -3.93226,0.810774 -5.89838,0.810774 -1.64183,0 -2.95933,-0.162157 -4.41873,-0.648618 -1.317506,-0.324312 -2.452592,-0.993199 -3.607947,-1.803973 -0.993199,-0.810773 -1.803973,-1.803973 -2.45259,-3.121484 -0.486469,-1.317505 -0.810774,-2.614747 -0.810774,-4.41872 0,-1.803972 0.324305,-3.445789 0.993199,-4.601145 0.648618,-1.155355 1.479661,-2.128285 2.452591,-2.959328 0.993199,-0.648617 2.290441,-1.317511 3.607941,-1.641817 1.31752,-0.324312 2.61475,-0.648617 4.09442,-0.810773 1.3175,-0.162157 2.61475,-0.324313 3.93226,-0.486469 1.3175,-0.162156 2.45259,-0.324305 3.44579,-0.486461 0.9932,-0.324312 1.80397,-0.648625 2.45259,-1.155356 0.64862,-0.486461 0.81077,-1.155355 0.81077,-2.128285 0,-0.993199 -0.16215,-1.803973 -0.48646,-2.290434 -0.32431,-0.486468 -0.81077,-0.993199 -1.31751,-1.317512 -0.48646,-0.324305 -1.15535,-0.486461 -1.80398,-0.648617 -0.64861,-0.162156 -1.47966,-0.162156 -2.29043,-0.162156 -1.80397,0 -3.12148,0.324312 -4.09441,1.155355 -0.9932,0.810774 -1.64182,2.128285 -1.80398,3.770102 h -9.019861 c -0.06079,-2.026937 0.587809,-3.83091 1.418852,-5.128152 z m 17.877579,12.789966 c -0.48646,0.162156 -1.15535,0.324312 -1.80397,0.486469 -0.64862,0.162156 -1.31751,0.162156 -2.12829,0.324312 -0.64861,0.162149 -1.47966,0.162149 -2.12828,0.324305 -0.64862,0.162156 -1.31751,0.324312 -1.96612,0.486468 -0.64863,0.162157 -1.31752,0.486462 -1.64183,0.810774 -0.48646,0.324312 -0.81077,0.810774 -1.15535,1.317505 -0.48647,0.648624 -0.48647,1.317511 -0.48647,2.128285 0,0.810773 0.16216,1.479667 0.48647,1.966129 0.32431,0.486461 0.64862,0.993199 1.15535,1.317511 0.48647,0.324306 1.15536,0.486462 1.80397,0.648618 0.64863,0.162156 1.31752,0.162156 2.12829,0.162156 1.80397,0 3.12148,-0.324312 4.09441,-0.810774 0.9932,-0.648624 1.64182,-1.317511 2.12828,-2.128285 0.48647,-0.810773 0.81078,-1.641817 0.81078,-2.45259 0.16215,-0.810781 0.16215,-1.479668 0.16215,-1.966129 v -3.445797 c -0.48646,0.324312 -0.97293,0.668894 -1.45939,0.831043 z"
       style="stroke-width:0.202694" />
    <path
       id="path854"
       d="m 138.10298,-62.431196 v 4.601145 h 0.16216 c 1.15535,-1.966129 2.61475,-3.28364 4.41872,-4.094414 1.80397,-0.810773 3.7701,-1.317511 5.57407,-1.317511 2.45259,0 4.41872,0.324312 5.89839,0.993199 1.64182,0.648624 2.79717,1.641824 3.60795,2.797172 0.81077,1.155356 1.47966,2.614754 1.96613,4.25657 0.3243,1.641817 0.48646,3.44579 0.48646,5.574075 v 20.168014 h -9.01987 v -18.526197 c 0,-2.797172 -0.48647,-4.763301 -1.31751,-6.060536 -0.81077,-1.317512 -2.29043,-2.128285 -4.60114,-2.128285 -2.45259,0 -4.25657,0.993199 -5.41192,2.45259 -1.15536,1.479668 -1.64182,3.932258 -1.64182,7.215892 v 17.228962 h -9.01986 v -33.160676 c 0.0406,0 8.89824,0 8.89824,0 z"
       style="stroke-width:0.202694" />
    <path
       id="path856"
       d="m 180.42541,-56.532816 c -1.47966,0 -2.61475,0.324313 -3.60795,0.9932 -0.99319,0.648617 -1.80397,1.479667 -2.45259,2.614746 -0.64861,0.9932 -0.9932,2.128285 -1.31751,3.445797 -0.3243,1.317505 -0.3243,2.45259 -0.3243,3.770102 0,1.155348 0.16215,2.45259 0.3243,3.607946 0.32431,1.317504 0.64863,2.290434 1.31751,3.283633 0.64862,0.9932 1.31752,1.803973 2.29044,2.452591 0.9932,0.648624 2.12828,0.993199 3.60795,0.993199 2.12828,0 3.7701,-0.648617 5.08761,-1.803973 1.15535,-1.155348 1.96613,-2.797172 2.12828,-4.92545 h 8.69556 c -0.64862,4.418719 -2.29044,7.702353 -5.08761,10.013064 -2.79717,2.290434 -6.40512,3.445789 -10.82384,3.445789 -2.4526,0 -4.7633,-0.486461 -6.72943,-1.317505 -2.12828,-0.81078 -3.7701,-1.966128 -5.24977,-3.445796 -1.47966,-1.479661 -2.61475,-3.283634 -3.44579,-5.249763 -0.81077,-2.128285 -1.15535,-4.256563 -1.15535,-6.72943 0,-2.614746 0.32431,-4.92545 1.15535,-7.053735 0.81078,-2.128286 1.80397,-4.094415 3.28364,-5.736231 1.47966,-1.641817 3.28364,-2.797173 5.24976,-3.770102 2.12829,-0.810774 4.41872,-1.317512 7.05374,-1.317512 1.96613,0 3.7701,0.324312 5.57408,0.810781 1.80397,0.486461 3.44579,1.317504 4.7633,2.290434 1.47966,0.993199 2.61474,2.290441 3.44579,3.932258 0.81078,1.479661 1.31751,3.44579 1.47966,5.574075 h -8.85771 c -0.34458,-3.911989 -2.47286,-5.878118 -6.40512,-5.878118 z"
       style="stroke-width:0.202694" />
    <path
       id="path858"
       d="m 209.77545,-37.337724 c 1.31751,1.317505 3.44579,1.966122 5.89838,1.966122 1.80398,0 3.4458,-0.486461 4.7633,-1.317505 1.31752,-0.993199 2.12829,-1.966129 2.4526,-2.959328 h 7.86451 c -1.3175,3.932258 -3.28363,6.72943 -5.89838,8.533403 -2.61475,1.641817 -5.73623,2.614747 -9.50633,2.614747 -2.61475,0 -4.92546,-0.486462 -7.05375,-1.317512 -2.12827,-0.810773 -3.7701,-1.966122 -5.24976,-3.607945 -1.47966,-1.479661 -2.61474,-3.283634 -3.28363,-5.411919 -0.81078,-2.128285 -1.15536,-4.41872 -1.15536,-7.053736 0,-2.452597 0.32431,-4.763301 1.15536,-6.891586 0.81077,-2.128285 1.96612,-3.932258 3.44579,-5.574075 1.47966,-1.479661 3.28363,-2.797172 5.24976,-3.607946 2.12829,-0.810773 4.41872,-1.317511 6.89159,-1.317511 2.79717,0 5.24976,0.486468 7.21589,1.641823 2.12828,1.155349 3.7701,2.452591 5.08761,4.41872 1.31751,1.803973 2.29044,3.932258 2.95932,6.222692 0.64863,2.290442 0.81078,4.763302 0.64863,7.378048 h -23.77597 c 0,2.513406 0.97293,4.965996 2.29044,6.283508 z m 10.49953,-17.228963 c -1.15535,-1.155355 -2.95932,-1.803972 -5.08761,-1.803972 -1.47966,0 -2.61475,0.324312 -3.60794,0.810773 -0.9932,0.486469 -1.80398,1.155356 -2.29045,1.803973 -0.48646,0.648625 -0.9932,1.479668 -1.15534,2.290441 -0.16216,0.810774 -0.32432,1.479661 -0.32432,2.128279 h 14.7561 c -0.48646,-2.432321 -1.31751,-4.074138 -2.29044,-5.229494 z"
       style="stroke-width:0.202694" />
  </g>
</svg>
