<svg xmlns="http://www.w3.org/2000/svg" width="1476" height="520" viewBox="0 0 1476 520"><path d="M400.7 483H299.2L167.4 331.8h-82V483H0V30c71.8 0 143.5.7 215.2.7 106.7.6 163 71.7 163 150 0 62-28.5 124.6-114.5 142l137 154.5v5.8zM85.4 110.2V255h129.8c54.3 0 77.6-36.3 77.6-72.5s-24-72.3-77.6-72.3H85.4zm430.2-35.6c0 61.4-93 61.4-93 0s93-61.4 93 0zm-86 88.5v320h79V163h-79zm362 320V312.6c0-42-22-80-65.3-80-42.5 0-67.8 38-67.8 80V483h-79V163.8h73l6 38.8c16.7-32.3 53.7-44 84-44 38 0 76.2 15.5 94.3 59.4 28.5-45.2 65.3-58 106.6-58 90.6 0 135 55.5 135 151v172h-78.7V311c0-42-17.6-77.4-60-77.4-42.8 0-69.2 36.8-69.2 78.8V483h-79zm434.2-131c5 39.4 39.3 67.8 95 67.8 29 0 67.2-11 85.3-29.6l50.7 49.8c-33.6 35-88.6 51.7-137 51.7-110 0-175-67.8-175-170 0-97 66-166.7 169.2-166.7 106.5 0 173.2 66 160.7 197H1226zm173-65.2c-5-41.4-37.4-62-82.6-62-42.5 0-77.4 20.6-89 62H1399z" fill="#4D4D4D"/></svg>