<?xml version="1.0" encoding="utf-8"?>
<!-- Generator: Adobe Illustrator 16.0.0, SVG Export Plug-In . SVG Version: 6.00 Build 0)  -->
<!DOCTYPE svg PUBLIC "-//W3C//DTD SVG 1.1//EN" "http://www.w3.org/Graphics/SVG/1.1/DTD/svg11.dtd">
<svg version="1.1" id="Layer_1" xmlns="http://www.w3.org/2000/svg" xmlns:xlink="http://www.w3.org/1999/xlink" x="0px" y="0px"
	 width="400px" height="75px" viewBox="0 0 400 75" enable-background="new 0 0 400 75" xml:space="preserve">
<g>
	<path d="M18.479,3.565H0V0.059h40.859v3.507H22.414V51.03h-3.936V3.565z"/>
	<path d="M51.1,0v21.7c2.889-5.163,7.93-7.131,12.972-7.189c10.086,0,15.095,6.451,15.095,15.856V51.03h-3.504V30.367
		c0-7.438-3.472-12.481-11.59-12.481c-7.594,0-12.852,5.842-12.852,13.411V51.03h-3.565V0H51.1z"/>
	<path d="M86.488,33.014c0-10.755,8.179-18.563,18.325-18.563c10.112,0,19.184,6.142,17.801,20.223h-32.5
		c0.739,8.487,7.226,13.41,14.7,13.41c4.733,0,10.266-1.906,12.972-5.473l2.552,2.027c-3.505,4.614-9.777,6.951-15.524,6.951
		C94.667,51.589,86.488,44.45,86.488,33.014z M119.383,31.537c-0.06-8.849-5.902-13.832-14.57-13.832
		c-7.474,0-13.866,5.044-14.7,13.832H119.383z"/>
	<path d="M184.135,0h2.182l15.618,46.667L217.77,0h4.244l-18.051,51.219h-4.209l-8.119-23.986l-6.426-20.163l-6.426,20.043
		l-8.144,24.106h-4.244L148.5,0h4.184l15.739,46.667L184.135,0z"/>
	<path d="M220.109,33.014c0-10.755,8.178-18.563,18.324-18.563s19.184,6.142,17.801,20.223h-32.466
		c0.704,8.487,7.226,13.41,14.665,13.41c4.733,0,10.266-1.906,12.973-5.473l2.551,2.027c-3.505,4.614-9.776,6.951-15.523,6.951
		C228.287,51.589,220.109,44.45,220.109,33.014z M253.004,31.537c-0.061-8.849-5.902-13.832-14.57-13.832
		c-7.439,0-13.866,5.044-14.665,13.832H253.004z"/>
	<path d="M269.025,0v22.868c2.889-5.841,8.73-8.418,14.941-8.418c10.086,0,18.075,6.7,18.075,18.563
		c0,11.994-7.929,18.634-18.015,18.634c-6.151,0-12.054-3.075-15.002-8.548v7.931h-3.514V0H269.025z M269.087,32.953
		c0,8.979,6.271,15.19,14.761,15.19c8.049,0,14.689-5.103,14.689-15.13c0-10.146-6.641-15.188-14.689-15.188
		C275.479,17.826,269.087,23.977,269.087,32.953z"/>
	<path d="M314.405,0v51.03h-3.564V0H314.405z"/>
	<path d="M322.704,33.074c0-11.435,8.18-18.754,18.326-18.754s18.324,7.319,18.324,18.754c0,11.505-8.178,18.515-18.324,18.515
		S322.704,44.579,322.704,33.074z M355.851,33.074c0-9.347-6.643-15.369-14.82-15.369c-8.18,0-14.819,6.022-14.819,15.369
		c0,9.348,6.64,15.009,14.819,15.009C349.208,48.083,355.851,42.422,355.851,33.074z"/>
	<path d="M396.555,13.521l2.337,2.097l-3.505,4.057c2.586,2.766,4.492,6.391,4.492,12.232c0,6.271-3.753,12.673-9.716,15.378
		c6.331,2.209,9.837,6.7,9.837,12.913c0,9.716-7.561,14.32-17.156,14.32c-9.527,0-17.097-5.224-17.097-14.32h3.635
		c0,7.379,6.271,10.815,13.462,10.815c7.259,0,13.65-3.196,13.65-10.815c0-7.75-6.95-10.826-13.65-10.826
		c-10.456,0-16.908-7.809-16.908-17.465c0-11.185,7.561-17.586,16.908-17.586c3.625,0,7.438,1.357,10.206,3.325L396.555,13.521z
		 M369.501,31.906c0,7.44,5.104,13.9,13.343,13.9c7.438,0,13.531-6.46,13.531-13.9c0-9.098-6.093-14.021-13.531-14.021
		C375.463,17.886,369.501,22.5,369.501,31.906z"/>
</g>
</svg>
